<?xml version="1.0" encoding="UTF-8"?>
<svg id="Layer_2" data-name="Layer 2" xmlns="http://www.w3.org/2000/svg" viewBox="0 0 205.44 485.47">
  <defs>
    <style>
      .cls-1 {
        fill: #5f8e79;
      }

      .cls-1, .cls-2, .cls-3, .cls-4, .cls-5 {
        stroke-width: 0px;
      }

      .cls-2 {
        fill: #2d4432;
      }

      .cls-6 {
        opacity: .44;
      }

      .cls-3 {
        fill: #352113;
      }

      .cls-4 {
        fill: #be7028;
      }

      .cls-5 {
        fill: #466654;
      }
    </style>
  </defs>
  <g id="P-Aloe">
    <g>
      <path class="cls-4" d="M205.44,335.34c0-10.56-44.51-19.12-99.42-19.12s-95.43,7.81-99.16,17.72h-.27v132.41c0,10.56,44.23,19.12,98.78,19.12s98.78-8.56,98.78-19.12c0-.73,1.27-129.73,1.27-131.01Z"/>
      <ellipse class="cls-3" cx="105.38" cy="335.34" rx="89.86" ry="13.05"/>
      <path class="cls-5" d="M123.45,280.91c-.42,0-3.48-28.72-6.87-61.73l3.38,3.15,1.81-2.44-5.23-1.11c-.04-.42-.09-.83-.13-1.25l2.18-2.55-2.36.79c-.49-4.78-.98-9.63-1.48-14.48l2.89-3.38-3.13,1.05c-.44-4.31-.87-8.62-1.3-12.86l2.06-2.41-2.23.74c-.42-4.12-.82-8.18-1.22-12.12l2.03-2.37-2.19.73c-.44-4.36-.86-8.57-1.26-12.58l2.03-2.38-2.2.74c-.59-5.92-1.14-11.34-1.61-16.04l1.91-2.24-2.07.69c-.74-7.38-1.29-12.78-1.55-15.27l1.72-2.01-1.86.62c-.24-2.71-.51-7.6-.81-13.77l1.73-2.02-1.8.6c-.18-3.82-.38-8.08-.59-12.59l1.91-2.24-1.99.66c-.16-3.33-.32-6.77-.49-10.25l1.53-1.79-1.59.53c-.19-3.84-.39-7.72-.6-11.54l1.28-2.4-1.36.82c-.17-3.08-.35-6.11-.54-9.04l1.43-2.69-1.54.93c-.22-3.32-.45-6.49-.68-9.43l1.28-2.4-1.4.85c-.24-2.81-.49-5.39-.74-7.65l1.68-3.15-1.92,1.16c-.93-7.21-1.99-10.24-3.22-5.73-.37,1.36-.7,3.26-1.01,5.62l-2.56-.61,2.35,2.3c-.29,2.52-.56,5.45-.8,8.72l-2.5-.6,2.37,2.32c-.19,2.73-.37,5.67-.53,8.77l-2.79-.67,2.69,2.64c-.15,3.05-.29,6.23-.41,9.51l-3.23-.77,3.14,3.08c-.12,3.2-.22,6.48-.32,9.81l-2.35-.56,2.31,2.26c-.09,3.22-.17,6.47-.24,9.73l-2.54-.61,2.5,2.45c-.09,4.37-.17,8.74-.24,13.02l-3.2-.77,3.17,3.1c-.07,4.74-.13,9.36-.17,13.73l-3-.72,2.97,2.91c-.05,5.01-.08,9.66-.1,13.78l-2.4-.57,2.39,2.34c-.02,3.81-.03,7.1-.03,9.72l-2.83-.68,2.82,2.76c0,2.92,0,4.56,0,4.56-4.07,102.41.28,170.18.28,170.18,4.74-2.37,18.01,5.21,21.81,6.64,3.79,1.42,8.53-9.01,11.85-12.8s-3.32-40.77-4.27-40.77Z"/>
      <path class="cls-1" d="M90.96,150.33l2.82,2.76c0,2.92,0,4.56,0,4.56-2.68,67.29-1.71,119.62-.74,147.6,1.98-6.62,4.19-13.19,6.44-19.73.05-.36.09-.72.14-1.08,1.2-9.23,2.94-18.36,5.27-27.33-.69-4.09-.51-8.27-.39-12.43.15-5.36.23-10.67.74-16.01.93-9.81,2.69-19.47,3.78-28.88,1.11-9.65,1.84-19.34,2.3-29.05.04-.87.07-1.74.11-2.61-.35-3.46-.69-6.83-1.01-10.05l1.4-1.64c0-.18,0-.36.01-.53l-1.58.53c-.59-5.92-1.14-11.34-1.61-16.04l1.91-2.24-2.07.69c-.74-7.38-1.29-12.78-1.55-15.27l1.72-2.01-1.86.62c-.24-2.71-.51-7.6-.81-13.77l1.73-2.02-1.8.6c-.18-3.82-.38-8.08-.59-12.59l1.91-2.24-1.99.66c-.16-3.33-.32-6.77-.49-10.25l1.53-1.79-1.59.53c-.19-3.84-.39-7.72-.6-11.54l1.28-2.4-1.36.82c-.17-3.08-.35-6.11-.54-9.04l1.43-2.69-1.54.93c-.22-3.32-.45-6.49-.68-9.43l1.28-2.4-1.4.85c-.24-2.81-.49-5.39-.74-7.65l1.68-3.15-1.92,1.16c-.93-7.21-1.99-10.24-3.22-5.73-.37,1.36-.7,3.26-1.01,5.62l-2.56-.61,2.35,2.3c-.29,2.52-.56,5.45-.8,8.72l-2.5-.6,2.37,2.32c-.19,2.73-.37,5.67-.53,8.77l-2.79-.67,2.69,2.64c-.15,3.05-.29,6.23-.41,9.51l-3.23-.77,3.14,3.08c-.12,3.2-.22,6.48-.32,9.81l-2.35-.56,2.31,2.26c-.09,3.22-.17,6.47-.24,9.73l-2.54-.61,2.5,2.45c-.09,4.37-.17,8.74-.24,13.02l-3.2-.77,3.17,3.1c-.07,4.74-.13,9.36-.17,13.73l-3-.72,2.97,2.91c-.05,5.01-.08,9.66-.1,13.78l-2.4-.57,2.39,2.34c-.02,3.81-.03,7.1-.03,9.72l-2.83-.68Z"/>
      <path class="cls-2" d="M155.13,165.72l-1.94.61c.71-8.53.97-14.52.6-16.74-.01-.09-.03-.18-.04-.27l1.85-2.09-2.03.64c-.39-3.68-.64-10.06-.79-17.96l1.88-2.12-1.9.6c-.06-3.63-.1-7.55-.12-11.65l1.55-1.75-1.56.49c-.02-3.4-.02-6.92-.02-10.5l2.05-2.32-2.05.65c0-4.67.03-9.41.06-14.11l1.52-1.71-1.51.48c.03-4.31.07-8.56.11-12.65l1.4-1.58-1.38.44c.04-3.93.09-7.71.14-11.23l2.2-2.48-2.17.69c.07-5.06.14-9.55.2-13.15l1.97-2.23-1.95.62c.08-4.85.14-7.74.14-7.74,0,0,0-1.38-.01-3.62l1.82-2.06-1.83.58c-.01-2.1-.03-4.69-.07-7.5l1.42-1.61-1.44.45c-.04-2.66-.08-5.47-.15-8.2l1.11-1.26-1.14.36c-.06-2.42-.14-4.77-.23-6.87l1.37-1.55-1.42.45c-.2-4.09-.48-7.06-.86-7.57-1.01-1.35-2.51,2.85-3.29,6.74l-1.8-.79,1.55,2.2c-.16,1.04-.26,2-.26,2.76,0,0,0,1.79-.01,4.35l-1.76-.77,1.75,2.47c-.02,2.22-.04,4.77-.09,7.16l-2.56-.54,2.52,2.34c-.07,2.87-.17,5.3-.32,6.32-.04.32-.09.65-.13.98l-3.01-.64,2.75,2.56c-.48,3.49-.99,7.09-1.52,10.8l-2.66-.56,2.42,2.25c-.58,4.08-1.2,8.29-1.83,12.6l-2.96-.63,2.68,2.5c-.55,3.75-1.13,7.59-1.71,11.49l-3.34-.71,3.02,2.82c-.57,3.81-1.16,7.68-1.76,11.6l-3.16-.67,2.86,2.66c-.66,4.31-1.33,8.67-2.01,13.09l-2.75-.58,2.48,2.31c-.48,3.08-.96,6.19-1.44,9.32l-3.41-.73,3.08,2.87c-.62,3.98-1.24,7.99-1.87,12.02l-3.11-.66,2.81,2.61c-.84,5.42-1.69,10.87-2.54,16.33l-2.16-.46,1.95,1.82c-.89,5.73-1.79,11.48-2.68,17.22l-2.59-.55,2.34,2.18c-.83,5.33-1.65,10.65-2.46,15.94l-2.72-.58,2.46,2.29c-.68,4.39-1.35,8.77-2.01,13.11l-3.29-.7,2.98,2.77c-.69,4.53-1.37,9.03-2.04,13.47l-2.83-.6,2.56,2.39c-10.24,68.27-17.56,124.87-11.81,125.49,10.97,1.2,20.45-.22,24.25-6.39,0,0,10.67-76.42,16.98-131l2.37-2.68-2.14.68c.68-5.9,1.3-11.53,1.85-16.75l1.71-1.94-1.56.49c.54-5.22,1.01-10.02,1.37-14.25l2.09-2.36Z"/>
      <path class="cls-5" d="M117.46,212.04l2.56,2.39c-3.2,21.32-6.11,41.49-8.42,59.17,1.19,2.48,2.43,4.95,3.72,7.39.11-.76.22-1.52.34-2.29,1.99-12.69,5.34-25.14,9.27-37.36,4.1-12.74,9.01-25.21,12.63-38.11,3.66-13.03,5.67-26.51,7.65-39.88,1.03-6.94,2-13.88,2.99-20.83.02-15.73.03-31.47.91-47.19.16-2.88,1.62-5.24,3.89-6.51l1.18-1.34-1.51.48c.03-4.31.07-8.56.11-12.65l1.4-1.58-1.38.44c.04-3.93.09-7.71.14-11.23l2.2-2.48-2.17.69c.07-5.06.14-9.55.2-13.15l1.97-2.23-1.95.62c.08-4.85.14-7.74.14-7.74,0,0,0-1.38-.01-3.62l1.82-2.06-1.83.58c-.01-2.1-.03-4.69-.07-7.5l1.42-1.61-1.44.45c-.04-2.66-.08-5.47-.15-8.2l1.11-1.26-1.14.36c-.06-2.42-.14-4.77-.23-6.87l1.37-1.55-1.42.45c-.2-4.09-.48-7.06-.86-7.57-1.01-1.35-2.51,2.85-3.29,6.74l-1.8-.79,1.55,2.2c-.16,1.04-.26,2-.26,2.76,0,0,0,1.79-.01,4.35l-1.76-.77,1.75,2.47c-.02,2.22-.04,4.77-.09,7.16l-2.56-.54,2.52,2.34c-.07,2.87-.17,5.3-.32,6.32-.04.32-.09.65-.13.98l-3.01-.64,2.75,2.56c-.48,3.49-.99,7.09-1.52,10.8l-2.66-.56,2.42,2.25c-.58,4.08-1.2,8.29-1.83,12.6l-2.96-.63,2.68,2.5c-.55,3.75-1.13,7.59-1.71,11.49l-3.34-.71,3.02,2.82c-.57,3.81-1.16,7.68-1.76,11.6l-3.16-.67,2.86,2.66c-.66,4.31-1.33,8.67-2.01,13.09l-2.75-.58,2.48,2.31c-.48,3.08-.96,6.19-1.44,9.32l-3.41-.73,3.08,2.87c-.62,3.98-1.24,7.99-1.87,12.02l-3.11-.66,2.81,2.61c-.84,5.42-1.69,10.87-2.54,16.33l-2.16-.46,1.95,1.82c-.89,5.73-1.79,11.48-2.68,17.22l-2.59-.55,2.34,2.18c-.83,5.33-1.65,10.65-2.46,15.94l-2.72-.58,2.46,2.29c-.68,4.39-1.35,8.77-2.01,13.11l-3.29-.7,2.98,2.77c-.69,4.53-1.37,9.03-2.04,13.47l-2.83-.6Z"/>
      <path class="cls-1" d="M137.32,140.39c.29-2.3.58-4.59.89-6.88,2.16-16.2,5.31-32.2,8.14-48.29,1.33-7.57,2.55-15.17,3.36-22.81.87-8.13,1.12-16.3,1.81-24.45.48-5.75,1.17-10.81,1.65-16.31-.03-1.64-.06-3.3-.1-4.94l.48-.54c0-.17.02-.35.03-.52l-.53.17c-.06-2.42-.14-4.77-.23-6.87l1.33-1.5s0-.02,0-.03l-1.38.44c-.2-4.09-.48-7.06-.86-7.57-1.01-1.35-2.51,2.85-3.29,6.74l-1.8-.79,1.55,2.2c-.16,1.04-.26,2-.26,2.76,0,0,0,1.79-.01,4.35l-1.76-.77,1.75,2.47c-.02,2.22-.04,4.77-.09,7.16l-2.56-.54,2.52,2.34c-.07,2.87-.17,5.3-.32,6.32-.04.32-.09.65-.13.98l-3.01-.64,2.75,2.56c-.48,3.49-.99,7.09-1.52,10.8l-2.66-.56,2.42,2.25c-.58,4.08-1.2,8.29-1.83,12.6l-2.96-.63,2.68,2.5c-.55,3.75-1.13,7.59-1.71,11.49l-3.34-.71,3.02,2.82c-.57,3.81-1.16,7.68-1.76,11.6l-3.16-.67,2.86,2.66c-.66,4.31-1.33,8.67-2.01,13.09l-2.75-.58,2.48,2.31c-.48,3.08-.96,6.19-1.44,9.32l-3.41-.73,3.08,2.87c-.62,3.98-1.24,7.99-1.87,12.02l-3.11-.66,2.81,2.61c-.84,5.42-1.69,10.87-2.54,16.33l-2.16-.46,1.95,1.82c-.89,5.73-1.79,11.48-2.68,17.22l-2.59-.55,2.34,2.18c-.83,5.33-1.65,10.65-2.46,15.94l-2.72-.58,2.46,2.29c-.68,4.39-1.35,8.77-2.01,13.11l-3.29-.7,2.98,2.77c-.69,4.53-1.37,9.03-2.04,13.47l-2.83-.6,2.56,2.39c-3.2,21.32-6.11,41.49-8.42,59.17.69,1.44,1.4,2.87,2.12,4.29,2-15.93,4.39-31.81,7.05-47.64,4.69-27.91,10.15-55.69,15.35-83.51.4-2.12.79-4.24,1.19-6.36Z"/>
      <path class="cls-2" d="M103.54,316.94c-4.3-20.26-19.65-51.49-37.16-85.33l.9-3.55-1.81,1.8c-2.55-4.91-5.13-9.88-7.74-14.87l1.01-3.99-2.04,2.03c-2.87-5.51-5.76-11.05-8.63-16.58l1.81-3.4-2.72,1.64c-2.36-4.57-4.71-9.13-7.01-13.66l1.67-3.15-2.5,1.51c-1.85-3.65-3.68-7.29-5.47-10.9l1.81-3.41-2.7,1.62c-1.78-3.6-3.52-7.17-5.21-10.7l2.2-4.22-3.26,2c-1.65-3.47-3.24-6.89-4.78-10.27l1.88-3.57-2.75,1.67c-1.63-3.62-3.19-7.17-4.66-10.65l1.54-3.51-2.32,1.65c-1.37-3.29-2.66-6.5-3.85-9.64l1.21-3.58-1.94,1.65c-1.07-2.86-2.06-5.66-2.96-8.38l1.35-3.01-1.9,1.33c-3.27-10.15-5.24-19.17-5.44-26.59,0,0-11.38,45.51,18.96,100.5,28.92,88.18,15.64,91.02,55.47,154.55,0,0,15.21,3.44,20.62,1.19,9.24-5.93,7.52-9.58,6.4-20.15Z"/>
      <path class="cls-5" d="M2.45,117.18c4.35,14.61,11.21,27.11,18.76,40.69,11.33,20.39,17.03,42.55,22.3,65.08,3.66,15.66,7.65,31.31,13.43,46.34.44,1.14.88,2.27,1.34,3.4.19.47,1.32,3.07.44,1.08.83,1.88,1.65,3.77,2.53,5.63,1.65,3.48,3.45,6.9,5.42,10.21,1.08,1.82,2.22,3.6,3.41,5.35.45.66.91,1.31,1.38,1.96.28.38.56.76.84,1.14,2.36,2.84,4.76,5.6,7.51,8.08.67.6,1.36,1.18,2.04,1.76.07.06.17.15.28.25.22.17.45.33.67.49,1.37,1,2.8,1.92,4.27,2.77.83.48,1.67.93,2.53,1.36.57.28,3.13,1.77,1.03.52,1.32.79,3.18,1.2,4.65,1.62,1.8.51,3.61.81,5.43,1.18.41.04.82.09,1.23.12.48.04.96.07,1.45.1-4.49-20.27-19.69-51.2-37.01-84.68l.9-3.55-1.81,1.8c-2.55-4.91-5.13-9.88-7.74-14.87l1.01-3.99-2.04,2.03c-2.87-5.51-5.76-11.05-8.63-16.58l1.81-3.4-2.72,1.64c-2.36-4.57-4.71-9.13-7.01-13.66l1.67-3.15-2.5,1.51c-1.85-3.65-3.68-7.29-5.47-10.9l1.81-3.41-2.7,1.62c-1.78-3.6-3.52-7.17-5.21-10.7l2.2-4.22-3.26,2c-1.65-3.47-3.24-6.89-4.78-10.27l1.88-3.57-2.75,1.67c-1.63-3.62-3.19-7.17-4.66-10.65l1.54-3.51-2.32,1.65c-1.37-3.29-2.66-6.5-3.85-9.64l1.21-3.58-1.94,1.65c-1.07-2.86-2.06-5.66-2.96-8.38l1.35-3.01-1.9,1.33c-3.27-10.15-5.24-19.17-5.44-26.59,0,0-2.58,10.32-2,27.06.68,3.12,1.45,6.21,2.36,9.27Z"/>
      <path class="cls-1" d="M7.38,125.88c5.45,13.02,12,25.65,18.55,38.15,7.05,13.46,14,26.99,21.25,40.34,6.04,11.14,12.35,22.48,21.28,31.27-.69-1.34-1.38-2.68-2.08-4.03l.9-3.55-1.81,1.8c-2.55-4.91-5.13-9.88-7.74-14.87l1.01-3.99-2.04,2.03c-2.87-5.51-5.76-11.05-8.63-16.58l1.81-3.4-2.72,1.64c-2.36-4.57-4.71-9.13-7.01-13.66l1.67-3.15-2.5,1.51c-1.85-3.65-3.68-7.29-5.47-10.9l1.81-3.41-2.7,1.62c-1.78-3.6-3.52-7.17-5.21-10.7l2.2-4.22-3.26,2c-1.65-3.47-3.24-6.89-4.78-10.27l1.88-3.57-2.75,1.67c-1.63-3.62-3.19-7.17-4.66-10.65l1.54-3.51-2.32,1.65c-1.37-3.29-2.66-6.5-3.85-9.64l1.21-3.58-1.94,1.65c-1.07-2.86-2.06-5.66-2.96-8.38l1.35-3.01-1.9,1.33c-3.27-10.15-5.24-19.17-5.44-26.59,0,0-2.23,8.94-2.08,23.68,1.87,7.29,4.47,14.43,7.37,21.34Z"/>
      <path class="cls-2" d="M197.88,87.01s-.96,3.76-2.5,9.6l-1.85-1.07,1.44,2.61c-1.05,3.98-2.33,8.77-3.72,13.91l-1.51-.88,1.17,2.12c-1.19,4.38-2.47,8.99-3.76,13.55l-1.68-.97,1.29,2.34c-1.42,4.99-2.86,9.89-4.23,14.35l-1.8-1.05,1.36,2.47c-2.67,8.6-5.05,15.32-6.5,17.44l-2.45-1.42,1.58,2.86c-1.23,2.15-3.42,6.25-6.29,11.81l-2.4-1.39,1.61,2.92c-1.73,3.36-3.67,7.18-5.77,11.38l-3.18-.68,2.4,2.23c-1.74,3.48-3.59,7.21-5.51,11.11l-2.58-.55,1.96,1.82c-25.06,51.17-61.88,132.58-46.22,130.58,22.28-2.84,23.23,8.53,36.03-9.96,12.8-18.49,27.02-71.59,30.81-98.13,3.79-26.55,38.4-110.46,22.28-137.01Z"/>
      <path class="cls-5" d="M132.06,300.04c1.76-11.66,5.43-23.15,9.76-34.05,6.57-16.54,14.23-31.82,20.93-48.25,6.98-17.11,14.04-34.28,20.42-51.6,6.06-16.43,10.94-33.34,15.06-50.3,1.02-4.18,1.98-8.37,2.81-12.59.17-.85.33-1.69.48-2.52-.83-5.35-2.35-10-4.74-13.72,0,0-1.25,4.61-3.24,11.76l-2.4-1.31,1.87,3.19c-1.36,4.88-3.02,10.74-4.84,17.04l-1.96-1.07,1.52,2.6c-1.55,5.37-3.21,11.01-4.89,16.59l-2.18-1.19,1.68,2.86c-1.85,6.11-3.71,12.12-5.49,17.58l-2.34-1.28,1.77,3.02c-3.47,10.53-6.55,18.77-8.44,21.36l-3.18-1.74,2.05,3.5c-1.6,2.63-4.45,7.66-8.17,14.46l-3.11-1.7,2.09,3.57c-2.24,4.11-4.76,8.79-7.5,13.93l-4.13-.83,3.12,2.74c-2.26,4.27-4.66,8.83-7.15,13.61l-3.35-.67,2.54,2.23c-6.35,12.22-13.28,25.85-20.17,39.85-.09,3.68,0,7.36.33,11.04.11,1.18.25,2.35.4,3.53.05.41.39,2.75.14,1.14-.25-1.58.11.69.18,1.1.14.83.28,1.66.45,2.49.67,3.45,1.79,6.68,2.88,10.02,0,.01.01.02.02.03.16.29.3.59.46.88.36.66.75,1.32,1.18,1.95.08.11.15.21.22.3.01,0,.02.02.03.03.39.34.82.75,1.16,1.13.14.06.32.15.47.23.08.02.15.04.22.06,0,0,.01,0,.02,0,.05-.02.17-.02.3-.01.27-.08.56-.14.83-.19,0-.04.15-.1.47-.09.03-.01.05-.02.08-.03.3-.15.6-.29.9-.44.16-.08.31-.17.46-.25Z"/>
      <path class="cls-2" d="M89.79,158.6c-.59-1.86-1.25-3.74-1.94-5.63l1.38-2.6-1.92,1.15c-1.38-3.68-2.92-7.4-4.55-11.19l1.72-3.24-2.48,1.49c-1.16-2.67-2.36-5.36-3.57-8.09l1.78-3.36-2.59,1.56c-1.4-3.13-2.81-6.3-4.2-9.51l1.57-2.95-2.25,1.36c-1.46-3.4-2.89-6.85-4.26-10.35l1.77-3.33-2.48,1.49c-1.26-3.32-2.46-6.68-3.55-10.09l2.23-4.2-2.98,1.8c-.78-2.57-1.5-5.17-2.15-7.79-.11-.45-.22-.9-.33-1.34l2.15-4.04-2.75,1.66c-.63-2.45-1.28-4.86-1.94-7.24l2.33-4.38-3.05,1.84c-.66-2.28-1.33-4.51-2.01-6.69l2.21-4.16-2.96,1.78c-.91-2.84-1.83-5.56-2.75-8.13l1.92-3.61-2.65,1.59c-1.01-2.74-2.01-5.28-2.98-7.57l1.36-2.56-1.96,1.18c-2.91-6.62-5.55-10.87-7.44-11.44,0,0,.91,4.11,2.36,10.76l-2.33-.91,2.96,3.84c.49,2.27,1.03,4.77,1.6,7.45l-2-.48,2.4,2.36c.53,2.46,1.08,5.06,1.64,7.75l-2.63-.63,3.14,3.08c.55,2.61,1.11,5.31,1.68,8.05l-2.93-.7,3.49,3.42c.65,3.17,1.31,6.4,1.97,9.65l-3.09-.74,3.66,3.58c.6,2.97,1.18,5.94,1.76,8.88l-2.57-.62,3.03,2.97c.73,3.74,1.42,7.42,2.08,10.96l-2.74-.65,3.19,3.13c.8,4.38,1.52,8.51,2.13,12.27l-2.95-.71,3.36,3.29c.65,4.14,1.13,7.73,1.41,10.55l-2.4-.57,2.57,2.51c.02.35.05.69.06,1.01.63,4.22,1.09,8.98,1.44,14.17l-2.64-.63,2.77,2.72c.25,4.14.44,8.54.58,13.14l-2.88-.69,2.95,2.89c.14,4.91.24,10.04.33,15.33l-3.73.35,3.76,1.8c.08,5.02.16,10.17.25,15.41l-3.53.33,3.57,1.71c.09,4.68.19,9.41.32,14.18l-2.47.23,2.51,1.2c1.39,46.62,6.12,95.33,30.02,113.29,0,0,7.52-13.86,24.59-1.06,0,0,13.27-11.85,16.12-9.96-1.9-28.44-26.07-11.38-45.51-167.35Z"/>
      <path class="cls-5" d="M71.26,157.16c1.86,12.29,3.63,24.61,4.97,36.97,1.74,15.99,2.45,31.57,4.87,47.01,1.29,5,2.89,9.92,4.8,14.71.04.1.35.85.49,1.2.16.36.57,1.3.58,1.32.42.94.86,1.88,1.31,2.82,1.01,2.11,2.09,4.19,3.24,6.23,2.22,3.96,5.2,8.51,7.6,11.67,2.13,2.82,5.41,6.58,8.4,9.41,1.39,1.32,2.85,2.58,4.33,3.8.72.59,1.46,1.17,2.18,1.75.08.06.23.18.35.28.21.16.41.32.62.48,3.64,2.77,7.45,5.53,11.15,8.43-9.23-15.23-23.79-43.69-36.37-144.64-.59-1.86-1.25-3.74-1.94-5.63l1.38-2.6-1.92,1.15c-1.38-3.68-2.92-7.4-4.55-11.19l1.72-3.24-2.48,1.49c-1.16-2.67-2.36-5.36-3.57-8.09l1.78-3.36-2.59,1.56c-1.4-3.13-2.81-6.3-4.2-9.51l1.57-2.95-2.25,1.36c-1.46-3.4-2.89-6.85-4.26-10.35l1.77-3.33-2.48,1.49c-1.26-3.32-2.46-6.68-3.55-10.09l2.23-4.2-2.98,1.8c-.78-2.57-1.5-5.17-2.15-7.79-.11-.45-.22-.9-.33-1.34l2.15-4.04-2.75,1.66c-.63-2.45-1.28-4.86-1.94-7.24l2.33-4.38-3.05,1.84c-.66-2.28-1.33-4.51-2.01-6.69l2.21-4.16-2.96,1.78c-.91-2.84-1.83-5.56-2.75-8.13l1.92-3.61-2.65,1.59c-1.01-2.74-2.01-5.28-2.98-7.57l1.36-2.56-1.96,1.18c-2.91-6.62-5.55-10.87-7.44-11.44,0,0,.91,4.11,2.36,10.76l-2.33-.91,2.96,3.84c.28,1.31.58,2.7.89,4.15,7.58,24.02,15.29,48.05,20.75,72.66,2.54,11.47,4.38,23.03,6.14,34.64Z"/>
      <path class="cls-1" d="M89.79,158.6c-.59-1.86-1.25-3.74-1.94-5.63l1.38-2.6-1.92,1.15c-1.38-3.68-2.92-7.4-4.55-11.19l1.72-3.24-2.48,1.49c-1.16-2.67-2.36-5.36-3.57-8.09l1.78-3.36-2.59,1.56c-1.4-3.13-2.81-6.3-4.2-9.51l1.57-2.95-2.25,1.36c-1.46-3.4-2.89-6.85-4.26-10.35l1.77-3.33-2.48,1.49c-1.26-3.32-2.46-6.68-3.55-10.09l2.23-4.2-2.98,1.8c-.78-2.57-1.5-5.17-2.15-7.79-.11-.45-.22-.9-.33-1.34l2.15-4.04-2.75,1.66c-.63-2.45-1.28-4.86-1.94-7.24l2.33-4.38-3.05,1.84c-.66-2.28-1.33-4.51-2.01-6.69l2.21-4.16-2.96,1.78c-.91-2.84-1.83-5.56-2.75-8.13l1.92-3.61-2.65,1.59c-1.01-2.74-2.01-5.28-2.98-7.57l1.36-2.56-1.96,1.18c-2.06-4.68-3.98-8.17-5.6-10.02.65,3,1.13,6.05,1.71,9.16,1.16,6.22,3.41,12.26,5.52,18.21,7.73,21.86,15.95,43.44,22.46,65.71,3.44,11.76,6.56,23.61,9.43,35.52,3.59,9.47,6.19,19.23,8.07,29.22,2.01,10.67,3.35,21.47,4.66,32.24,1.24,10.17,1.82,20.52,3.92,30.56,2.06,9.85,6.03,18.68,11.91,26.84,3.22,4.47,6.89,8.59,10.74,12.55-8.95-17.95-20.62-51.96-30.95-134.86Z"/>
      <g class="cls-6">
        <path class="cls-1" d="M85.73,302.25c-.08-.1-.17-.2-.25-.3l.33.43c-.4-.52-.73-1.08-.98-1.68l.22.51c-.12-.29-.22-.58-.3-.87-.15-.52-.51-1-.98-1.27-.24-.16-.51-.24-.79-.25-.28-.06-.57-.05-.85.04-.52.17-1.01.49-1.27.98s-.37,1.08-.22,1.64c.2.7.48,1.38.82,2.02s.79,1.23,1.26,1.77c.19.21.42.36.69.44.25.13.53.19.82.18.29.01.57-.05.82-.18.26-.09.49-.23.69-.44.37-.41.65-.94.62-1.51l-.08-.57c-.1-.36-.28-.68-.55-.94h0Z"/>
      </g>
      <g class="cls-6">
        <path class="cls-1" d="M81.07,289.02v-.34c.01-.29-.05-.57-.18-.82-.09-.26-.23-.49-.44-.69-.19-.21-.42-.36-.69-.44-.25-.13-.53-.19-.82-.18l-.57.08c-.36.1-.68.28-.94.55l-.33.43c-.19.33-.29.69-.29,1.08v.34c-.01.29.05.57.18.82.09.26.23.49.44.69.19.21.42.36.69.44.25.13.53.19.82.18l.57-.08c.36-.1.68-.28.94-.55l.33-.43c.19-.33.29-.69.29-1.08h0Z"/>
      </g>
      <g class="cls-6">
        <path class="cls-1" d="M74.09,278.15v.34c-.01.29.05.57.18.82.09.26.23.49.44.69.19.21.42.36.69.44.25.13.53.19.82.18l.57-.08c.36-.1.68-.28.94-.55l.33-.43c.19-.33.29-.69.29-1.08v-.34c.01-.29-.05-.57-.18-.82-.09-.26-.23-.49-.44-.69-.19-.21-.42-.36-.69-.44-.25-.13-.53-.19-.82-.18l-.57.08c-.36.1-.68.28-.94.55l-.33.43c-.19.33-.29.69-.29,1.08h0Z"/>
      </g>
      <g class="cls-6">
        <path class="cls-1" d="M74.18,264.47h-.34c-.29-.01-.57.05-.82.18-.26.09-.49.23-.69.44-.21.19-.36.42-.44.69-.13.25-.19.53-.18.82l.08.57c.1.36.28.68.55.94l.43.33c.33.19.69.29,1.08.29h.34c.29.01.57-.05.82-.18.26-.09.49-.23.69-.44.21-.19.36-.42.44-.69.13-.25.19-.53.18-.82l-.08-.57c-.1-.36-.28-.68-.55-.94l-.43-.33c-.33-.19-.69-.29-1.08-.29h0Z"/>
      </g>
      <g class="cls-6">
        <path class="cls-1" d="M74.1,255.42c-.24-1.81-.28-3.64-.14-5.45.04-.52-.27-1.15-.62-1.51s-.98-.65-1.51-.62-1.12.21-1.51.62-.58.92-.62,1.51c-.14,1.82-.1,3.65.14,5.45.08.59.19,1.07.62,1.51.37.37.98.65,1.51.62s1.12-.21,1.51-.62c.35-.39.7-.96.62-1.51h0Z"/>
      </g>
      <g class="cls-6">
        <path class="cls-1" d="M71.31,239.58l-.41-2.64c-.1-.36-.28-.68-.55-.94-.27-.26-.58-.45-.94-.55-.38-.1-.76-.1-1.13,0-.36.1-.68.28-.94.55-.18.22-.37.44-.51.69-.11.2-.19.43-.28.64-.02.06-.05.12-.06.18-.08.28-.11.59-.13.87s.05.61.09.9l1.49-2.62s-.04.01-.05.01l.57-.08s-.05,0-.08,0l.57.08s-.05-.01-.07-.02l.51.22s-.05-.03-.07-.04l.43.33s-.05-.05-.08-.08l.33.43s-.04-.06-.06-.1l.22.51s-.03-.09-.04-.13l.08.57s0-.05,0-.08l-.08.57s0-.05.02-.08l-.22.51s.02-.05.04-.07l-.33.43s.02-.03.04-.04l-.43.33s.05-.03.07-.04l-.51.22s.03-.01.05-.01l-.57.08s.05,0,.08,0l-.57-.08s.07.01.11.03l-.51-.22s.07.03.1.06l-.43-.33s.06.05.08.08l-.33-.43s.04.06.06.1l-.22-.51s.02.05.02.08l-.08-.57s0,.05,0,.08l.08-.57s-.01.05-.02.08l.22-.51v.03c-.17.24-.25.51-.27.79-.06.28-.05.57.04.85.07.28.19.52.38.73.15.23.35.42.6.55.5.26,1.09.39,1.64.22.51-.17,1.02-.49,1.27-.98.29-.57.44-1.24.24-1.87-.05-.17-.15-.39-.23-.55-.01-.03-.03-.05-.04-.07-.12-.19-.25-.38-.42-.52-.49-.43-1.06-.71-1.73-.72s-1.27.24-1.71.69c-.79.8-.93,2.03-.38,3.01.23.4.55.7.93.94.33.21.78.32,1.17.33.03,0,.05,0,.08,0l.57-.08s.04,0,.05-.01c.28-.07.52-.19.73-.38.23-.15.42-.35.55-.6l.22-.51c.1-.38.1-.76,0-1.13v-.04c.02.19.05.38.07.57-.01-.13-.01-.25,0-.37l-.08.57c.02-.14.06-.27.11-.4l-.22.51c.05-.12.11-.22.19-.32l-.33.43s.03-.04.05-.06l-3.57-.94.41,2.64c.07.28.19.52.38.73.15.23.35.42.6.55.24.16.51.24.79.25.28.06.57.05.85-.04.52-.17,1.01-.49,1.27-.98l.22-.51c.1-.38.1-.76,0-1.13h0Z"/>
      </g>
      <g class="cls-6">
        <path class="cls-1" d="M68.07,230.02c2.75,0,2.75-4.27,0-4.27s-2.75,4.27,0,4.27h0Z"/>
      </g>
      <g class="cls-6">
        <path class="cls-1" d="M68.41,216.78c2.75,0,2.75-4.27,0-4.27s-2.75,4.27,0,4.27h0Z"/>
      </g>
      <g class="cls-6">
        <path class="cls-1" d="M151.91,290.64l2.04-2.66c.45-.58.35-1.56,0-2.15-.39-.67-1.08-1.03-1.84-1.06-1.28-.05-2.42.69-3.12,1.72-.58.86-.84,2.15-.43,3.13.1.36.28.68.55.94.19.21.42.36.69.44.57.24,1.37.29,1.9-.11,1.01-.76,1.87-1.67,2.38-2.84s.81-2.41.65-3.68c-.05-.38-.09-.74-.29-1.08-.23-.4-.6-.69-1.02-.87-.36-.15-.72-.2-1.11-.15-.5.07-.83.27-1.22.59-.75.61-1.33,1.6-1.5,2.54-.11.57-.09,1.13.22,1.64.26.44.77.86,1.27.98.55.12,1.16.1,1.64-.22.44-.29.88-.73.98-1.27.03-.18.08-.36.15-.53l-.22.51c.09-.22.21-.43.36-.62l-.33.43c.13-.17.28-.32.45-.45l-3.64-1.51c.06.44.06.88,0,1.33l.08-.57c-.07.44-.18.87-.35,1.28l.22-.51c-.18.41-.4.79-.67,1.15l.33-.43c-.26.33-.55.62-.88.88l.43-.33-.06.05,3.13,1.27c-.05-.12-.08-.24-.1-.37l.08.57c-.01-.13,0-.25,0-.38l-.08.57c.02-.13.06-.25.1-.37l-.22.51c.06-.14.13-.27.22-.39l-.33.43c.09-.12.2-.23.32-.32l-.43.33c.1-.08.21-.14.33-.2l-.51.22c.12-.05.24-.08.36-.11l-.57.08c.09-.01.17-.01.26,0l-1.84-3.21-2.04,2.66c-.31.41-.34,1.18-.22,1.64.14.49.52,1.03.98,1.27.5.26,1.09.39,1.64.22l.51-.22c.32-.19.58-.44.77-.77h0Z"/>
      </g>
      <g class="cls-6">
        <path class="cls-1" d="M151.92,275.89l-.05.33c-.09.28-.1.57-.04.85.01.28.1.55.25.79.13.25.32.45.55.6.21.19.45.32.73.38l.57.08c.39,0,.74-.1,1.08-.29l.43-.33c.26-.27.45-.58.55-.94l.05-.33c.09-.28.1-.57.04-.85-.01-.28-.1-.55-.25-.79-.13-.25-.32-.45-.55-.6-.21-.19-.45-.32-.73-.38l-.57-.08c-.39,0-.74.1-1.08.29l-.43.33c-.26.27-.45.58-.55.94h0Z"/>
      </g>
      <g class="cls-6">
        <path class="cls-1" d="M157.98,260.14c.07-.75.15-1.51.25-2.26l-.08.57c.19-1.42.45-2.83.76-4.22.24-1.09-.33-2.36-1.49-2.62-1.08-.25-2.37.32-2.62,1.49-.52,2.32-.87,4.68-1.09,7.05-.05.52.27,1.16.62,1.51s.98.65,1.51.62,1.12-.21,1.51-.62.57-.92.62-1.51h0Z"/>
      </g>
      <g class="cls-6">
        <path class="cls-1" d="M163.32,258.95l.34-.34c.21-.19.36-.42.44-.69.13-.25.19-.53.18-.82.01-.29-.05-.57-.18-.82-.09-.26-.23-.49-.44-.69l-.43-.33c-.33-.19-.69-.29-1.08-.29l-.57.08c-.36.1-.68.28-.94.55l-.34.34c-.21.19-.36.42-.44.69-.13.25-.19.53-.18.82-.01.29.05.57.18.82.09.26.23.49.44.69l.43.33c.33.19.69.29,1.08.29l.57-.08c.36-.1.68-.28.94-.55h0Z"/>
      </g>
      <g class="cls-6">
        <path class="cls-1" d="M160.8,242.46s0,0-.01,0c-.03.02-.41.31-.43.33,0,0,0,0,0,0,0,0-.02.01-.02.02-.12.14-.25.29-.35.45,0,0,0,0,0,.01,0,0,0,0,0,0h0c-.07.17-.14.34-.22.51-.04.1-.04.27-.05.34,0,.06-.05.24-.04.35.02.2.04.4.08.59,0,.01,0,.02,0,.03.06.2.14.39.24.57,0,0,.01.02.02.03.11.16.23.31.35.45,0,0,.01.02.02.02,0,0,0,0,.01.01.03.02.4.31.43.33,0,0,0,0,0,0,0,0,.02.01.02.01,0,0,0,0,0,0,.06.03.45.19.51.22,0,0,.01,0,.02,0,0,0,.02,0,.03,0,.03,0,.54.07.57.08,0,0,0,0,0,0,0,0,.01,0,.02,0,0,0,.01,0,.02,0,0,0,0,0,0,0,.04,0,.54-.07.57-.08.01,0,.02,0,.03,0,.09-.03.22-.09.27-.11.02,0,.18-.07.27-.11,0,0,.02-.01.03-.02.15-.11.31-.22.45-.35,0,0,.01-.01.02-.02.12-.14.25-.29.35-.45,0,0,.01-.02.02-.03.23-.48.29-.66.32-1.19,0-.01,0-.02,0-.04,0,0,0-.01,0-.02h0c-.03-.19-.05-.38-.08-.57,0,0,0,0,0,0,0-.01,0-.02,0-.03,0,0,0-.01,0-.02-.03-.09-.14-.34-.11-.26,0,0-.07-.18-.11-.26,0-.01-.01-.02-.02-.03,0,0,0,0,0,0-.06-.07-.11-.15-.17-.22-.06-.07-.11-.15-.17-.22,0,0,0,0-.01-.01,0,0,0,0-.01-.01,0,0,0,0,0,0-.03-.03-.4-.31-.44-.34-.01,0-.02-.01-.03-.02-.24-.16-.51-.24-.79-.25-.28-.06-.57-.05-.85.04-.28.07-.52.19-.73.38-.23.15-.42.35-.55.6l-.22.51c-.1.38-.1.76,0,1.13l.22.51c.19.32.44.58.77.77.01,0,.02.01.03.02l-.43-.33s.02.02.03.03l-.33-.43s.02.03.03.04l-.22-.51s.01.04.02.06l-.08-.57s0,.05,0,.08l.08-.57s-.01.05-.02.07l.22-.51s-.02.04-.04.06l.33-.43s-.02.03-.04.04l.43-.33s-.03.02-.04.02l.51-.22s-.03.01-.05.01l.57-.08s-.03,0-.05,0l.57.08s-.03,0-.05-.01l.51.22s-.03-.02-.05-.03l.43.33s-.03-.03-.04-.04l.33.43s-.03-.04-.04-.07l.22.51s-.02-.05-.02-.08l.08.57s0-.05,0-.07l-.08.57s0-.04.02-.06l-.22.51s.01-.03.02-.04l-.33.43s.02-.02.03-.03l-.43.33s.01,0,.02-.01c.25-.13.45-.32.6-.55.19-.21.32-.45.38-.73.09-.28.1-.57.04-.85-.01-.28-.1-.55-.25-.79l-.33-.43c-.27-.26-.58-.45-.94-.55l-.57-.08c-.39,0-.74.1-1.08.29h0Z"/>
      </g>
      <g class="cls-6">
        <path class="cls-1" d="M165.17,234.79h.03c-.36-.1-.72-.19-1.08-.29h.02c-.26-.25-.51-.5-.77-.76v.02c-.06-.17-.13-.34-.2-.51v.02c-.02-.19-.05-.38-.07-.57v.02c.02-.19.05-.38.07-.57v.03c.06-.17.14-.34.21-.51,0,.02-.02.03-.03.05l.33-.43-.02.02.43-.33h-.02c.36-.09.72-.18,1.08-.28h-.03c.19.03.38.05.57.08h-.03c.17.06.34.14.51.21l-.03-.02.43.33-.03-.03.33.43-.02-.03.22.51s-.02-.05-.02-.08l.08.57c0-.06,0-.11,0-.17l-.08.57c.18-1.11.47-2.2.88-3.25.09-.28.1-.57.04-.85-.01-.28-.1-.55-.25-.79-.26-.44-.77-.86-1.27-.98-.55-.12-1.16-.1-1.64.22l-.43.33c-.26.27-.45.58-.55.94-.37.94-.65,1.92-.83,2.92-.1.56-.21,1.08-.06,1.64.25.99,1.15,1.73,2.18,1.74.1-.01.21-.02.31-.04.28-.01.55-.1.79-.25.14-.09.36-.25.48-.36.27-.28.49-.64.59-1.02.15-.56.07-1.21-.23-1.71-.4-.66-1.12-1.06-1.89-1.07-.54,0-1.13.24-1.51.62s-.65.98-.62,1.51.21,1.12.62,1.51.93.62,1.51.62h0Z"/>
      </g>
      <g class="cls-6">
        <path class="cls-1" d="M75.34,319.87c-.78-1.14-1.8-2.13-3.04-2.77l-.51-.22c-.28-.09-.57-.1-.85-.04-.19,0-.37.05-.54.15-.26.09-.49.23-.69.44-.25.27-.43.59-.55.94-.09.28-.1.57-.04.85.01.28.1.55.25.79.6.9,1.19,1.79,1.79,2.69l.33.43c.19.21.42.36.69.44.17.1.35.15.54.15.28.06.57.05.85-.04.35-.11.67-.3.94-.55.21-.19.36-.42.44-.69.13-.25.19-.53.18-.82-.05-1.07-.34-2.13-.9-3.04s-1.33-1.67-2.26-2.17c-.32-.17-.71-.29-1.08-.29l-.57.08c-.28.07-.52.19-.73.38-.16.09-.29.22-.38.38-.13.13-.22.29-.27.47-.1.17-.15.35-.15.54-.06.28-.05.57.04.85.17.6.47,1.09.88,1.54s.94.71,1.51.94c.28.09.57.1.85.04.28-.01.55-.1.79-.25.44-.26.86-.77.98-1.27.12-.55.1-1.16-.22-1.64l-.33-.43c-.27-.26-.58-.45-.94-.55l-.05-.02.51.22c-.12-.05-.23-.12-.34-.2l.43.33c-.09-.07-.17-.15-.24-.24l.33.43c-.08-.11-.15-.22-.2-.34l.22.51c-.02-.06-.05-.12-.06-.19l-3.13,2.41c.19.1.37.22.54.35l-.43-.33c.26.21.5.44.7.71l-.33-.43c.22.29.41.61.55.95l-.22-.51c.13.33.23.66.27,1.01l-.08-.57c.01.12.02.23.03.35l3.98-1.08c-.6-.9-1.19-1.79-1.79-2.69l-2.92,2.92c.34.17.67.38.97.61l-.43-.33c.4.31.77.68,1.08,1.08l-.33-.43c.08.1.15.2.23.31.32.46.72.83,1.27.98.51.14,1.19.08,1.64-.22s.86-.73.98-1.27.11-1.17-.22-1.64h0Z"/>
      </g>
      <g class="cls-6">
        <path class="cls-1" d="M68.89,308.58l-.95-1.08c-.19-.21-.42-.36-.69-.44-.25-.13-.53-.19-.82-.18-.29-.01-.57.05-.82.18-.26.09-.49.23-.69.44l-.33.43c-.19.33-.29.69-.29,1.08l.08.57c.1.36.28.68.55.94l.95,1.08c.19.21.42.36.69.44.25.13.53.19.82.18.29.01.57-.05.82-.18.26-.09.49-.23.69-.44l.33-.43c.19-.33.29-.69.29-1.08l-.08-.57c-.1-.36-.28-.68-.55-.94h0Z"/>
      </g>
      <g class="cls-6">
        <path class="cls-1" d="M65.54,307.51s-.02.03-.03.04l.43-.33h-.02c.17-.06.34-.13.51-.2h-.02c.19-.02.38-.05.57-.07-.01,0-.03,0-.04,0l.57.08h-.02c.17.07.34.14.51.21-.01,0-.03-.01-.04-.02l.43.33s-.04-.03-.06-.05l.33.43s-.03-.04-.04-.07l.22.51s-.02-.05-.02-.08l.08.57s0-.03,0-.05l-.08.57v-.02c-.07.17-.14.34-.21.51,0-.02.01-.03.02-.04l-.33.43s.03-.03.05-.04l-.43.33.03-.02-.51.22s.05-.02.07-.02l-.57.08s.07,0,.11,0l-.57-.08s.08.02.12.03l-.51-.22c.05.02.1.05.14.08l-.43-.33c.06.05.1.1.15.15l-.33-.43c.19.25.36.5.56.75.15.18.36.31.54.45.2.15.43.23.67.31.26.09.55.13.83.11.52-.04.87-.13,1.34-.37.05-.03.1-.06.15-.1.17-.13.36-.26.52-.41.21-.21.4-.45.54-.72.25-.49.33-.8.37-1.34,0-.07,0-.13,0-.2-.01-.26-.05-.52-.1-.78-.06-.3-.21-.59-.33-.87-.07-.15-.15-.29-.23-.43-.25-.39-.53-.8-.85-1.13-.55-.57-1.31-.91-2.1-.92s-1.57.36-2.16.9c-.43.39-.68.9-.87,1.43-.04.1-.06.2-.07.3-.04.27-.11.59-.09.88.04.62.16,1.12.46,1.66.13.24.31.45.49.65.19.21.43.38.66.53.05.03.1.06.15.08.2.09.4.18.6.25.05.02.11.03.16.04.23.04.48.08.72.09.28,0,.58-.05.85-.1s.57-.2.8-.31c.35-.16.68-.4.93-.69.37-.42.69-.9.81-1.46.1-.47.11-.73.05-1.17s-.13-.65-.34-1.08c-.26-.54-.72-.94-1.21-1.27-.24-.17-.54-.27-.81-.37s-.6-.13-.9-.15c-.06,0-.11,0-.17,0-.24.02-.5.05-.73.1-.29.07-.57.19-.82.35-.46.3-.83.74-.98,1.27-.09.28-.1.57-.04.85.01.28.1.55.25.79.29.46.73.86,1.27.98s1.16.1,1.64-.22c.05-.03.1-.06.15-.08l-.51.22c.08-.03.17-.06.26-.07l-.57.08c.1-.01.2-.01.3,0l-.57-.08c.11.02.22.05.33.09l-.51-.22c.11.05.2.1.3.17l-.43-.33c.09.07.17.15.24.24l-.33-.43c.06.08.11.17.15.26l-.22-.51c.03.08.06.17.07.26l-.08-.57c.01.09.01.18,0,.27l.08-.57c-.01.09-.04.17-.07.26l.22-.51c-.04.09-.09.18-.15.26l.33-.43c-.07.09-.15.17-.24.24l.43-.33c-.09.07-.19.13-.3.17l.51-.22c-.12.05-.24.08-.36.1l.57-.08c-.11.01-.22.02-.34,0l.57.08c-.1-.01-.2-.04-.29-.08l.51.22c-.08-.04-.16-.08-.24-.14l.43.33c-.07-.06-.13-.12-.19-.19l.33.43c-.07-.09-.12-.19-.17-.29l.22.51c-.05-.12-.08-.24-.1-.36l.08.57c-.02-.14-.02-.27,0-.41l-.08.57c.02-.13.05-.25.1-.36l-.22.51c.05-.1.1-.2.17-.29l-.33.43c.06-.07.12-.14.19-.19l-.43.33c.07-.06.15-.1.24-.14l-.51.22c.09-.04.17-.06.26-.07l-.57.08c.06,0,.12,0,.18,0l-.57-.08c.06.01.11.02.16.05l-.51-.22c.06.03.12.06.18.1l-.43-.33c.11.09.21.19.3.3l-.33-.43c.23.3.45.62.61.97l-.22-.51c.06.15.11.3.13.45l-.08-.57c.01.11.02.21,0,.32l.08-.57c-.01.07-.03.14-.06.21l.22-.51c-.04.08-.08.15-.13.23l.33-.43c-.05.07-.11.13-.18.18l.43-.33c-.07.05-.14.09-.22.13l.51-.22c-.05.02-.11.04-.17.05l.57-.08c-.06,0-.11,0-.17,0l.57.08c-.06,0-.11-.02-.16-.05l.51.22s-.09-.05-.13-.08l.43.33c-.06-.05-.11-.1-.15-.16l.33.43c-.17-.24-.34-.48-.53-.71-.04-.05-.08-.09-.13-.14-.17-.14-.34-.3-.54-.4s-.42-.21-.64-.26c-.14-.03-.46-.08-.61-.08-.03,0-.05,0-.08,0-.21,0-.42.02-.62.09-.16.05-.4.15-.54.23s-.34.24-.46.35c-.09.08-.11.13-.22.26-.08.11-.13.16-.19.25-.05.08-.2.44-.22.53s-.08.5-.08.59c0,.16.04.45.08.61,0,.02,0,.03.01.05.04.13.16.42.22.53,0,.02.02.03.03.05.07.11.26.37.36.46.01.01.02.02.04.04.07.07.37.3.45.35.13.08.4.19.54.23.12.03.46.08.59.08.19,0,.44-.04.63-.08.38-.09.48-.19.74-.39.06-.04.19-.12.25-.2.21-.19.36-.42.44-.69.13-.25.19-.53.18-.82.01-.29-.05-.57-.18-.82-.09-.26-.23-.49-.44-.69-.41-.37-.94-.65-1.51-.62l-.57.08c-.36.1-.68.28-.94.55h0Z"/>
      </g>
      <g class="cls-6">
        <path class="cls-1" d="M63.62,298.32l-.35-1.7c-.07-.28-.19-.52-.38-.73-.15-.23-.35-.42-.6-.55-.24-.16-.51-.24-.79-.25-.28-.06-.57-.05-.85.04l-.51.22c-.32.19-.58.44-.77.77l-.22.51c-.1.38-.1.76,0,1.13l.35,1.7c.07.28.19.52.38.73.15.23.35.42.6.55.24.16.51.24.79.25.28.06.57.05.85-.04l.51-.22c.32-.19.58-.44.77-.77l.22-.51c.1-.38.1-.76,0-1.13h0Z"/>
      </g>
      <g class="cls-6">
        <path class="cls-1" d="M57.25,282.67c-.68-1.74-1.17-3.56-1.44-5.41-.07-.49-.57-1.04-.98-1.27-.46-.27-1.13-.38-1.64-.22s-1.01.49-1.27.98l-.22.51c-.1.38-.1.76,0,1.13.27,1.85.75,3.67,1.44,5.41.21.53.47.97.98,1.27.46.27,1.13.38,1.64.22s1.01-.49,1.27-.98.42-1.12.22-1.64h0Z"/>
      </g>
      <g class="cls-6">
        <path class="cls-1" d="M37.32,223.61l.34-1.36c.03-.14.02-.29-.05-.41-.06-.11-.19-.22-.32-.25-.28-.06-.58.08-.66.37l-.34,1.36c-.03.14-.02.29.05.41.06.11.19.22.32.25.28.06.58-.08.66-.37h0Z"/>
      </g>
      <g class="cls-6">
        <path class="cls-1" d="M38.67,233.32v.68c0,.14.06.28.16.38.05.05.11.09.17.11.06.03.13.05.21.05.14,0,.28-.05.38-.16s.16-.23.16-.38v-.68c0-.14-.06-.28-.16-.38-.05-.05-.11-.09-.17-.11-.06-.03-.13-.05-.21-.05-.14,0-.28.05-.38.16s-.16.23-.16.38h0Z"/>
      </g>
      <g class="cls-6">
        <path class="cls-1" d="M42.88,247.18c.1,1.05.56,2.04,1.35,2.75.18.16.43.2.65.08.52-.3.69-.91.58-1.47-.05-.26-.18-.5-.36-.69-.21-.24-.49-.34-.8-.38-.13-.02-.29.07-.38.16-.09.09-.16.24-.16.38s.05.28.16.38c.11.1.23.14.38.16-.02,0-.14-.03-.06,0,.02,0,.04.01.06.02.07.02-.06-.02-.06-.03.01.01.04.02.05.03.01,0,.03.03.05.03,0,0-.1-.09-.05-.04.02.02.05.05.07.07.06.06-.03-.02-.03-.04,0,.02.02.03.03.05.02.03.03.06.05.09.04.07-.04-.11-.02-.05,0,.02.01.03.02.05.01.04.02.08.03.12.02.1-.01-.14,0-.01,0,.04,0,.07,0,.11,0,.01,0,.05,0,.06,0,0,.03-.14,0-.07,0,.04-.02.08-.03.11,0,.01-.01.03-.02.04.03-.13.05-.1.02-.05-.02.03-.04.06-.05.09.05-.12.07-.08.03-.05-.01.01-.03.03-.04.04-.05.05.04-.04.05-.04-.02,0-.04.03-.06.04l.65.08c-.08-.07-.16-.15-.23-.22-.04-.04-.08-.08-.11-.13-.02-.02-.03-.04-.05-.06-.04-.05,0,0,.01.02-.15-.15-.26-.37-.35-.56-.02-.04-.04-.09-.07-.14-.01-.02-.02-.05-.03-.07-.03-.06.04.1,0,0-.04-.1-.07-.2-.1-.3s-.06-.21-.08-.31c0-.05-.02-.1-.03-.15-.02-.12,0,.08,0,.01,0-.03,0-.06,0-.09-.03-.28-.23-.55-.53-.53-.27.01-.56.24-.53.53h0Z"/>
      </g>
      <g class="cls-6">
        <path class="cls-1" d="M45.27,259.46c.29,2.78,1.57,5.4,3.63,7.31.5.47,1.26-.29.75-.75-1.84-1.71-3.05-4.05-3.31-6.55-.03-.29-.22-.53-.53-.53-.26,0-.56.25-.53.53h0Z"/>
      </g>
      <g class="cls-6">
        <path class="cls-1" d="M48.12,261.05l-.81-2.75c-.16-.55-1.11-.48-1.05.14.21,2.08.96,4.08,2.23,5.74.32.42.96.29.99-.27.16-2.35-.84-4.74-2.63-6.27-.32-.28-.74-.15-.89.24-1.02,2.64.16,5.86,2.6,7.27.34.2.81-.05.8-.46-.05-1.79-.48-3.52-1.24-5.13-.29-.62-1.21-.08-.92.54.68,1.44,1.05,3.01,1.1,4.6l.8-.46c-2.05-1.19-2.96-3.86-2.11-6.06l-.89.24c1.6,1.37,2.46,3.41,2.32,5.51l.99-.27c-1.15-1.51-1.9-3.31-2.09-5.2l-1.05.14.81,2.75c.19.66,1.22.38,1.03-.28h0Z"/>
      </g>
      <g class="cls-6">
        <path class="cls-1" d="M171.74,216.44c-.39-.67-.34-1.45.1-2.08l-.92-.54c-1.1,1.67-1.61,3.7-1.4,5.69.05.44.56.72.91.38,1.69-1.66,2.68-3.95,2.72-6.31,0-.44-.6-.73-.91-.38-1.78,2.02-2.76,4.67-2.66,7.36.02.51.73.75.99.27.64-1.17,1.17-2.4,1.59-3.67.22-.65-.81-.93-1.03-.28-.39,1.18-.88,2.32-1.48,3.41l.99.27c-.08-2.41.75-4.8,2.35-6.61l-.91-.38c-.04,2.09-.91,4.1-2.41,5.56l.91.38c-.18-1.82.25-3.62,1.26-5.15.38-.58-.53-1.1-.92-.54-.65.93-.67,2.19-.1,3.16.35.59,1.27.06.92-.54h0Z"/>
      </g>
      <g class="cls-6">
        <path class="cls-1" d="M173.46,207.58c-.18,0-.36.06-.49.2s-.19.29-.19.47c-.01.24.11.49.27.66.2.21.51.3.79.22s.5-.3.62-.56c.06-.13.11-.26.13-.4s.04-.29.06-.44l-.02.14c.02-.13.05-.27.1-.39l-.05.13c.02-.06.05-.11.09-.16l-.08.11s.06-.07.09-.1l-.11.08s.05-.03.08-.05l-.13.05s.05-.02.08-.03c.27-.07.46-.38.37-.66s-.37-.45-.66-.37c-.33.08-.56.33-.69.64-.1.25-.13.5-.17.76l.02-.14c-.02.13-.05.27-.1.39l.05-.13c-.02.06-.05.11-.09.16l.08-.11s-.06.07-.09.1l.11-.08s-.07.04-.1.06l.13-.05s-.04.01-.06.02l.14-.02s-.04,0-.05,0l.14.02s-.04,0-.06-.02l.13.05s-.05-.03-.07-.04l.11.08s-.04-.04-.06-.06l.08.11s-.05-.07-.06-.11l.05.13s-.02-.06-.02-.09l.02.14s0-.04,0-.06l-.02.14s0-.03.01-.04l-.05.13s.01-.02.02-.04l-.08.11s.01-.01.02-.02l-.11.08s.02-.01.03-.02l-.13.05s.02,0,.04,0l-.14.02s.02,0,.03,0c.28-.02.55-.23.53-.53-.01-.28-.23-.55-.53-.53h0Z"/>
      </g>
      <g class="cls-6">
        <path class="cls-1" d="M167.39,214.92l1.02-2.04c.12-.25.07-.59-.19-.73-.24-.13-.6-.08-.73.19l-1.02,2.04c-.12.25-.07.59.19.73.24.13.6.08.73-.19h0Z"/>
      </g>
      <g class="cls-6">
        <path class="cls-1" d="M175.28,197.82l.99-2.73c.1-.26-.11-.6-.37-.66-.3-.07-.55.09-.66.37l-.99,2.73c-.1.26.11.6.37.66.3.07.55-.09.66-.37h0Z"/>
      </g>
      <g class="cls-6">
        <path class="cls-1" d="M180.9,180.41c.86-1.07,1.49-2.31,1.81-3.66.06-.27-.08-.59-.37-.66s-.59.08-.66.37c-.28,1.17-.81,2.28-1.54,3.19-.18.22-.22.53,0,.75.19.19.57.23.75,0h0Z"/>
      </g>
      <g class="cls-6">
        <path class="cls-1" d="M149.68,160.98c-.12,1.02-.23,2.04-.35,3.06-.03.28.27.55.53.53.32-.01.5-.24.53-.53.12-1.02.23-2.04.35-3.06.03-.28-.27-.55-.53-.53-.32.01-.5.24-.53.53h0Z"/>
      </g>
      <g class="cls-6">
        <path class="cls-1" d="M147.97,174.07l-1.02,7.47c-.04.29.07.57.37.66.25.07.62-.09.66-.37l1.02-7.47c.04-.29-.07-.57-.37-.66-.25-.07-.62.09-.66.37h0Z"/>
      </g>
      <g class="cls-6">
        <path class="cls-1" d="M145.38,191.27c-.31.44.04.96.48,1.11.48.15.93-.14,1.07-.6.12-.4-.03-.83-.14-1.22-.12-.42-.24-.83-.36-1.25-.09-.33-.48-.5-.78-.32-.85.51-1.38,1.46-1.36,2.45,0,.32.34.64.68.51.49-.18.84-.56,1-1.05.14-.44.09-.98-.19-1.35-.21-.28-.57-.36-.84-.11-.77.72-.93,2-.37,2.89.15.24.48.35.73.19s.35-.48.19-.73c-.03-.04-.05-.08-.07-.12-.01-.02-.02-.04-.03-.06-.02-.05-.02-.04.01.03-.04-.02-.07-.23-.08-.27,0-.02,0-.05-.01-.07,0-.06,0-.05,0,.03,0,0,0-.13,0-.14,0-.05,0-.1,0-.14,0-.02,0-.05,0-.07,0-.05,0-.05,0,0,0,.05,0,.05,0,0,0-.02,0-.05.01-.07,0-.05.02-.09.03-.14s.03-.09.04-.14c.02-.05.02-.04-.01.03,0-.02.02-.04.03-.07.02-.04.1-.24.15-.25-.05.06-.05.07-.02.02.02-.02.03-.04.05-.05.03-.04.07-.07.1-.1l-.84-.11s.05.07.07.1c.04.06,0,.08,0-.02,0,.05.04.15.06.21-.01-.09-.01-.11,0-.05,0,.02,0,.04,0,.06,0,.03,0,.06,0,.09,0,.1.03-.13,0,0,0,.04-.02.07-.03.11,0,.03-.02.06-.03.09-.03.09.06-.11,0,.01-.01.03-.03.05-.05.08-.08.12.05-.05,0,.02-.02.02-.04.05-.06.07-.01.01-.03.03-.05.04-.04.04-.03.03.04-.03-.02,0-.06.04-.08.05-.13.07.07-.02-.01,0l.68.51c0-.09,0-.18,0-.27,0-.06,0-.05,0,.03,0-.03,0-.05.01-.08,0-.04.02-.08.03-.11.02-.09.05-.17.08-.26.02-.05.02-.05,0,.02.01-.02.02-.05.03-.07.02-.04.04-.08.06-.12.04-.08.09-.16.15-.23.08-.11-.05.05.02-.03.03-.03.06-.07.09-.1.06-.07.13-.12.2-.19.03-.02.02-.02-.03.02.02-.02.04-.03.06-.05.04-.03.09-.06.13-.08l-.78-.32c.16.56.35,1.12.48,1.69,0,.03.01.05.02.08,0,.02,0,.1,0,.03,0-.09,0,.12,0,.12,0,0,.02-.12,0-.03-.02.07,0,0,.01-.03-.03.06,0,0,.02-.02.07-.05.09-.06.06-.04-.02.01-.01,0,.03-.01.11-.05-.06,0,.06-.02.11-.02-.05-.02.06,0s0-.01,0,0c.01,0,.12.06.06.02s.04.03.05.04c-.05-.05.03.05.04.05.04.07.05.16.04.24,0,.03,0,.06-.02.09-.02.05-.02.06,0,.02.16-.23.05-.6-.19-.73-.27-.14-.56-.05-.73.19h0Z"/>
      </g>
      <g class="cls-6">
        <path class="cls-1" d="M143.61,177.96l-.03,1.85c0,.52.74.74.99.27.52-.98.61-2.18.19-3.22-.09-.21-.26-.4-.51-.39-.22,0-.48.16-.51.39-.05.31-.1.63-.15.94-.04.27.07.59.37.66.26.06.61-.08.66-.37.05-.31.1-.63.15-.94h-1.03c.09.22.16.44.2.67,0,.03.01.06.01.09,0-.06,0-.07,0,0,0,.05,0,.09.01.14,0,.12,0,.23,0,.35,0,.05,0,.11-.01.16,0,.03,0,.06,0,.09,0-.06,0-.07,0,0-.02.11-.04.21-.07.32s-.06.21-.1.31c-.01.03-.02.06-.03.09.02-.06.02-.06,0,0-.03.06-.05.11-.08.17l.99.27.03-1.85c0-.28-.25-.55-.53-.53s-.53.23-.53.53h0Z"/>
      </g>
      <g class="cls-6">
        <path class="cls-1" d="M145.74,166.83c-.31.43-.48.98-.46,1.51,0,.27.2.49.46.52s.51-.13.59-.38c.1-.34.2-.68.3-1.03.05-.18,0-.39-.14-.52s-.33-.18-.52-.14c-.26.07-.49.25-.62.49-.15.27-.18.61,0,.88.1.15.24.28.42.32s.35.01.51-.07c.2-.1.35-.31.41-.52.05-.17.03-.36-.06-.52-.05-.09-.14-.17-.23-.23-.11-.06-.21-.07-.33-.09s-.29.07-.38.16c-.09.09-.16.24-.16.38s.05.28.16.38l.11.08c.08.05.17.07.27.07h.01s-.09-.01-.14-.02c.01,0,.03,0,.04.01l-.13-.05s.01,0,.02.01l-.11-.08s.01.01.02.02l-.08-.11s0,.01.01.02l-.05-.13s0,.02,0,.03l-.02-.14s0,.03,0,.04l.02-.14s0,.04-.02.05l.05-.13s-.03.05-.05.08l.08-.11s-.04.04-.06.06l.11-.08s-.04.03-.06.04l.13-.05s-.03.01-.04.01l.14-.02s-.02,0-.04,0l.14.02s-.02,0-.04,0l.13.05s-.02-.01-.03-.02l.11.08s-.03-.02-.04-.04l.08.11s-.03-.04-.04-.06l.05.13s-.01-.04-.02-.06l.02.14s0-.05,0-.08l-.02.14s.02-.07.03-.11l-.05.13s.04-.07.06-.1l-.08.11s.06-.07.1-.1l-.11.08s.07-.04.11-.06l-.13.05s.04-.01.06-.02l-.66-.66c-.1.34-.2.68-.3,1.03l1.05.14c0-.11,0-.22.02-.34l-.02.14c.02-.17.07-.34.14-.5l-.05.13c.06-.14.14-.28.23-.4.08-.1.09-.29.05-.41s-.13-.26-.25-.32c-.12-.07-.27-.1-.41-.05l-.13.05c-.08.05-.14.11-.19.19h0Z"/>
      </g>
      <g class="cls-6">
        <path class="cls-1" d="M149.1,151.13c-.03-.26-.05-.51-.04-.77,0-.07,0-.14.01-.21,0-.02.02-.22,0-.11.02-.12.04-.24.06-.35.06-.25.13-.5.23-.74-.04.09.02-.04.03-.06.03-.06.06-.12.09-.19.06-.12.13-.24.21-.36.15-.24.06-.6-.19-.73-.26-.14-.57-.06-.73.19-.62.98-.9,2.18-.75,3.32.04.28.22.55.53.53.26-.01.57-.24.53-.53h0Z"/>
      </g>
      <g class="cls-6">
        <path class="cls-1" d="M144.6,213.29c-.07-.8-.39-1.53-.96-2.1-.2-.2-.56-.21-.75,0-1.07,1.18-1.3,2.93-.59,4.36.19.37.72.32.92,0,.92-1.47,1.33-3.26,1.11-4.98-.04-.29-.22-.53-.53-.53-.26,0-.57.25-.53.53.2,1.55-.13,3.11-.96,4.44h.92c-.49-.98-.32-2.24.42-3.06h-.75c.36.36.61.83.65,1.34.03.29.23.53.53.53.27,0,.56-.24.53-.53h0Z"/>
      </g>
      <g class="cls-6">
        <path class="cls-1" d="M70.23,197.73l-.61-.92c-.3-.45-.95-.26-.99.27-.13,1.66-.11,3.33.07,4.98.03.26.18.49.46.52.25.03.53-.12.59-.38.29-1.39.32-2.79.1-4.2-.07-.46-.77-.51-.97-.13-.45.85-.42,1.93.15,2.73.17.23.46.35.73.19.23-.13.36-.49.19-.73-.35-.49-.43-1.11-.15-1.65l-.97-.13c.19,1.2.15,2.44-.1,3.63l1.05.14c-.18-1.66-.2-3.32-.07-4.98l-.99.27.61.92c.16.24.47.34.73.19.24-.14.35-.49.19-.73h0Z"/>
      </g>
      <g class="cls-6">
        <path class="cls-1" d="M74.9,233.96l-.73-.92c-.27-.33-.78-.11-.89.24-.57,1.8-.08,3.83,1.2,5.2.22.24.69.19.84-.11.9-1.79.58-4.03-.82-5.48-.3-.31-.76-.12-.89.24-.31.81-.34,1.73-.12,2.57.11.4.28.8.5,1.16.25.39.56.8,1.01.96.92.32,1.54-.58,1.78-1.33.29-.9.52-1.97.08-2.86s-1.48-1.34-2.35-.89c-.26.13-.33.49-.19.73.15.26.47.32.73.19.07-.04.18-.05.24-.03.13.02.23.07.33.14.27.2.39.48.42.82.03.42-.07.84-.17,1.24-.08.31-.17.67-.37.89-.07.07-.07.07-.12.1.04-.02-.07-.02.02,0-.15-.04-.26-.18-.35-.31-.2-.26-.36-.57-.46-.88-.24-.73-.22-1.5.05-2.22l-.89.24c1.05,1.09,1.33,2.83.65,4.18l.84-.11c-1.03-1.1-1.38-2.72-.93-4.16l-.89.24.73.92c.18.23.57.19.75,0,.22-.22.18-.53,0-.75h0Z"/>
      </g>
      <g class="cls-6">
        <path class="cls-1" d="M74.03,222.11v-.92h-1.07c.03.87.06,1.75.1,2.62.02.44.58.73.91.38.52-.56.8-1.28.83-2.03s-.22-1.49-.69-2.08c-.14-.18-.46-.19-.65-.08-1.05.6-1.05,2.23-.05,2.88.24.15.6.06.73-.19.14-.26.06-.57-.19-.73-.02-.01-.04-.03-.06-.04.05.04.06.05.03.02-.02-.03-.07-.07-.09-.09.09.08.02.02,0-.01-.02-.03-.04-.07-.05-.1.07.12,0-.01-.01-.05s-.02-.07-.03-.11c-.03-.12,0,.12,0,0,0-.04,0-.09,0-.13,0-.04.02-.18,0-.03,0-.04.01-.08.02-.11s.02-.07.03-.11c.03-.1-.06.09.01-.03.02-.04.04-.08.07-.11.05-.09-.07.07,0,0,.03-.02.05-.05.08-.08-.1.1.01,0,.05-.02l-.65-.08c-.06-.08.05.07.07.1.04.06.07.12.1.18.01.03.03.06.04.08.06.13-.02-.06,0,.02.02.07.05.13.07.2s.04.14.05.2c0,.03.01.06.02.09,0,.05.01.1,0,.02.01.14.02.28.01.42,0,.06,0,.12-.01.19,0-.11,0,0,0,.02,0,.03-.01.06-.02.09-.03.14-.07.27-.12.4-.02.04-.04.09,0,.02-.01.03-.03.06-.04.08-.03.06-.07.12-.1.18s-.08.12-.12.17c.03-.04.03-.03,0,0s-.06.07-.09.11l.91.38c-.03-.87-.06-1.75-.1-2.62-.01-.28-.24-.55-.53-.53s-.53.23-.53.53v.92c0,.28.25.55.53.53s.53-.23.53-.53h0Z"/>
      </g>
      <g class="cls-6">
        <path class="cls-1" d="M82.88,269.32c-.05-.91-.43-1.78-1.12-2.39-.27-.25-.81-.18-.89.24-.32,1.74.23,3.57,1.5,4.8.37.36,1.05,0,.89-.52-.41-1.31-.82-2.62-1.22-3.93-.2-.65-1.23-.37-1.03.28.41,1.31.82,2.62,1.22,3.93l.89-.52c-1-.97-1.47-2.43-1.22-3.77l-.89.24c.48.43.77,1.01.8,1.64.01.29.23.53.53.53.28,0,.55-.24.53-.53h0Z"/>
      </g>
      <g class="cls-6">
        <path class="cls-1" d="M68.83,177.06c.35-1.19.4-2.45.17-3.67-.05-.27-.4-.46-.66-.37-.29.09-.43.36-.37.66.2,1.01.13,2.09-.17,3.1-.08.27.1.59.37.66s.57-.09.66-.37h0Z"/>
      </g>
      <g class="cls-6">
        <path class="cls-1" d="M67.62,161.23s-.04.05-.07.07l.11-.08s-.06.04-.09.06l.13-.05s-.08.03-.12.03l.14-.02c-.05,0-.1,0-.15,0l.14.02c-.06,0-.12-.02-.17-.05l.13.05c-.05-.02-.1-.05-.14-.08l.11.08s-.07-.06-.1-.1l.08.11s-.04-.07-.06-.1l.05.13s-.02-.07-.03-.11l.02.14s0-.08,0-.11l-.02.14s.02-.07.03-.1l-.05.13s.03-.06.05-.09l-.08.11s.06-.06.09-.09l-.11.08s.09-.06.14-.08l-.13.05c.06-.02.11-.04.18-.05l-.14.02c.05,0,.11,0,.16,0l-.14-.02s.1.02.14.04l-.13-.05s.07.03.1.06l-.11-.08s.05.04.07.07l-.08-.11s.02.03.03.04c.07.12.19.21.32.25s.3.02.41-.05.21-.18.25-.32.02-.29-.05-.41c-.19-.3-.52-.48-.87-.48-.13,0-.27.02-.4.07-.16.07-.31.14-.43.27-.06.06-.11.13-.15.21s-.08.16-.09.24-.03.18-.02.27c0,.06.01.13.03.2s.05.12.07.18c.03.08.09.14.14.21.03.04.06.07.1.1.14.12.29.2.47.25s.38.05.57.01c.02,0,.05-.01.07-.02.06-.02.13-.05.19-.08s.11-.08.16-.12c.02-.02.04-.04.06-.06.05-.05.09-.11.11-.17.03-.06.05-.13.05-.21,0-.13-.06-.29-.16-.38s-.24-.16-.38-.16c-.13,0-.29.05-.38.16h0Z"/>
      </g>
    </g>
  </g>
</svg>