<?xml version="1.0" encoding="UTF-8"?>
<svg id="Layer_2" data-name="Layer 2" xmlns="http://www.w3.org/2000/svg" viewBox="0 0 335.88 581.14">
  <defs>
    <style>
      .cls-1 {
        fill: #794d23;
      }

      .cls-1, .cls-2, .cls-3, .cls-4, .cls-5 {
        stroke-width: 0px;
      }

      .cls-2 {
        fill: #a7bc6c;
      }

      .cls-3 {
        fill: #728340;
      }

      .cls-4 {
        fill: #95a360;
      }

      .cls-5 {
        fill: #be7028;
      }
    </style>
  </defs>
  <g id="P-Ficus">
    <g>
      <path class="cls-1" d="M166.61,450.17s4.24-267.13,5.65-298.23h7.07s2.83,289.75-1.41,293.99c-4.24,4.24-11.31,4.24-11.31,4.24Z"/>
      <path class="cls-5" d="M104.42,496.81l-12.72-65.02h180.92l-15.55,65.02h-11.31l-14.13,80.56s-45.23,8.48-103.18,0l-11.31-77.74-12.72-2.83Z"/>
      <path class="cls-4" d="M174.38,186.57S75.44,96.11,205.47,0c0,0,77.74,77.74-31.09,186.57Z"/>
      <path class="cls-2" d="M165.19,219.78c-7.63,25.44-145.58-24.03-142.75-107.42,4.24-14.13,163.95,36.75,142.75,107.42Z"/>
      <path class="cls-3" d="M169.43,289.04s-56.54-21.2-67.84-19.79c-11.31,1.41-60.78-31.09-52.3-67.84,15.55-16.96,130.03,24.03,120.14,87.63Z"/>
      <path class="cls-2" d="M165.19,369.6s-120.14-97.52-90.46-131.45c24.03,5.65,69.26,33.92,76.32,55.12,7.07,21.2,25.44,42.4,14.13,76.32Z"/>
      <path class="cls-3" d="M169.43,380.91s-52.3-86.22-166.78-46.64c-25.44,21.2,139.93,89.04,166.78,46.64Z"/>
      <path class="cls-4" d="M46.47,440.27s24.03,19.79,73.5,1.41c0,0,24.03-36.75,49.47-52.3,25.44-15.55-103.18-9.89-122.97,50.88Z"/>
      <path class="cls-3" d="M179.33,226.85s62.19-138.51,141.34-114.49c25.44,45.23-36.75,86.22-141.34,114.49Z"/>
      <path class="cls-2" d="M173.67,216.96s15.55-84.8,76.32-67.84c0,0,32.51,18.37-76.32,67.84Z"/>
      <path class="cls-4" d="M176.5,248.05s89.04-91.87,156.89-43.82c14.13,16.96-31.09,50.88-156.89,43.82Z"/>
      <path class="cls-3" d="M170.85,318.72s46.64-114.49,128.62-77.74c0,0,40.99,40.99-128.62,77.74Z"/>
      <path class="cls-2" d="M177.91,371.02s33.92-135.69,138.51-106c0,0,22.61,36.75-36.75,76.32,0,0-80.56,16.96-101.76,29.68Z"/>
      <path class="cls-3" d="M177.91,395.04s67.84-63.6,145.58,0c8.48,24.03-80.56,46.64-145.58,0Z"/>
    </g>
  </g>
</svg>