<?xml version="1.0" encoding="UTF-8"?>
<svg id="Layer_2" data-name="Layer 2" xmlns="http://www.w3.org/2000/svg" viewBox="0 0 457.79 845">
  <defs>
    <style>
      .cls-1 {
        stroke: #a58553;
      }

      .cls-1, .cls-2 {
        fill: none;
        stroke-linecap: round;
        stroke-miterlimit: 10;
        stroke-width: 11.56px;
      }

      .cls-3 {
        fill: #294c3d;
      }

      .cls-3, .cls-4, .cls-5, .cls-6, .cls-7, .cls-8 {
        stroke-width: 0px;
      }

      .cls-4 {
        fill: #496033;
      }

      .cls-2 {
        stroke: #4f4229;
      }

      .cls-5 {
        fill: #65753e;
      }

      .cls-6 {
        fill: #2a3f22;
      }

      .cls-7 {
        fill: #412109;
      }

      .cls-8 {
        fill: #be7028;
      }
    </style>
  </defs>
  <g id="P-Fiddle">
    <g>
      <path class="cls-8" d="M154.96,639.39c9.62-9.88,48.23-17.27,94.41-17.27,46.44,0,85.23,7.47,94.57,17.43,3.1,3.14,4.67,8.66,3.76,14.85l-26.83,181.6c-.74,4.99-5.3,8.99-10.16,8.99h-123.63c-4.86,0-9.4-4.01-10.12-8.99l-26-181.6c-.9-6.3.77-11.91,4-15.02Z"/>
      <ellipse class="cls-7" cx="249.9" cy="644.2" rx="91.99" ry="17.87"/>
      <g>
        <path class="cls-6" d="M420.31,235.06s19.76,29.69-22.97,60.41c-.27.69-.55,1.39-.86,2.11,0,0,29.77,37.64-13.94,43.7-37.68,5.22-59.05,19.87-60.77,26.49-1.72,6.6,1.17,26.97-20.42,22.78-19.7-3.83-30.21,9.98-31.31,11.43-1.1,1.44-7.8,5.05-13.83,2.79-5.85-2.19-20.32-13.8-12.87-25.66,7.67-12.22,7.83-21.04,8.49-39.05.65-17.86,15.86-17.32,24.64-23.85,9.11-6.79,7.55-18.44,9.41-28.95,17.67-36.04,35.99-13.24,49.56-24.34,9.83-5.75,53.41-59.14,84.89-27.85Z"/>
        <g>
          <g>
            <path class="cls-4" d="M382.68,264.28s-123.75,120.9-133.67,123.14"/>
            <path class="cls-3" d="M382.85,264.46c-7.1,8.83-15.11,17.18-23.13,25.15-7.96,8.16-17.16,14.98-25.57,22.63-11.24,10.2-21.03,21.9-31.99,32.39-10.77,10.71-21.98,20.99-33.92,30.4-5.27,4.1-10.57,8.26-16.42,11.53-.86.45-1.72.9-2.75,1.11l-.11-.48c3.2-1.85,5.77-4.78,8.53-7.24,13.55-13.07,27.28-26.4,41.47-38.74,11.19-10.22,23.39-19.36,34.09-30.12,8.02-8.06,15.19-16.97,23.63-24.63,2.02-1.92,6.27-5.84,8.36-7.7,5.66-5.05,11.39-10.03,17.47-14.64l.35.35h0Z"/>
          </g>
          <path class="cls-3" d="M352.51,252.84c.09,3.73-.19,7.41-.8,11.07-.84,3.61-1.55,7.25-1.35,10.99.38,7.23-.36,14.77.68,21.95,0,0-.18.08-.18.08-2.67-5.03-2.68-11.01-2.27-16.56.2-3.72,1.19-7.35,1.39-11.06.08-3.71-.01-7.45.86-11.09.38-1.82.81-3.63,1.48-5.4l.2.03h0Z"/>
          <path class="cls-3" d="M358.61,333.8c-4.86.2-9.5-1.18-13.95-2.92-3.03-.96-6.27-1.19-9.31-2.16-4.53-1.38-9.49-3.3-12.26-7.37,0,0,.14-.13.14-.13,1.28.94,2.67,1.61,4.08,2.25,4.13,1.81,8.87,3.54,13.01,5.33,4.36,2.09,9.28,1.74,13.81,3.25,1.52.44,3.03.92,4.52,1.56l-.03.19h0Z"/>
          <g>
            <path class="cls-4" d="M378.92,302.72s-15.41-3.07-29.97-5.59"/>
            <path class="cls-3" d="M378.9,302.82c-3.78-.48-11.35-1.54-15.11-2.11-5.09-.61-10.07-1.48-14.85-3.48,0,0,.03-.2.03-.2,7.46-.27,15.3,2.29,22.55,3.8,0,0,7.42,1.79,7.42,1.79l-.04.19h0Z"/>
          </g>
          <path class="cls-3" d="M325.09,282.25c.26,5.75.41,14.11.5,19.96.32,6.7.22,13.35-1.58,19.9,0,0-.3-.01-.3-.01-1.44-6.66-1.18-13.27-.5-19.95,0,0,.72-9.95.72-9.95.29-3.32.54-6.63.87-9.95h.3Z"/>
          <path class="cls-3" d="M293.01,351.33c4.19-2.73,9.46-3.13,14.33-2.98,4.98-.06,9.99,1.16,14.04,4.16,0,0-.09.28-.09.28-1.28.05-2.5-.05-3.7-.2-5.9-.48-11.5-2.74-17.5-2.34-2.34.06-4.75.38-6.91,1.32l-.17-.25h0Z"/>
          <path class="cls-3" d="M288.93,355.64c4.18-7.54,6.75-15.97,7.82-24.49.73-7.48.61-14.95.32-22.44-.04-1.09-.08-2.18-.06-3.3l.29-.06c5.24,12.48,2.85,26.64-1.91,38.88-1.68,4.07-3.65,8.02-6.22,11.59l-.24-.17h0Z"/>
          <path class="cls-3" d="M266.08,375.02c2.75-5.11,4.37-10.82,5.05-16.55.44-5.05.38-10.07.32-15.13.01-.74-.02-1.47.03-2.22l.21-.04c3.41,8.45,1.78,17.94-1.32,26.22-1.1,2.75-2.4,5.43-4.11,7.84l-.17-.12h0Z"/>
          <path class="cls-3" d="M265.27,376.58c5-4.06,11.56-5.71,17.93-5.91,6.48-.33,13.02,1.48,18.12,5.56,0,0-.12.27-.12.27-1.62-.2-3.13-.57-4.63-.93-4.49-.82-8.88-2.05-13.42-2.52-6.05-.37-12.39.62-17.69,3.77,0,0-.19-.23-.19-.23h0Z"/>
        </g>
      </g>
      <g>
        <g id="Trunk">
          <path class="cls-1" d="M245.26,238.92s5.26,115.64,3.15,150.34-5.26,115.64-3.15,120.9c2.1,5.26,2.1,121.95,1.05,127.21"/>
          <path class="cls-2" d="M242.1,241.02s5.26,115.64,3.15,150.34c-2.1,34.69-5.26,115.64-3.15,120.9,2.1,5.26,2.1,121.95,1.05,127.21"/>
        </g>
        <path class="cls-4" d="M92.81,286.15s30.72-18.12,59.07,26.22c.67.3,1.36.63,2.06.98,0,0,39.2-27.68,42.87,16.29,3.17,37.91,16.63,60.04,23.15,62.12,6.49,2.07,26.99.3,21.63,21.63-4.89,19.47,8.32,30.7,9.71,31.88,1.38,1.17,4.61,8.06,2.03,13.96-2.51,5.73-14.88,19.54-26.32,11.46-11.79-8.33-20.58-8.97-38.53-10.59-17.8-1.62-16.43-16.78-22.48-25.89-6.28-9.47-18-8.54-28.4-10.96-35.03-19.6-11.26-36.66-21.61-50.81-5.21-10.12-56.15-56.54-23.19-86.27Z"/>
        <g>
          <g>
            <path class="cls-4" d="M114.68,325.32s113.99,130.13,115.7,140.16"/>
            <path class="cls-3" d="M114.87,325.15c8.44,7.57,16.33,16.02,23.86,24.47,7.72,8.39,14.03,17.95,21.2,26.77,9.57,11.78,20.72,22.18,30.6,33.7,10.11,11.34,19.76,23.09,28.51,35.52,3.81,5.48,7.68,11,10.62,17.02.4.88.81,1.76.96,2.81l-.49.08c-1.67-3.29-4.46-6.02-6.76-8.91-12.31-14.24-24.88-28.68-36.43-43.51-9.6-11.73-18.06-24.41-28.22-35.67-7.61-8.44-16.12-16.09-23.31-24.93-1.81-2.13-5.49-6.58-7.24-8.77-4.73-5.93-9.39-11.92-13.67-18.24l.37-.33h0Z"/>
          </g>
          <path class="cls-3" d="M101.62,354.82c3.73.11,7.39.59,11.01,1.4,3.56,1.03,7.16,1.95,10.9,1.95,7.24.01,14.73,1.16,21.96.52,0,0,.06.19.06.19-5.16,2.39-11.14,2.08-16.66,1.37-3.7-.4-7.28-1.59-10.97-1.99-3.7-.28-7.44-.39-11.03-1.46-1.8-.48-3.58-1-5.31-1.77l.04-.19h0Z"/>
          <path class="cls-3" d="M182.8,353.12c-.06,4.86-1.69,9.42-3.67,13.77-1.13,2.98-1.53,6.2-2.67,9.18-1.63,4.45-3.81,9.3-8.03,11.85,0,0-.12-.15-.12-.15,1.01-1.23,1.75-2.58,2.47-3.95,2.03-4.02,4.01-8.66,6.03-12.7,2.33-4.24,2.24-9.18,3.99-13.62.53-1.49,1.08-2.98,1.81-4.42l.19.04h0Z"/>
          <g>
            <path class="cls-4" d="M152.87,331.15s-3.9,15.22-7.21,29.62"/>
            <path class="cls-3" d="M152.96,331.18c-.68,3.74-2.15,11.25-2.93,14.97-.89,5.05-2.03,9.98-4.28,14.64,0,0-.19-.04-.19-.04.14-7.46,3.11-15.16,5.02-22.31,0,0,2.19-7.31,2.19-7.31l.19.05h0Z"/>
          </g>
          <path class="cls-3" d="M129.5,383.8c5.76.06,14.11.36,19.95.59,6.71.05,13.34.51,19.78,2.66,0,0-.03.3-.03.3-6.72,1.08-13.32.46-19.95-.59,0,0-9.89-1.26-9.89-1.26-3.29-.47-6.59-.9-9.89-1.41l.02-.3h0Z"/>
          <path class="cls-3" d="M196.74,419.58c-2.5-4.33-2.62-9.61-2.2-14.47.21-4.98,1.7-9.91,4.92-13.79,0,0,.28.11.28.11-.02,1.29-.18,2.5-.4,3.68-.8,5.87-3.36,11.34-3.29,17.35-.06,2.34.12,4.76.95,6.97l-.26.15h0Z"/>
          <path class="cls-3" d="M200.82,423.89c-7.3-4.59-15.58-7.61-24.03-9.14-7.43-1.14-14.9-1.42-22.39-1.54-1.09-.02-2.18-.03-3.3-.12l-.05-.29c12.74-4.55,26.75-1.4,38.72,4.02,3.97,1.89,7.81,4.08,11.23,6.84l-.18.24h0Z"/>
          <path class="cls-3" d="M218.92,447.75c-4.95-3.02-10.56-4.95-16.25-5.94-5.01-.71-10.04-.92-15.09-1.14-.73-.05-1.47-.06-2.22-.15l-.03-.21c8.62-2.95,18.01-.8,26.11,2.74,2.69,1.25,5.29,2.69,7.61,4.53l-.13.17h0Z"/>
          <path class="cls-3" d="M220.43,448.65c-3.78-5.21-5.07-11.86-4.93-18.23.02-6.48,2.18-12.92,6.54-17.79,0,0,.26.14.26.14-.29,1.61-.74,3.1-1.18,4.58-1.87,7.32-4.53,14.68-3.17,22.35.41,3.02,1.26,6.04,2.72,8.77l-.24.17h0Z"/>
        </g>
      </g>
      <g>
        <path class="cls-4" d="M255.68,15.73s39.73-29.88,53.35,16.56c.23.8.46,1.62.69,2.48,0,0,45.22,22.84,17.65,50.45-27.57,27.6-36.39,58.06-33.09,66.63,3.31,8.57,20.95,28.56-2.21,41.88-23.16,13.33-23.16,39.98-23.16,42.83,0,2.86-4.41,14.28-13.23,18.09-8.82,3.81-37.5,5.71-38.6-18.09s-8.82-35.22-24.26-59.02c-15.44-23.8,5.51-36.17,11.03-51.4,5.51-15.23-9.93-28.56-16.54-42.83-6.62-14.28-7.72-59.97,7.72-74.24,15.44-14.28,18.75-11.42,60.66,6.66Z"/>
        <g>
          <g>
            <path class="cls-4" d="M255.24,36.54s-19.97,198.7-13.67,214.47"/>
            <path class="cls-3" d="M255.5,36.57c.12,13.38-.73,27.02-1.79,40.35-.87,13.44-3.61,26.68-5.07,40.04-1.95,17.84-1.54,35.83-2.64,53.73-.83,24.44-3.52,49.21-4.57,73.64-.02,2.22-.08,4.47.38,6.59l-.49.2c-.95-2.15-1.28-4.43-1.62-6.67-3.08-29.12-.29-58.49,2.71-87.5,1.62-13.36,3.71-26.69,4.53-40.12.85-13.42.51-26.95,2.12-40.33.33-3.29,1.11-10.07,1.54-13.37,1.17-8.9,2.47-17.78,4.36-26.61l.52.05h0Z"/>
          </g>
          <path class="cls-3" d="M289.48,53.97c-3.74,4.86-8.7,8.44-13.87,11.6-3.31,2.31-6.13,5.27-9.46,7.55-4.91,3.52-10.51,6.79-16.67,7.16,0,0-.03-.21-.03-.21.93-.44,1.86-.74,2.75-1.19,4.43-2.24,8.59-4.91,12.87-7.42,3.37-2.13,7.06-3.87,10.14-6.43,3.01-2.64,5.76-5.6,9.11-7.86,1.62-1.18,3.27-2.34,5.04-3.36l.14.16h0Z"/>
          <path class="cls-3" d="M210.63,93.76c3.25,2.09,6.25,4.46,9.06,7.09,2.63,2.8,5.37,5.5,8.71,7.46,2.85,1.74,6.78,4.34,9.64,6.14,3.18,2.05,6.29,4.14,9.85,5.57l-.04.2c-5.9-.37-11.15-3.79-15.73-7.26-3.11-2.29-5.7-5.21-8.79-7.52-3.15-2.21-6.43-4.28-9.06-7.14-1.35-1.37-2.66-2.79-3.79-4.39l.14-.15h0Z"/>
          <g>
            <path class="cls-4" d="M224.31,60.18s13.37,10.81,26.43,21.87"/>
            <path class="cls-3" d="M224.38,60.1c3.44,2.55,10.3,7.74,13.69,10.37,4.65,3.39,9.1,6.99,12.75,11.5,0,0-.14.16-.14.16-7.43-3.91-13.78-10.63-20.09-16.08,0,0-6.34-5.79-6.34-5.79l.13-.16h0Z"/>
          </g>
          <path class="cls-3" d="M284.74,95.62c-5.26,3.89-13.02,9.33-18.46,13.13-6.11,4.54-12.4,8.67-19.65,11.27,0,0-.17-.26-.17-.26,5.39-5.49,11.79-9.49,18.47-13.13,5.75-3.36,13.9-8.11,19.66-11.28,0,0,.17.27.17.27h0Z"/>
          <path class="cls-3" d="M241.94,170.6c-1.69-6.18-5.77-11.45-9.99-16.15-3.32-3.49-6.94-6.61-9.99-10.37-1.09-1.2-2.14-2.45-3.09-3.85l.2-.25c9.17,4.17,15.44,12.59,20.15,21.21,1.43,2.97,2.76,6.06,3.04,9.39,0,0-.31.03-.31.03h0Z"/>
          <path class="cls-3" d="M240.9,177.89c3.27-10.02,9.55-18.94,17.27-26.09,6.7-6.42,14.99-11.37,24.15-13.24,5.08-1.1,5.31-.94.47,1.36-1.01.49-2.53,1.13-3.48,1.69-4.54,2.34-8.95,4.9-13.26,7.64-6.54,4.04-12.21,9.36-16.92,15.47-3.18,4.05-5.92,8.49-7.94,13.26l-.3-.1h0Z"/>
          <path class="cls-3" d="M239.89,218.91c4.25-12.68,16.03-25.12,29.38-27.89,3.57-.78,3.76-.66.34.97-8.93,4.34-17.84,9.47-23.87,17.59-2.25,2.87-4.2,6.02-5.63,9.41l-.21-.07h0Z"/>
          <path class="cls-3" d="M238.79,221.05c-1.04-9.03-5.1-17.48-10.22-24.85-3.94-5.27-8.9-10.31-13.37-15.21-1.58-1.63-3.22-3.22-4.73-5.02l.19-.25c12.73,6.25,21.36,18.59,25.99,31.7,1.43,4.42,2.48,8.99,2.46,13.63h-.32Z"/>
        </g>
      </g>
      <path class="cls-4" d="M416.67,184.47c11.38-36.88,13.1-45.06-20.12-44.15-.6.02-1.22.05-1.86.09,0,0-23.19-35.11-38.39-1.59-15.2,33.52-35.34,50.55-41.9,49.99-6.57-.56-23.44-11.03-29.24,14.25-5.8,25.28-24.63,33.05-26.64,33.88-2.02.83-9.4,8.24-10.71,17.5-.46,3.25-.37,8.68.67,14.12,0,0,156.82-47.21,168.2-84.09Z"/>
      <path class="cls-5" d="M299.43,171.8c14.53-5.12,8.6-21.59,11.37-33.37,2.78-11.78,30.13-37.58,53.21-36.31,22.52,1.24,65.05-29.7,49.76,37.09-15.3,66.8-164.14,124.55-164.14,124.55-8.54-6.53-14.63-15.31-6.58-23.35,13.76-13.75,13.75-24.61,14.32-46.84.57-22.24,27.54-16.65,42.07-21.77Z"/>
      <path class="cls-4" d="M428.97,427.46c21.23-32.23,25.17-39.6-6.98-48.01-.58-.15-1.18-.3-1.81-.44,0,0-12.45-40.2-36.41-12.26-23.96,27.94-48.06,38.66-54.21,36.29-6.15-2.37-19.42-17.15-32.06,5.51-12.63,22.65-32.88,24.85-35.05,25.09-2.17.24-11.33,5.28-15.17,13.81-1.35,2.99-2.78,8.23-3.3,13.74,0,0,163.76-1.5,185-33.73Z"/>
      <path class="cls-5" d="M328.85,385.08c15.34-1.42,13.61-18.84,19.17-29.58,5.57-10.74,38.39-29.09,60.46-22.22,21.53,6.7,70.34-12.93,39.2,48.12-31.14,61.04-189.58,80.72-189.58,80.72-6.69-8.42-10.45-18.42-.69-24.25,16.7-9.98,19.34-20.51,25.32-41.93,5.98-21.43,30.77-9.43,46.11-10.85Z"/>
      <path class="cls-6" d="M83.53,195.89c-9.36-37.45-10.64-45.7,22.49-42.99.6.05,1.22.11,1.85.19,0,0,25.06-33.81,38.42.49,13.36,34.29,32.54,52.39,39.13,52.19,6.59-.2,24-9.75,28.42,15.81,4.42,25.56,22.8,34.34,24.77,35.28,1.97.94,8.94,8.74,9.75,18.05.28,3.27-.1,8.69-1.43,14.06,0,0-154.03-55.64-163.39-93.09Z"/>
      <path class="cls-5" d="M99.03,178.21c-4.38-38.35-4.57-46.7,27.92-39.68.59.13,1.19.27,1.81.43,0,0,29.27-30.23,38.02,5.52,8.75,35.75,25.4,56.2,31.96,56.86,6.56.66,25.07-6.52,26.11,19.4,1.04,25.92,18.11,37.03,19.93,38.22,1.83,1.19,7.72,9.83,7.3,19.17-.15,3.28-1.24,8.6-3.26,13.75,0,0-145.42-75.33-149.8-113.68Z"/>
      <g>
        <path class="cls-4" d="M35.27,421.58c-38.92-36.47-47.64-45.45-16.01-50.25.6-.09,1.23-.17,1.89-.24,0,0-8.45-54.18,38.56-9.67,40.84,38.67,73.3,55.02,80.44,53.64,7.3-1.41,22.34-15.93,41.39,12.24,16.97,25.08,42.03,31.36,44.73,32.04,2.71.68,13.82,7.22,17.78,15.48,1.35,2.82,2.54,7.45,2.59,11.98,0,0-177.55-33.53-211.37-65.23Z"/>
        <path class="cls-5" d="M34.68,401.39c-38.14-43.16-46.7-53.87-8.65-54.39.71,0,1.46,0,2.24.02,0,0,.84-58.41,46.18-4.57,38.05,45.18,70.32,65.69,78.33,65.16,8.16-.54,27.2-13.19,41.7,16.98,12.71,26.45,37.39,35.16,40.03,36.09,2.64.93,12.66,8.34,15,16.66.8,2.83,1.06,7.38.19,11.72,0,0-182.8-51.23-215.02-87.68Z"/>
      </g>
      <g>
        <path class="cls-4" d="M258.6,201.42s36.74-13.65,49.33,7.56c.22.36.43.74.64,1.13,0,0,41.81,10.44,16.32,23.04-25.5,12.61-33.65,26.52-30.59,30.44,3.06,3.91,19.38,13.04-2.04,19.13-21.42,6.09-21.42,18.26-21.42,19.57,0,1.3-4.08,6.52-12.24,8.26-8.16,1.74-34.67,2.61-35.69-8.26-1.02-10.87-8.16-16.09-22.44-26.96-14.28-10.87,5.1-16.52,10.2-23.48,5.1-6.96-9.18-13.04-15.3-19.57-6.12-6.52-7.14-27.39,7.14-33.92s17.34-5.22,56.09,3.04Z"/>
        <g>
          <g>
            <path class="cls-4" d="M258.19,210.93s-18.47,90.77-12.64,97.97"/>
            <path class="cls-3" d="M258.36,210.96c-.48,8.31-1.66,16.49-3.45,24.6-.96,4.03-2.23,8-3.04,12.05-1.68,8.1-1.82,16.46-2.9,24.64-.96,11.25-3.33,22.37-3.78,33.64.03,1,.07,2.03.49,2.9l-.27.21c-.77-.85-1.07-1.94-1.34-2.97-.71-3.1-.82-6.3-.84-9.45.03-12.51,2.23-24.86,5.1-36.99.98-4.04,1.84-8.09,2.44-12.18.61-4.09.79-8.27,1.33-12.38.53-4.11,1.43-8.16,2.39-12.19.99-4.03,2.06-8.03,3.52-11.96l.33.07h0Z"/>
          </g>
          <path class="cls-3" d="M289.81,218.92c-4.14,2.63-8.82,4.26-13.51,5.58-4.59,1.67-8.98,3.89-13.74,5.1-3.15.81-6.42,1.46-9.72,1.32v-.14c6.2-1.5,12.49-3.62,18.68-5.2,3.18-.76,6.13-2.12,9.04-3.57,2.98-1.28,6.02-2.38,9.19-3.23l.05.13h0Z"/>
          <path class="cls-3" d="M216.9,237.04c4.47,1.24,8.57,3.23,12.68,5.29,4.23,1.72,8.75,2.72,13.07,4.14,2.89.92,5.76,1.87,8.74,2.58v.13c-3.12.12-6.19-.54-9.14-1.36-4.46-1.22-8.54-3.41-12.82-5.09-2.91-.96-5.86-1.82-8.58-3.28-1.37-.68-2.71-1.43-4-2.29l.06-.12h0Z"/>
          <g>
            <path class="cls-4" d="M229.59,221.73s12.36,4.94,24.44,9.99"/>
            <path class="cls-3" d="M229.62,221.66c3.1,1.11,9.32,3.39,12.4,4.55,4.17,1.46,8.26,3.09,12.04,5.44,0,0-.05.13-.05.13-6.28-1.36-12.54-4.71-18.43-7.24,0,0-6.01-2.75-6.01-2.75l.05-.13h0Z"/>
          </g>
          <path class="cls-3" d="M285.42,237.96c-4.33,1.61-13.05,4.74-17.41,6.26-5.8,2.19-11.64,4.1-17.84,4.89,0,0-.06-.19-.06-.19,5.52-2.92,11.41-4.72,17.41-6.26,4.43-1.26,13.39-3.72,17.84-4.89,0,0,.06.2.06.2h0Z"/>
          <path class="cls-3" d="M245.94,272.18c-.88-1.91-2.74-3.25-4.41-4.47-4.36-3.18-9.6-4.73-14.16-7.56-.94-.55-1.86-1.13-2.75-1.82l.08-.19c6.64.9,12.35,4.66,17.47,8.76,1.59,1.51,3.35,3.05,3.98,5.24,0,0-.2.03-.2.03h0Z"/>
          <path class="cls-3" d="M244.98,275.47c4.69-6.34,11.93-10.27,19.06-13.29,7.18-3.17,14.96-4.91,22.81-5,0,0,.03.2.03.2-1.87.6-3.74,1.12-5.62,1.57-5.54,1.64-11.18,2.86-16.63,4.76-7.12,2.61-14.44,6.03-19.48,11.87,0,0-.17-.11-.17-.11h0Z"/>
          <path class="cls-3" d="M244.03,294.21c6.11-8,19.83-12.93,29.7-12.98,0,0,.02.14.02.14-1.33.42-2.65.8-3.99,1.12-3.93,1.16-7.93,2.03-11.8,3.37-5.19,1.74-10.22,4.62-13.94,8.34h0Z"/>
          <path class="cls-3" d="M243.02,295.21c-.5-2.82-2.33-5.2-4.29-7.19-5.01-5.2-11.9-7.74-18.09-11.21-5.06-2.65-5.08-2.88.55-1.33,7.02,2.14,13.4,6.4,18.3,11.85.37.41,1.04,1.3,1.34,1.77,1.23,1.82,2.3,3.87,2.4,6.11,0,0-.21,0-.21,0h0Z"/>
        </g>
      </g>
      <g>
        <path class="cls-6" d="M259.28,451.04s36.74-13.65,49.33,7.56c.22.36.43.74.64,1.13,0,0,41.81,10.44,16.32,23.04-25.5,12.61-33.65,26.52-30.59,30.44s19.38,13.04-2.04,19.13c-21.42,6.09-21.42,18.26-21.42,19.57,0,1.3-4.08,6.52-12.24,8.26-8.16,1.74-34.67,2.61-35.69-8.26-1.02-10.87-8.16-16.09-22.44-26.96-14.28-10.87,5.1-16.52,10.2-23.48,5.1-6.96-9.18-13.04-15.3-19.57-6.12-6.52-7.14-27.39,7.14-33.92s17.34-5.22,56.09,3.04Z"/>
        <g>
          <g>
            <path class="cls-4" d="M258.88,460.54s-18.47,90.77-12.64,97.97"/>
            <path class="cls-3" d="M259.04,460.58c-.48,8.31-1.66,16.49-3.45,24.6-.96,4.03-2.23,8-3.04,12.05-1.68,8.1-1.82,16.46-2.9,24.64-.96,11.25-3.33,22.37-3.78,33.64.03,1,.07,2.03.49,2.9l-.27.21c-.77-.85-1.07-1.94-1.34-2.97-.71-3.1-.82-6.3-.84-9.45.03-12.51,2.23-24.86,5.1-36.99.98-4.04,1.84-8.09,2.44-12.18.61-4.09.79-8.27,1.33-12.38.53-4.11,1.43-8.16,2.39-12.19.99-4.03,2.06-8.03,3.52-11.96l.33.07h0Z"/>
          </g>
          <path class="cls-3" d="M290.5,468.53c-4.14,2.63-8.82,4.26-13.51,5.58-4.59,1.67-8.98,3.89-13.74,5.1-3.15.81-6.42,1.46-9.72,1.32v-.14c6.2-1.5,12.49-3.62,18.68-5.2,3.18-.76,6.13-2.12,9.04-3.57,2.98-1.28,6.02-2.38,9.19-3.23l.05.13h0Z"/>
          <path class="cls-3" d="M217.59,486.66c4.47,1.24,8.57,3.23,12.68,5.29,4.23,1.72,8.75,2.72,13.07,4.14,2.89.92,5.76,1.87,8.74,2.58v.13c-3.12.12-6.19-.54-9.14-1.36-4.46-1.22-8.54-3.41-12.82-5.09-2.91-.96-5.86-1.82-8.58-3.28-1.37-.68-2.71-1.43-4-2.29l.06-.12h0Z"/>
          <g>
            <path class="cls-4" d="M230.28,471.34s12.36,4.94,24.44,9.99"/>
            <path class="cls-3" d="M230.3,471.28c3.1,1.11,9.32,3.39,12.4,4.55,4.17,1.46,8.26,3.09,12.04,5.44,0,0-.05.13-.05.13-6.28-1.36-12.54-4.71-18.43-7.24l-6.01-2.75.05-.13h0Z"/>
          </g>
          <path class="cls-3" d="M286.11,487.57c-4.33,1.61-13.05,4.74-17.41,6.26-5.8,2.19-11.64,4.1-17.84,4.89,0,0-.06-.19-.06-.19,5.52-2.92,11.41-4.72,17.41-6.26,4.43-1.26,13.39-3.72,17.84-4.89,0,0,.06.2.06.2h0Z"/>
          <path class="cls-3" d="M246.62,521.79c-.88-1.91-2.74-3.25-4.41-4.47-4.36-3.18-9.6-4.73-14.16-7.56-.94-.55-1.86-1.13-2.75-1.82l.08-.19c6.64.9,12.35,4.66,17.47,8.76,1.59,1.51,3.35,3.05,3.98,5.24,0,0-.2.03-.2.03h0Z"/>
          <path class="cls-3" d="M245.67,525.08c4.69-6.34,11.93-10.27,19.06-13.29,7.18-3.17,14.96-4.91,22.81-5,0,0,.03.2.03.2-1.87.6-3.74,1.12-5.62,1.57-5.54,1.64-11.18,2.86-16.63,4.76-7.12,2.61-14.44,6.03-19.48,11.87,0,0-.17-.11-.17-.11h0Z"/>
          <path class="cls-3" d="M244.72,543.83c6.11-8,19.83-12.93,29.7-12.98,0,0,.02.14.02.14-1.33.42-2.65.8-3.99,1.12-3.93,1.16-7.93,2.03-11.8,3.37-5.19,1.74-10.22,4.62-13.94,8.34h0Z"/>
          <path class="cls-3" d="M243.7,544.83c-.5-2.82-2.33-5.2-4.29-7.19-5.01-5.2-11.9-7.74-18.09-11.21-5.06-2.65-5.08-2.88.55-1.33,7.02,2.14,13.4,6.4,18.3,11.85.37.41,1.04,1.3,1.34,1.77,1.23,1.82,2.3,3.87,2.4,6.11,0,0-.21,0-.21,0h0Z"/>
        </g>
      </g>
    </g>
  </g>
</svg>