<?xml version="1.0" encoding="UTF-8"?>
<svg id="Layer_2" data-name="Layer 2" xmlns="http://www.w3.org/2000/svg" viewBox="0 0 358.11 661">
  <defs>
    <style>
      .cls-1 {
        fill: #294c3d;
      }

      .cls-1, .cls-2, .cls-3, .cls-4, .cls-5, .cls-6, .cls-7 {
        stroke-width: 0px;
      }

      .cls-2 {
        fill: #496033;
      }

      .cls-3 {
        fill: #65753e;
      }

      .cls-4 {
        fill: #2a3f22;
      }

      .cls-8 {
        stroke: #a58553;
      }

      .cls-8, .cls-9 {
        fill: none;
        stroke-linecap: round;
        stroke-miterlimit: 10;
        stroke-width: 9.05px;
      }

      .cls-5 {
        fill: #412109;
      }

      .cls-6 {
        fill: #be7028;
      }

      .cls-9 {
        stroke: #4f4229;
      }

      .cls-7 {
        fill: #7f551c;
      }
    </style>
  </defs>
  <g id="Fiddle">
    <g>
      <path class="cls-6" d="M111.83,500.16c7.53-7.73,37.73-13.51,73.85-13.51,36.33,0,66.67,5.84,73.98,13.64,2.43,2.45,3.66,6.78,2.94,11.62l-20.99,142.06c-.58,3.9-4.15,7.04-7.95,7.04h-96.71c-3.8,0-7.36-3.13-7.92-7.04l-20.34-142.06c-.71-4.93.6-9.32,3.13-11.75Z"/>
      <path class="cls-7" d="M133.52,645.22c18.71,1.06,37.81-3.56,55.12-10.43,18.85-7.49,36.21-18.13,47.53-35.42,9.79-14.96,13.68-32.87,16.54-50.24,2.69-16.35,4.74-32.81,6.32-49.31.22.2.44.41.64.61,2.43,2.45,3.66,6.77,2.94,11.61l-20.99,141.94c-.58,3.9-4.15,7.03-7.95,7.03h-96.71c-3.8,0-7.36-3.13-7.92-7.03l-1.32-9.24c1.92.21,3.85.38,5.8.49Z"/>
      <ellipse class="cls-5" cx="186.09" cy="503.92" rx="71.96" ry="13.98"/>
      <g>
        <path class="cls-4" d="M328.79,183.88s15.46,23.23-17.97,47.26c-.21.54-.43,1.09-.67,1.65,0,0,23.28,29.44-10.9,34.18-29.47,4.09-46.19,15.54-47.54,20.72-1.34,5.16.92,21.1-15.97,17.82-15.41-2.99-23.63,7.81-24.49,8.94-.86,1.13-6.1,3.95-10.82,2.18-4.58-1.71-15.89-10.79-10.07-20.07,6-9.56,6.13-16.46,6.64-30.54.51-13.97,12.41-13.55,19.27-18.66,7.13-5.31,5.91-14.42,7.36-22.65,13.82-28.19,28.16-10.36,38.77-19.04,7.69-4.5,41.78-46.26,66.4-21.78Z"/>
        <g>
          <g>
            <path class="cls-2" d="M299.35,206.73s-96.8,94.57-104.56,96.33"/>
            <path class="cls-1" d="M299.48,206.87c-7.54,9.21-15.78,17.78-24.57,25.78-9.1,7.64-18.14,15.32-26.12,24.18-12.2,12.99-24.99,25.46-38.97,36.54-3.51,2.77-7.09,5.49-10.89,7.88-1.32.78-2.57,1.64-4.11,2.01,0,0-.09-.38-.09-.38,2.5-1.45,4.51-3.74,6.67-5.66,10.6-10.22,21.34-20.65,32.44-30.31,8.76-8,18.3-15.15,26.66-23.56,4.21-4.18,8.05-8.73,12.15-13.02,4.1-4.29,8.47-8.3,12.88-12.27,4.43-3.95,8.91-7.84,13.67-11.45l.27.28h0Z"/>
          </g>
          <path class="cls-1" d="M275.75,197.78c.2,4.39-.61,8.66-1.48,12.93-.41,2.86-.07,5.79-.13,8.66.12,4.3-.22,8.56.46,12.84,0,0-.14.06-.14.06-.17-.32-.33-.66-.49-.99-2.74-6.58-.91-13.82-.2-20.62.06-2.9,0-5.83.67-8.68.3-1.42.63-2.84,1.16-4.22l.15.03h0Z"/>
          <path class="cls-1" d="M280.52,261.12c-3.8.15-7.43-.91-10.91-2.29-4.82-1.23-9.99-1.8-14.16-4.78-1.06-.71-2.01-1.62-2.72-2.68,0,0,.11-.1.11-.1,3.08,2.05,6.58,3.07,9.95,4.52,2.3.85,4.52,2.05,6.94,2.56,2.43.43,4.92.59,7.28,1.39,1.19.34,2.37.72,3.53,1.22l-.03.15h0Z"/>
          <g>
            <path class="cls-2" d="M296.41,236.8s-12.05-2.4-23.44-4.37"/>
            <path class="cls-1" d="M296.4,236.88c-3.95-.49-7.89-1.07-11.82-1.65-3.98-.48-7.88-1.16-11.62-2.72,0,0,.03-.15.03-.15,4.04-.11,7.94.66,11.82,1.65,3.88.87,7.76,1.76,11.62,2.72l-.03.15h0Z"/>
          </g>
          <path class="cls-1" d="M254.3,220.79c.2,4.5.32,11.04.39,15.61.25,5.24.17,10.44-1.24,15.57,0,0-.23,0-.23,0-1.13-5.21-.92-10.38-.39-15.61,0,0,.56-7.78.56-7.78.23-2.59.42-5.19.68-7.78h.23Z"/>
          <path class="cls-1" d="M229.2,274.83c3.27-2.13,7.4-2.45,11.21-2.33,3.9-.05,7.81.91,10.98,3.26,0,0-.07.22-.07.22-1.01.04-1.96-.04-2.89-.15-4.62-.37-9-2.14-13.69-1.83-1.83.05-3.72.3-5.41,1.04l-.13-.19h0Z"/>
          <path class="cls-1" d="M226.02,278.2c3.27-5.9,5.28-12.5,6.11-19.16.54-5.01.41-10,.36-15.02-.02-1.69-.2-3.37-.15-5.11l.23-.05c4.1,9.76,2.22,20.84-1.49,30.42-1.31,3.18-2.85,6.27-4.86,9.06l-.19-.13h0Z"/>
          <path class="cls-1" d="M208.14,293.36c3.95-7.03,4.4-15.2,4.23-23.07,0-1.14-.07-2.27-.01-3.45l.16-.03c2.67,6.61,1.39,14.03-1.03,20.51-.86,2.15-1.89,4.24-3.22,6.14l-.14-.09h0Z"/>
          <path class="cls-1" d="M207.51,294.58c7.58-5.93,20.6-6.46,28.2-.27,0,0-.1.21-.1.21-1.27-.16-2.45-.45-3.62-.73-5.8-1.15-11.66-2.92-17.59-1.52-2.34.45-4.67,1.24-6.74,2.5l-.15-.18h0Z"/>
        </g>
      </g>
      <g>
        <g id="Trunk">
          <path class="cls-8" d="M191.85,186.89s4.11,90.46,2.47,117.6-4.11,90.46-2.47,94.57c1.64,4.11,1.64,95.4.82,99.51"/>
          <path class="cls-9" d="M189.38,188.54s4.11,90.46,2.47,117.6-4.11,90.46-2.47,94.57c1.64,4.11,1.64,95.4.82,99.51"/>
        </g>
        <path class="cls-2" d="M72.6,223.84s24.03-14.17,46.21,20.51c.52.24,1.06.49,1.61.76,0,0,30.66-21.65,33.54,12.74,2.48,29.65,13.01,46.97,18.11,48.6,5.08,1.62,21.12.23,16.92,16.92-3.83,15.23,6.51,24.02,7.6,24.94,1.08.92,3.61,6.31,1.59,10.92-1.96,4.48-11.64,15.28-20.59,8.96-9.22-6.51-16.1-7.01-30.14-8.29-13.93-1.26-12.85-13.13-17.58-20.26-4.92-7.4-14.08-6.68-22.22-8.58-27.4-15.34-8.81-28.68-16.9-39.75-4.08-7.92-43.92-44.23-18.14-67.49Z"/>
        <g>
          <g>
            <path class="cls-2" d="M89.71,254.48s89.17,101.8,90.51,109.64"/>
            <path class="cls-1" d="M89.86,254.35c8.79,8.03,16.9,16.72,24.4,25.94,7.13,9.51,14.32,18.95,22.72,27.4,12.31,12.89,24.06,26.33,34.37,40.9,2.57,3.66,5.1,7.38,7.28,11.3.7,1.36,1.5,2.65,1.78,4.21,0,0-.38.07-.38.07-1.31-2.57-3.49-4.71-5.29-6.97-9.63-11.14-19.46-22.43-28.5-34.04-7.51-9.18-14.13-19.09-22.08-27.91-3.95-4.43-8.28-8.52-12.34-12.84-4.06-4.33-7.82-8.91-11.55-13.52-3.7-4.64-7.35-9.32-10.7-14.27l.29-.26h0Z"/>
          </g>
          <path class="cls-1" d="M79.49,277.55c4.4.04,8.62,1.08,12.83,2.18,2.84.56,5.78.39,8.64.6,4.3.11,8.54.68,12.85.24,0,0,.05.15.05.15-.33.15-.67.29-1.02.43-6.72,2.38-13.85.16-20.6-.92-2.89-.22-5.82-.31-8.63-1.14-1.4-.38-2.8-.78-4.15-1.38l.03-.15h0Z"/>
          <path class="cls-1" d="M142.99,276.23c-.05,3.8-1.31,7.37-2.88,10.77-1.49,4.75-2.34,9.88-5.54,13.87-.76,1.02-1.73,1.92-2.83,2.57,0,0-.09-.12-.09-.12,2.22-2.97,3.42-6.4,5.06-9.69.97-2.25,2.3-4.41,2.94-6.79.56-2.41.86-4.88,1.78-7.2.41-1.17.85-2.33,1.41-3.46l.15.03h0Z"/>
          <g>
            <path class="cls-2" d="M119.58,259.04s-3.05,11.9-5.64,23.17"/>
            <path class="cls-1" d="M119.66,259.06c-.71,3.92-1.49,7.82-2.29,11.71-.69,3.95-1.59,7.8-3.35,11.45,0,0-.15-.03-.15-.03.11-4.04,1.09-7.89,2.29-11.71,1.08-3.83,2.18-7.65,3.35-11.46l.15.04h0Z"/>
          </g>
          <path class="cls-1" d="M101.3,300.22c4.5.04,11.04.28,15.61.46,5.25.04,10.43.4,15.48,2.08,0,0-.02.23-.02.23-5.26.84-10.42.36-15.61-.46,0,0-7.74-.98-7.74-.98-2.58-.37-5.16-.7-7.73-1.1l.02-.23h0Z"/>
          <path class="cls-1" d="M153.9,328.22c-1.95-3.39-2.05-7.52-1.72-11.32.16-3.89,1.33-7.75,3.85-10.79,0,0,.22.09.22.09-.01,1.01-.14,1.95-.31,2.88-.62,4.59-2.63,8.87-2.57,13.57-.05,1.83.09,3.73.74,5.46l-.2.12h0Z"/>
          <path class="cls-1" d="M157.09,331.59c-5.71-3.59-12.19-5.95-18.8-7.15-4.98-.81-9.96-.96-14.98-1.17-1.69-.08-3.37.02-5.11-.13l-.04-.23c9.97-3.57,20.93-1.09,30.29,3.14,3.11,1.48,6.11,3.19,8.79,5.35l-.14.18h0Z"/>
          <path class="cls-1" d="M171.25,350.25c-6.8-4.33-14.94-5.22-22.81-5.48-1.13-.06-2.27-.06-3.44-.18l-.02-.16c6.74-2.3,14.09-.63,20.42,2.15,2.1.98,4.13,2.12,5.95,3.54l-.1.13h0Z"/>
          <path class="cls-1" d="M172.43,350.96c-5.51-7.89-5.33-20.92,1.26-28.17,0,0,.21.11.21.11-.23,1.26-.58,2.42-.92,3.58-1.46,5.73-3.54,11.48-2.48,17.48.32,2.36.99,4.73,2.13,6.86l-.19.14h0Z"/>
        </g>
      </g>
      <g>
        <path class="cls-2" d="M200.01,12.3s31.08-23.37,41.73,12.95c.18.63.36,1.27.54,1.94,0,0,35.37,17.87,13.8,39.46-21.57,21.59-28.47,45.42-25.88,52.12,2.59,6.7,16.39,22.34-1.73,32.76-18.12,10.42-18.12,31.27-18.12,33.51,0,2.23-3.45,11.17-10.35,14.15-6.9,2.98-29.33,4.47-30.19-14.15-.86-18.61-6.9-27.55-18.98-46.16-12.08-18.61,4.31-28.29,8.63-40.21,4.31-11.91-7.76-22.34-12.94-33.51-5.18-11.17-6.04-46.91,6.04-58.08,12.08-11.17,14.67-8.94,47.45,5.21Z"/>
        <g>
          <g>
            <path class="cls-2" d="M199.66,28.58s-15.63,155.43-10.69,167.77"/>
            <path class="cls-1" d="M199.87,28.6c.1,10.47-.57,21.14-1.4,31.56-.69,10.51-2.82,20.87-3.96,31.32-1.53,13.95-1.2,28.03-2.06,42.03-.63,18.27-2.79,39.34-3.59,57.61-.01,1.73-.04,3.49.31,5.15l-.38.15c-.75-1.68-.99-3.47-1.26-5.22-2.45-22.78-.22-45.75,2.11-68.44,1.26-10.45,2.9-20.87,3.54-31.39.66-10.5.41-21.08,1.66-31.55.26-2.58.87-7.88,1.21-10.46.92-6.96,1.93-13.91,3.41-20.81l.41.04h0Z"/>
          </g>
          <path class="cls-1" d="M226.45,42.21c-2.93,3.8-6.8,6.6-10.85,9.07-6.14,4.75-12.26,10.94-20.44,11.5,0,0-.03-.16-.03-.16,3.67-1.42,6.85-3.58,10.2-5.54,3.31-2.06,6.88-3.8,9.94-6.23,2.35-2.07,4.51-4.37,7.12-6.15,1.27-.93,2.55-1.83,3.94-2.63l.11.12h0Z"/>
          <path class="cls-1" d="M164.77,73.35c3.88,2.38,7.09,5.53,10.28,8.73,2.85,2.42,6.21,4.18,9.3,6.25,3.15,1.97,6.11,4.14,9.58,5.56,0,0-.03.16-.03.16-.38-.03-.76-.08-1.14-.13-7.3-1.22-12.58-6.93-18.03-11.44-2.47-1.72-5.03-3.35-7.09-5.58-1.05-1.08-2.08-2.18-2.97-3.43l.11-.12h0Z"/>
          <g>
            <path class="cls-2" d="M175.47,47.08s10.46,8.46,20.68,17.11"/>
            <path class="cls-1" d="M175.52,47.01c2.69,1.99,8.06,6.06,10.71,8.11,3.64,2.65,7.12,5.47,9.97,9,0,0-.11.13-.11.13-5.81-3.06-10.78-8.32-15.71-12.58,0,0-4.96-4.53-4.96-4.53l.1-.13h0Z"/>
          </g>
          <path class="cls-1" d="M222.74,74.8c-4.12,3.04-10.19,7.3-14.44,10.27-4.78,3.55-9.7,6.78-15.37,8.82,0,0-.14-.21-.14-.21,4.21-4.3,9.22-7.42,14.44-10.27,0,0,7.66-4.46,7.66-4.46,2.57-1.45,5.13-2.93,7.72-4.36l.13.21h0Z"/>
          <path class="cls-1" d="M189.26,133.45c-1.32-4.84-4.52-8.96-7.82-12.64-2.59-2.73-5.43-5.17-7.81-8.12-.85-.94-1.67-1.92-2.42-3.01l.16-.19c7.17,3.26,12.07,9.85,15.76,16.59,1.12,2.32,2.16,4.74,2.37,7.34,0,0-.25.02-.25.02h0Z"/>
          <path class="cls-1" d="M188.44,139.16c2.56-7.83,7.47-14.82,13.51-20.41,5.97-5.8,13.64-9.82,21.93-10.93,0,0,.07.24.07.24-1.3.72-2.77,1.42-4.11,2.04-9.33,4.72-18.63,10.19-24.96,18.76-2.48,3.17-4.63,6.64-6.21,10.37l-.23-.08h0Z"/>
          <path class="cls-1" d="M187.66,171.24c3.77-10.84,13.47-20.64,25.14-22.22,0,0,.05.17.05.17-.64.36-1.3.66-1.94.99-6.98,3.39-13.95,7.41-18.68,13.76-1.76,2.25-3.31,4.7-4.4,7.36l-.17-.05h0Z"/>
          <path class="cls-1" d="M186.79,172.91c-.81-7.06-3.99-13.67-8-19.44-3.18-4.23-6.9-7.99-10.46-11.9-1.24-1.27-2.52-2.52-3.7-3.93l.15-.2c9.96,4.89,16.71,14.54,20.33,24.8,1.12,3.46,1.94,7.03,1.92,10.67h-.25Z"/>
        </g>
      </g>
      <path class="cls-2" d="M325.94,144.3c8.9-28.85,10.25-35.24-15.74-34.53-.47.01-.95.04-1.45.07,0,0-18.14-27.47-30.03-1.25-11.89,26.22-27.64,39.54-32.78,39.11-5.14-.44-18.34-8.63-22.87,11.15-4.54,19.78-19.26,25.85-20.84,26.51-1.58.65-7.35,6.44-8.38,13.69-.36,2.54-.29,6.79.52,11.04,0,0,122.67-36.93,131.57-65.78Z"/>
      <path class="cls-3" d="M234.23,134.39c11.37-4.01,6.72-16.89,8.9-26.1,2.17-9.21,23.57-29.4,41.62-28.4,17.61.97,50.89-23.24,38.92,29.02-11.97,52.25-128.4,97.43-128.4,97.43-6.68-5.11-11.45-11.98-5.15-18.27,10.77-10.76,10.76-19.25,11.2-36.64.44-17.39,21.54-13.02,32.91-17.03Z"/>
      <path class="cls-2" d="M335.56,334.38c16.61-25.21,19.69-30.98-5.46-37.56-.45-.12-.93-.23-1.41-.34,0,0-9.74-31.44-28.48-9.59-18.74,21.85-37.59,30.24-42.4,28.39-4.81-1.86-15.19-13.41-25.08,4.31-9.88,17.72-25.72,19.44-27.42,19.62-1.7.18-8.86,4.13-11.87,10.8-1.06,2.34-2.18,6.44-2.58,10.75,0,0,128.1-1.17,144.71-26.38Z"/>
      <path class="cls-3" d="M257.24,301.23c12-1.11,10.64-14.74,15-23.14,4.35-8.4,30.03-22.76,47.3-17.38,16.84,5.24,55.02-10.11,30.66,37.64-24.36,47.75-148.3,63.14-148.3,63.14-5.23-6.59-8.18-14.41-.54-18.97,13.07-7.81,15.13-16.04,19.8-32.8,4.67-16.76,24.07-7.37,36.07-8.48Z"/>
      <path class="cls-4" d="M65.34,153.23c-7.32-29.29-8.32-35.75,17.59-33.63.47.04.95.09,1.45.15,0,0,19.6-26.44,30.05.38,10.45,26.83,25.46,40.98,30.61,40.83s18.78-7.62,22.24,12.37c3.46,19.99,17.83,26.86,19.37,27.6,1.54.74,6.99,6.83,7.62,14.12.22,2.56-.08,6.8-1.12,11,0,0-120.49-43.52-127.81-72.82Z"/>
      <path class="cls-3" d="M77.47,139.4c-3.43-30-3.57-36.53,21.84-31.04.46.1.93.21,1.42.34,0,0,22.9-23.65,29.74,4.31,6.85,27.96,19.87,43.96,25,44.48,5.13.52,19.61-5.1,20.42,15.17.81,20.27,14.16,28.96,15.59,29.9,1.43.93,6.04,7.69,5.71,15-.11,2.56-.97,6.73-2.55,10.76,0,0-113.75-58.92-117.18-88.92Z"/>
      <g>
        <path class="cls-2" d="M27.59,329.78c-30.44-28.53-37.27-35.55-12.52-39.31.47-.07.96-.13,1.48-.19,0,0-6.61-42.38,30.16-7.56,31.95,30.25,57.34,43.04,62.92,41.96,5.71-1.11,17.47-12.46,32.38,9.57,13.27,19.62,32.87,24.53,34.99,25.07,2.12.53,10.81,5.65,13.91,12.11,1.06,2.2,1.99,5.83,2.03,9.37,0,0-138.89-26.23-165.35-51.02Z"/>
        <path class="cls-3" d="M27.13,313.99c-29.84-33.76-36.53-42.14-6.77-42.54.56,0,1.14,0,1.75.02,0,0,.66-45.69,36.12-3.57,29.76,35.34,55.01,51.38,61.27,50.97,6.38-.42,21.28-10.32,32.62,13.28,9.94,20.69,29.24,27.5,31.31,28.23,2.07.73,9.9,6.53,11.74,13.03.62,2.21.83,5.78.15,9.17,0,0-143-40.07-168.2-68.59Z"/>
      </g>
      <g>
        <path class="cls-2" d="M202.29,157.56s28.74-10.68,38.59,5.92c.17.29.34.58.5.89,0,0,32.71,8.16,12.76,18.03-19.94,9.86-26.33,20.75-23.93,23.81s15.16,10.2-1.6,14.97c-16.75,4.76-16.75,14.29-16.75,15.31s-3.19,5.1-9.57,6.46c-6.38,1.36-27.12,2.04-27.92-6.46-.8-8.5-6.38-12.58-17.55-21.09-11.17-8.5,3.99-12.92,7.98-18.37,3.99-5.44-7.18-10.2-11.97-15.31s-5.58-21.43,5.58-26.53c11.17-5.1,13.56-4.08,43.88,2.38Z"/>
        <g>
          <g>
            <path class="cls-2" d="M201.97,165s-14.45,71-9.89,76.64"/>
            <path class="cls-1" d="M202.1,165.03c-.37,6.5-1.31,12.9-2.7,19.24-.75,3.15-1.75,6.26-2.38,9.43-.64,3.17-1.05,6.38-1.32,9.62-.51,6.45-1.3,12.86-2.07,19.27-.54,4.49-1.84,12.25-1.85,16.71.02.78.06,1.59.39,2.27l-.21.17c-.61-.66-.83-1.52-1.04-2.32-.57-2.42-.65-4.93-.67-7.39.03-9.78,1.74-19.45,3.99-28.93,2.64-9.49,2.25-19.26,4.81-28.75.77-3.15,1.62-6.28,2.76-9.36l.26.05h0Z"/>
          </g>
          <path class="cls-1" d="M226.71,171.25c-4.32,2.89-9.45,3.7-14.11,5.78-2.33,1.04-4.74,1.89-7.2,2.58-2.19.5-5.55,1.39-7.61.93,2.49-.57,4.88-1.3,7.3-2.03,3.61-1.11,7.38-1.87,10.93-3.22,3.42-1.51,7.1-3.47,10.69-4.04h0Z"/>
          <path class="cls-1" d="M169.67,185.43c3.5.97,6.71,2.52,9.92,4.14,5.13,1.84,11.74,3.74,17.06,5.25,0,0,0,.1,0,.1-2.43.09-4.83-.43-7.14-1.06-3.49-.96-6.68-2.67-10.03-3.98-3.34-1.1-7.15-2.27-9.8-4.45h0Z"/>
          <g>
            <path class="cls-2" d="M179.6,173.45s9.67,3.86,19.12,7.82"/>
            <path class="cls-1" d="M179.62,173.4c3.24,1.16,6.48,2.35,9.7,3.56,3.16,1.19,6.79,2.37,9.38,4.35-3.4-.77-6.57-2.08-9.7-3.56-3.15-1.39-6.29-2.81-9.42-4.25l.04-.1h0Z"/>
          </g>
          <path class="cls-1" d="M223.27,186.14c-3.38,1.26-10.21,3.71-13.62,4.9-4.53,1.72-9.11,3.21-13.96,3.83,0,0-.05-.15-.05-.15,6.21-3.34,13.86-4.86,20.59-6.85,0,0,6.99-1.87,6.99-1.87l.05.15h0Z"/>
          <path class="cls-1" d="M192.38,212.91c-.69-1.49-2.14-2.54-3.45-3.5-4.15-2.97-9.15-4.22-13.23-7.34,0,0,.06-.15.06-.15,5.2.7,9.66,3.65,13.67,6.85,1.24,1.18,2.62,2.39,3.11,4.1,0,0-.16.03-.16.03h0Z"/>
          <path class="cls-1" d="M191.64,215.48c3.67-4.96,9.33-8.03,14.91-10.4,5.62-2.49,11.7-3.84,17.85-3.91,0,0,.02.16.02.16-1.46.47-2.93.88-4.4,1.23-4.34,1.28-8.75,2.23-13.01,3.72-5.57,2.05-11.3,4.72-15.24,9.29,0,0-.13-.09-.13-.09h0Z"/>
          <path class="cls-1" d="M190.89,230.15c5.01-6.38,15.28-10.03,23.23-10.15,0,0,.02.11.02.11-1.04.34-2.08.61-3.12.87-7.11,1.88-14.98,3.78-20.13,9.17h0Z"/>
          <path class="cls-1" d="M190.1,230.93c-.37-2.21-1.82-4.07-3.36-5.63-3.91-4.06-9.31-6.06-14.15-8.77-1.01-.51-1.99-1.07-2.97-1.69l.06-.15c6.81,1.19,13.06,4.95,17.66,10.07,1.44,1.77,2.76,3.82,2.92,6.16h-.16Z"/>
        </g>
      </g>
      <g>
        <path class="cls-4" d="M202.82,352.82s28.74-10.68,38.59,5.92c.17.29.34.58.5.89,0,0,32.71,8.16,12.76,18.03-19.94,9.86-26.33,20.75-23.93,23.81,2.39,3.06,15.16,10.2-1.6,14.97-16.75,4.76-16.75,14.29-16.75,15.31,0,1.02-3.19,5.1-9.57,6.46-6.38,1.36-27.12,2.04-27.92-6.46-.8-8.5-6.38-12.58-17.55-21.09-11.17-8.5,3.99-12.92,7.98-18.37,3.99-5.44-7.18-10.2-11.97-15.31-4.79-5.1-5.58-21.43,5.58-26.53s13.56-4.08,43.88,2.38Z"/>
        <g>
          <g>
            <path class="cls-2" d="M202.5,360.26s-14.45,71-9.89,76.64"/>
            <path class="cls-1" d="M202.64,360.29c-.37,6.5-1.31,12.9-2.7,19.24-.75,3.15-1.75,6.26-2.38,9.43-.64,3.17-1.05,6.38-1.32,9.62-.51,6.45-1.3,12.86-2.07,19.27-.54,4.49-1.84,12.25-1.85,16.71.02.78.06,1.59.39,2.27l-.21.17c-.61-.66-.83-1.52-1.04-2.32-.57-2.42-.65-4.93-.67-7.39.03-9.78,1.74-19.45,3.99-28.93,2.64-9.49,2.25-19.26,4.81-28.75.77-3.15,1.62-6.28,2.76-9.36l.26.05h0Z"/>
          </g>
          <path class="cls-1" d="M227.24,366.51c-4.32,2.89-9.45,3.7-14.11,5.78-2.33,1.04-4.74,1.89-7.2,2.58-2.19.5-5.55,1.39-7.61.93,2.49-.57,4.88-1.3,7.3-2.03,3.61-1.11,7.38-1.87,10.93-3.22,3.42-1.51,7.1-3.47,10.69-4.04h0Z"/>
          <path class="cls-1" d="M170.21,380.69c3.5.97,6.71,2.52,9.92,4.14,5.12,1.84,11.74,3.74,17.06,5.25,0,0,0,.1,0,.1-2.43.09-4.83-.43-7.14-1.06-3.49-.96-6.68-2.67-10.03-3.98-3.34-1.1-7.15-2.27-9.8-4.45h0Z"/>
          <g>
            <path class="cls-2" d="M180.13,368.71s9.67,3.86,19.12,7.82"/>
            <path class="cls-1" d="M180.15,368.66c3.24,1.16,6.48,2.35,9.7,3.56,3.16,1.19,6.79,2.37,9.38,4.35-3.4-.77-6.57-2.08-9.7-3.56-3.15-1.39-6.29-2.81-9.42-4.25l.04-.1h0Z"/>
          </g>
          <path class="cls-1" d="M223.81,381.4c-3.38,1.26-10.21,3.71-13.62,4.9-4.53,1.72-9.11,3.21-13.96,3.83,0,0-.05-.15-.05-.15,6.21-3.34,13.86-4.86,20.59-6.85,0,0,6.99-1.87,6.99-1.87l.05.15h0Z"/>
          <path class="cls-1" d="M192.92,408.17c-.69-1.49-2.14-2.54-3.45-3.5-4.15-2.97-9.15-4.22-13.23-7.34,0,0,.06-.15.06-.15,5.2.7,9.66,3.65,13.67,6.85,1.24,1.18,2.62,2.39,3.11,4.1,0,0-.16.03-.16.03h0Z"/>
          <path class="cls-1" d="M192.17,410.74c3.67-4.96,9.33-8.03,14.91-10.4,5.62-2.49,11.7-3.84,17.85-3.91,0,0,.02.16.02.16-1.46.47-2.93.88-4.4,1.23-4.34,1.28-8.75,2.23-13.01,3.72-5.57,2.05-11.3,4.72-15.24,9.29,0,0-.13-.09-.13-.09h0Z"/>
          <path class="cls-1" d="M191.43,425.41c5.01-6.38,15.28-10.03,23.23-10.15,0,0,.02.11.02.11-1.04.34-2.08.61-3.12.87-7.11,1.88-14.98,3.78-20.13,9.17h0Z"/>
          <path class="cls-1" d="M190.64,426.19c-.37-2.21-1.82-4.07-3.36-5.63-3.92-4.06-9.31-6.06-14.15-8.77-1.01-.51-1.99-1.07-2.97-1.69l.06-.15c6.81,1.19,13.06,4.95,17.66,10.07,1.44,1.77,2.76,3.82,2.92,6.16h-.16Z"/>
        </g>
      </g>
    </g>
  </g>
</svg>