<?xml version="1.0" encoding="UTF-8"?>
<svg id="Layer_2" data-name="Layer 2" xmlns="http://www.w3.org/2000/svg" viewBox="0 0 457.38 839.41">
  <defs>
    <style>
      .cls-1 {
        fill: #375711;
      }

      .cls-1, .cls-2, .cls-3, .cls-4, .cls-5 {
        stroke-width: 0px;
      }

      .cls-2 {
        fill: #45691e;
      }

      .cls-3 {
        fill: #46691e;
      }

      .cls-4 {
        fill: #336314;
      }

      .cls-5 {
        fill: #be7028;
      }
    </style>
  </defs>
  <g id="P-Monstera">
    <g>
      <g>
        <path class="cls-4" d="M129.62,383.6c2.24-4.05,5.1-7.63,8.6-10.66,3.27-2.84,7.43-5.49,11.89-5.69,8.6-.38,14.31,8.01,18.23,14.52,10.35,17.19,16.54,36.52,20.19,56.17,3.99,21.45,4.83,43.34,5.16,65.11.34,22.58.53,45.13,1.51,67.69.99,22.63,2.31,45.24,3.54,67.86.15,2.82.31,5.63.46,8.45.2,3.66,5.91,3.68,5.71,0-1.27-23.37-2.63-46.73-3.71-70.11-1.09-23.32-1.45-46.63-1.74-69.97s-1.04-45.44-4.93-67.83c-3.56-20.48-9.83-40.73-20.36-58.75-4.47-7.65-10.46-16.63-19.81-18.49-10.1-2.01-19.56,5.06-25.49,12.58-1.56,1.97-2.96,4.04-4.18,6.24-1.78,3.22,3.15,6.11,4.93,2.88h0Z"/>
        <path class="cls-4" d="M183.25,38.78c.2-2.14.4-4.29.6-6.43.29-3.18-5.04-3.93-5.61-.76-7.19,39.88-11.99,80.19-14.29,120.65-2.31,40.6-2.14,81.35.53,121.93,2.66,40.38,7.86,80.53,15.3,120.3s16.71,81.37,23.37,122.4,11.85,82.46,16.86,123.82c.62,5.1,1.23,10.2,1.85,15.3.43,3.61,6.15,3.65,5.71,0-4.93-40.84-9.86-81.69-16.04-122.37s-14.56-81.32-22.6-121.88c-7.96-40.14-14.16-80.51-17.52-121.3-3.32-40.33-4.17-80.87-2.55-121.3,1.62-40.58,5.72-81.07,12.33-121.14.82-4.97,1.68-9.93,2.57-14.88l-5.61-.76c-.2,2.14-.4,4.29-.6,6.43-.34,3.66,5.38,3.64,5.71,0h0Z"/>
        <path class="cls-4" d="M231.32,278.59c-4.7-9.95-17.81-11.11-26.82-6.94-11.62,5.38-15.9,19.36-18.29,30.89-6.1,29.42-9.26,59.56-10.2,89.58-.94,30.21.52,60.48,4.09,90.49s9.23,60.06,16.74,89.49c7.51,29.44,16.85,58.42,27.79,86.76,1.38,3.56,2.78,7.12,4.2,10.66.58,1.44,1.9,2.42,3.51,2,1.36-.36,2.57-2.08,2-3.51-10.97-27.3-20.48-55.18-28.3-83.54s-13.91-56.94-18.12-85.94-6.42-58.25-6.47-87.52c-.04-29.1,2.07-58.22,6.67-86.96,1.13-7.08,2.35-14.17,3.86-21.18,1.29-5.98,2.91-12.02,6.06-17.32,2.68-4.5,6.44-8.26,11.55-9.75,4.21-1.23,9.09-1.16,12.91,1.18,1.78,1.09,3,2.62,3.89,4.49,1.57,3.32,6.5.43,4.93-2.88h0Z"/>
        <path class="cls-4" d="M377.1,172.83c-4-3.03-7.12-7.08-10.77-10.5-3.94-3.7-8.48-6.49-13.7-7.98-10.64-3.03-21.77-.76-31.66,3.65s-18.44,10.39-26.8,16.69-15.97,12.9-23.27,20.11c-14.68,14.49-27.51,30.84-38.66,48.18-11.99,18.64-22,38.5-30.67,58.89s-16.76,43.25-23.81,65.35c-.85,2.66-1.69,5.32-2.52,7.98-1.1,3.52,4.41,5.02,5.51,1.52,6.76-21.6,13.98-43.08,22.48-64.06s17.88-40.5,29.34-59.41c10.34-17.06,22.23-33.21,35.9-47.76s29.11-27.68,46.33-37.82c8.87-5.22,18.71-9.44,29.2-8.96,4.74.22,9.45,1.45,13.52,3.93s7.45,6.47,10.89,9.97c1.82,1.86,3.74,3.58,5.81,5.16,1.23.93,3.2.19,3.91-1.02.86-1.47.21-2.97-1.02-3.91h0Z"/>
        <path class="cls-4" d="M155.43,182.79c2.53-2,5.6-3.74,8.83-4.2s6.32.66,8.96,2.54,4.64,4.41,6.37,7.03c1.96,2.97,3.62,6.16,4.92,9.48,5.45,13.96,5.79,29.33,5.39,44.12-.45,16.61-2.38,33.13-4.65,49.58s-4.91,33.14-6.73,49.79c-.91,8.28-1.61,16.59-1.97,24.91-.18,4.12-.27,8.24-.26,12.36,0,2.14.04,4.28.1,6.43.06,1.97,0,4.02.36,5.97s1.55,3.35,3.39,4.03c1.45.53,3.13-.6,3.51-2,.44-1.59-.54-2.98-2-3.51-.01,0,.86.48.74.56,0,0-.13-.53-.14-.61.01.07.04.32.02,0-.09-1.08-.1-2.17-.14-3.25-.07-2.06-.11-4.13-.13-6.19-.03-4.2.04-8.4.2-12.6.33-8.48,1.03-16.95,1.95-25.39,1.81-16.7,4.45-33.29,6.74-49.93s4.32-33.82,4.74-50.86c.37-15.21-.08-31.2-5.84-45.5-2.69-6.68-6.45-13.63-12.18-18.2-2.96-2.36-6.27-4.02-10.07-4.45s-7.93.74-11.37,2.61c-1.7.92-3.25,2.06-4.77,3.26-1.21.96-1,3.04,0,4.04,1.2,1.2,2.83.96,4.04,0h0Z"/>
        <path class="cls-4" d="M287.48,439.16c-14.08-11.32-34.32-7.47-49.23.07-15.84,8.02-28.16,21.86-34.39,38.47-3.64,9.72-5.12,20.32-4.25,30.66.13,1.54,1.22,2.86,2.86,2.86,1.45,0,2.99-1.31,2.86-2.86-1.4-16.69,3.57-33.9,14.23-46.91,9.89-12.07,24.27-20.87,39.79-23.22,8.13-1.23,17.46-.36,24.08,4.96,1.2.97,2.87,1.17,4.04,0,1-1,1.21-3.07,0-4.04h0Z"/>
      </g>
      <path class="cls-1" d="M101.4,128.67s10.55-37.07,30.57-40.24c20.02-3.17,13.36,6.61,13.36,6.61-75.33,42.7-20.71,76.64-21.11,74.14-.4-2.5,10.25-9.83,22.15-28.64,11.9-18.81,26.47-27.27,26.23-19.03-.23,8.25-20.83,20.74-30.29,35.57s-.94,32.98-.94,32.98c9.33.58,46.95,24.38,44.4,21.19-2.56-3.19,5.33-50.61,18.93-52.25,13.59-1.64-7.33,60.67-7.33,60.67,22.52-3.56,55.54,23.54,55.54,23.54,2-10.06,26.52-23.69,26.52-23.69-11.36-16.67-3.17-20.02.42-20.08,3.58-.05,11.36,16.67,11.36,16.67,16.73-7.78,29.6-33.41,29.6-33.41-17.89-22.31-55.04-13.87-48.43-27.23,6.61-13.36,50.48,20.75,50.48,20.75,7.4-8.35,11.92-41.39,11.92-41.39,3.89-27.29-80.73-30.33-68.27-35.89,23.62-25.8,72.38,22.93,72.38,22.93,16.66-60.1-55.7-105.6-94.24-119-38.55-13.4-62.35,24.23-62.35,24.23-69.26-6.49-86.95,56.85-86.95,56.85-5.19,12.62,6.05,44.71,6.05,44.71ZM236.35,177.14c1-1.55,3.93-1.74,4.66.23.41,1.09.67,2.22.81,3.35.29.31.5.69.54,1.15.45,4.56,1.03,9.38-2.14,13.18-.62.75-1.34,1.27-2.36,1.23-.89-.03-1.95-.59-2.29-1.45-1.15-2.87-1.53-5.99-1.43-9.07.09-2.93.6-6.1,2.22-8.61ZM245.08,130.21c2.66-2.65,7.01-3.15,10.57-2.91,3.98.26,7.98,1.43,11.03,4.07,1.33,1.15.65,3.5-.76,4.2-2.88,1.44-6.09,1.45-9.22,1.03-1.47-.2-2.93-.47-4.41-.66-.72-.09-1.44-.17-2.17-.21-.35-.02-.71-.03-1.06-.03-.16,0-.31,0-.47.01-.07,0-.84.07-.22,0-1.12.11-2.32-.28-2.91-1.23-.21-.13-.41-.28-.58-.46-1.02-1.13-.84-2.78.19-3.81ZM242.34,51.19c2.39-1.82,4.93-2.73,7.92-2.99,4.44-.38,8.83.55,13.16,1.58,6.91-.31,14.11.74,20.49,3.39,3.58,1.49,6.9,3.44,9.67,6.18,1.55,1.53.2,4.86-2.1,4.51-14.06-2.15-28.16-1.27-42.31-1.29-3.63,0-10.46-.61-10.55-5.56-.05-2.46,1.91-4.42,3.73-5.81ZM221.71,58.77c-1.37-.5-2.22-1.95-1.76-3.39.06-.2.15-.38.22-.58-.1-.31-.18-.64-.21-1-.23-2.58.79-5.27,2.72-7.01,1.97-1.76,4.78-2.48,7.37-2.03.72.12,1.41.29,1.9.89.24.29.42.61.53.95,0,.01.02.02.02.03.56.81.74,2.17.07,2.99-.07.09-.15.18-.23.27-.98,3.82-4.3,6.84-7.89,8.33-.13.05-.25.09-.38.13-.68.5-1.56.71-2.38.41ZM176.55,155.87c3.99-5.93,6.13-14.82,13.75-17.18,1.49-.46,2.8.74,3.23,2.04,1.55,4.7-1.3,8.78-4.33,12.08-.73.8-1.49,1.58-2.23,2.37-.83.89-1.25,1.33-1.85,2.12-.3.39-.6.8-.87,1.22-.14.22-.28.45-.42.68-.01.02-.19.36-.23.43-.19.42-.34.86-.46,1.3,0,.04-.06.28-.09.4,0,.15-.05.6-.05.67-.16,3.47-5.55,3.27-5.39-.2.03-.7.14-1.37.29-2.02-1.43-.58-2.45-2.24-1.34-3.9ZM191.77,84.29c1.76-.41,3.59-.7,5.4-.64,2.07.07,3.98.65,5.82,1.57,1.5.75,1.62,3.28.34,4.26-1.08.83-2.21,1.29-3.58,1.32-.7.01-1.39-.14-2.08-.28-.33-.05-.66-.09-1-.09-.42,0-.82-.13-1.18-.34-1.32,0-2.65-.2-3.94-.6-1.09-.34-1.98-1.51-1.88-2.67.1-1.2.9-2.25,2.1-2.53ZM149.61,73.71c1.17-.51,2.36-.9,3.57-1.19,5.27-4.15,12.92-4.89,18.47-.73.87.66,1.36,1.61,1.16,2.72-.17.96-.98,2.05-2.04,2.17-.96.11-1.93.18-2.89.23-.5.83-1.36,1.47-2.36,1.31-3.86-.6-7.76.33-11.62-.18-.13-.02-.26-.04-.39-.07-.19.06-.39.11-.58.17-.07.02-.5.19-.84.35-1.33.58-2.93.2-3.64-1.15-.64-1.23-.19-3.05,1.15-3.64Z"/>
      <path class="cls-1" d="M126.93,380.19s-11.47-45.9-64.01-14.35c-52.16,47.41,27.33,102.74,26.08,119.76,3.12-5.97,13.46-19.95,42.49-21.54,50.69.41,68.15-98.12-4.56-83.86ZM107.36,390.07c-.41.2-.86.29-1.29.21-4.44-.86-7.41-5.23-10.32-8.19-3.51-3.57-7.86-6.63-12.5-8.64-1.36-.2-2.53-.69-3.69-1.44-1.12-.72-.95-2.24-.35-3.19,1.35-2.15,4.13-2.52,6.44-2.07.15,0,.29.03.44.04,3.14.09,6.23.6,9.18,1.78,2.26.9,4.3,2.17,6.15,3.69,1.91,1.17,3.72,2.51,5.35,3.96,2.49,2.22,4.72,4.77,5.35,8.13.58,3.14-1.14,6.48-4.76,5.7ZM118.07,453.64c-1.61-.66-2.53-2.36-3.28-3.83-.15-.29-.28-.58-.43-.87,0-.02-.04-.07-.08-.12-.09-.13-.22-.33-.21-.32-.48-.78-.93-1.57-1.39-2.36-.99-1.71-1.98-3.42-3.2-4.97-1.08-1.37-2.26-2.44-3.83-3.08-1.48-.61-1.61-2.13-.98-3.2.16-.85.76-1.61,1.87-1.76,4.2-.57,7.7,2.38,10.18,5.42,1.94,2.37,3.47,5.08,4.81,7.83.66,1.35,1.27,2.94,1.06,4.46-.29,2.14-2.43,3.65-4.52,2.8Z"/>
      <path class="cls-3" d="M371.11,259.18c29.03,1.56,39.39,15.52,42.51,21.49-1.27-17.01,78.17-72.43,25.96-119.78-52.57-31.49-64,14.42-64,14.42-72.72-14.18-55.16,84.33-4.47,83.87ZM390.4,179.47c.62-3.37,2.85-5.91,5.34-8.14,1.63-1.46,3.44-2.8,5.35-3.97,1.85-1.52,3.89-2.79,6.15-3.69,2.95-1.18,6.04-1.7,9.18-1.79.15,0,.29-.04.44-.04,2.31-.46,5.08-.09,6.44,2.06.6.95.77,2.47-.35,3.19-1.15.74-2.33,1.24-3.68,1.44-4.63,2.01-8.99,5.07-12.49,8.65-2.91,2.97-5.88,7.34-10.31,8.21-.43.08-.89,0-1.29-.21-3.61.78-5.34-2.56-4.76-5.7ZM379.99,245.96c-.21-1.52.4-3.12,1.05-4.46,1.33-2.75,2.87-5.46,4.8-7.83,2.48-3.04,5.97-6,10.18-5.43,1.11.15,1.71.91,1.87,1.76.63,1.07.51,2.59-.97,3.2-1.57.65-2.75,1.71-3.83,3.09-1.22,1.55-2.21,3.27-3.19,4.98-.46.79-.91,1.58-1.39,2.36,0-.01-.12.18-.21.32-.03.05-.07.11-.08.12-.15.29-.28.58-.43.87-.75,1.47-1.66,3.17-3.27,3.83-2.09.85-4.23-.66-4.52-2.79Z"/>
      <path class="cls-2" d="M320.64,501.8c15.94-6.88,27.76.13,32.19,3.49-8.88-11.52.86-60.66-39.97-78.3-37.55-10.13-26.36,17.74-26.36,17.74-50.3,4.38,3.9,73.43,34.14,57.08ZM296.1,444.68c-1.02-2.1-.86-3.95-.45-5.65.27-1.1.67-2.15,1.18-3.1.35-1.14.88-2.16,1.66-2.99,1.01-1.08,2.33-1.81,3.83-2.3.07-.03.13-.06.2-.08.94-.57,2.42-.75,3.89.22.65.43,1.32,1.24,1.06,1.79-.26.57-.63,1.01-1.21,1.32-1.46,1.8-2.4,4.18-2.73,6.77-.27,2.18-.02,5.23-1.94,6.5-.19.12-.46.15-.75.1-1.56,1.1-3.81-.6-4.77-2.58ZM319.22,489.84c-.82-1.02-1.23-2.28-1.5-3.39-.55-2.23-.97-4.46-1.02-6.54-.06-2.62.43-5.38,2.85-5.95.63-.15,1.27.21,1.73.73.8.56,1.41,1.58.94,2.32-.51.79-.63,1.77-.57,2.94.08,1.33.35,2.73.62,4.13.13.65.25,1.3.36,1.96,0-.01.02.16.04.27,0,.04.01.09.02.1.06.24.12.47.18.71.29,1.2.6,2.62.06,3.5-.7,1.15-2.55.64-3.7-.79Z"/>
      <path class="cls-1" d="M347.2,311.49c-32.37,11.44-37.14.97-37.14.97,0,0,23.79-27.63,56.18-15.27,3.79-30.48-113.38-99.93-140-24.69l-9.53-6.66-2.85,4.76s7.62,3.81,14.29,10.47c0,0-47.61,1.93-57.11,45.74-.94,14.29,8.59,33.33,8.59,32.37s7.6-28.57,27.6-29.54c20-.96-29.5,33.35-10.44,65.72,0,0,3.82,12.38,18.1,13.32,0,0-2.86-13.33,10.46-31.43,13.32-18.1,11.41-27.62,18.08-22.87,8.58,16.18-23.79,34.3-21.88,48.58,1.91,14.28,36.2,17.12,41.91,23.79,0,0-4.77-9.52-2.87-16.19,1.9-6.67,3.8-8.57,6.65-31.43,3.8-12.38,12.38-.96,12.38-.96,0,0,4.77,19.04,4.78,39.99,1.91,9.52,24.76.94,35.24,4.74,10.48,3.8,16.19,10.47,16.19,10.47,0,0,0-18.09,12.37-22.86,5.71-4.76,9.52-15.24-6.67-14.28-5.71,2.86-11.43-10.47-10.48-11.42.95-.95,24.76-5.73,26.67,12.37,0,0,4.76.95,9.51-27.62,2.85-9.52-41.9.02-40.95-8.55.95-8.57,49.51-19.07,48.57-2.88,0,0,13.31-46.67-27.64-46.65ZM220.21,314.19c-.82,1.61-2.18,3.11-3.84,3.87-1.81.84-3.81,1.07-5.74.44-.95-.31-1.67-1.15-1.67-2.18,0-1.26.28-2.58,1.44-3.28.32-.19.64-.3.96-.34.33-.86.95-1.59,1.75-2.05,1.97-1.14,4.38-.62,6.27.43,1.12.63,1.36,2.03.81,3.1ZM248.66,346.16s-.04,0-.06,0c-.28.4-.68.72-1.21.86-1.14.31-2.52-.39-2.79-1.58-.13-.56-.22-1.13-.29-1.7-1.6-2.19-1.01-5.43.06-7.89,0,0,0,0,0,0,.08-1.81.59-3.59,1.55-5.2.64-1.07,1.42-2.03,2.31-2.91.98-1.2,2.15-2.17,3.54-2.77.44-.28.88-.55,1.34-.8.87-.48,1.74-.37,2.4.12.2,0,.4.02.61.04,1.19.12,2.3.95,2.27,2.27-.04,1.67-.49,3.24-1.01,4.81-.27.81-.92,1.41-1.7,1.6-.02.56-.06,1.13-.11,1.69-.27,2.79-.77,5.87-2.31,8.28-.77,1.2-1.84,2.09-3.04,2.54-.38.4-.9.65-1.56.65ZM258.64,383.11c-.27,1-.71,1.95-1.33,2.78-.15.36-.38.69-.68.93,0,.01-.02.03-.02.04-.06.12-.11.24-.17.36-.62,1.07-1.92,1.38-2.98.95-.18.03-.37.06-.55.08-.76.09-1.59-.5-1.96-1.12-.41-.69-.42-1.59,0-2.29.26-.43.5-.86.74-1.3.03-.28.06-.56.1-.84.4-2.96,1.39-5.78,3.25-8.14.55-.7,1.72-.79,2.48-.47.91.39,1.28,1.14,1.39,2.07.28,2.29.36,4.71-.25,6.95ZM280.84,282.01c-2.16,1.24-4.52,2.4-6.95,3.12-.06.05-.12.1-.18.15-2.15,2-5.08,2.44-7.92,1.29-.88-.12-1.73-.36-2.5-.76-1.54-.8-2.3-2.06-2.52-3.48-1.16-1.55-1.56-3.52-.59-5.5.78-1.58,2.21-2.83,3.82-3.78.22-1.21.74-2.36,1.57-3.39,2.05-2.52,5.39-3.77,8.63-4.48.19-.12.37-.25.56-.36,6.71-4.1,15.09-5.1,22.81-4.67,7.5.42,15.16,2.08,21.87,5.52,2.6,1.33.31,5.24-2.29,3.92-.18-.09-.36-.18-.53-.27-.02,0-.04.02-.07.03-3.44,1.08-7.02,1.67-10.61,2.15-.32.19-.72.3-1.21.27-.23-.01-.46-.02-.7-.02-.51.07-1.01.13-1.52.2-.45.87-1.41,1.27-2.39,1.17-.24.22-.54.39-.87.45-2.17.4-4.37.72-6.56,1.11-4.11,2.14-7.86,5.03-11.86,7.33ZM297.05,306.11c-.09.1-.18.18-.28.26-.92.73-2.13.57-2.98-.18-1.69-1.48-2.54-3.77-1.78-5.95,1.33-3.84,5.62-6.25,9.12-7.8,1.93-.85,3.91-1.6,5.98-2.04,1.68-.36,3.56-.65,5.25-.17,1.18.34,1.91,1.59,1.58,2.79-.27,1-1.25,1.68-2.25,1.66.01.23,0,.46-.08.68-.84,2.37-2.64,4.3-4.71,5.69-.9,1.81-2.52,3.19-4.33,4.1-1.59.8-3.72,1.53-5.51.94ZM309.61,398.48c-1.01,1.55-2.7,2.65-4.6,2.53-1.78-.11-3.15-1.37-3.89-2.92-1.63-3.43-1.65-7.62-1.66-11.34,0-1.26.05-2.52.1-3.79-.33-1.15-.4-2.37-.16-3.55.07-.33.18-.65.31-.96,0-.15,0-.3,0-.45,0-1.46,1.15-2.19,2.28-2.19.04-.25.08-.5.14-.75.34-1.56,2.73-2.32,3.79-1,1.19,1.47,1.88,3.26,2.51,5.03.81,2.27,1.44,4.61,1.88,6.98.71,3.8,1.54,8.95-.71,12.42ZM322.85,337.22c-1.85.73-3.72,1.4-5.59,2.06-.82.29-1.64.58-2.46.87-.34.12-.67.24-1.01.37-.16.06-1.08.43-.39.14-.25.11-.51.17-.76.2-.14.88-.8,1.78-1.65,1.9-1.37.2-2.75.11-4.05-.21-.45.11-.93.09-1.42-.1-.34-.14-.66-.35-.91-.62-.55-.18-1.03-.57-1.32-1.06-.93-.74-1.74-1.65-2.34-2.78-.24-.45-.3-.94-.22-1.41-.03-.83.36-1.68,1.14-2.14.1-.21.21-.41.36-.6,2.54-3.14,7.35-4.06,11.12-4.55,3.91-.51,8.35-.65,12.13.68.18.06.34.15.49.24.26-.33.63-.58,1.11-.71,1.09-.3,2.59.37,2.79,1.58.6,3.63-4.44,5.11-7.02,6.13Z"/>
      <path class="cls-3" d="M207.17,249.66s1.88-55.24-55.27-67.59c0,0-9.54-36.18-43.83-35.21-34.28.97-103.79,19.1-105.67,71.48,0,0,51.41-26.69,63.81-.03,8.57,7.61-60-11.4-63.8,11.46,0,0-4.75,27.62-.93,36.19,0,0,43.8-16.21,45.71-3.83,1.91,12.38-25.71-3.8-45.71,9.55,0,0,3.82,23.81,15.26,34.28,0,0,10.47-11.43,13.33-10.48s8.57,5.71-4.75,16.19c0,0,16.2,17.13,15.25,25.7,0,0,33.32-13.35,50.47-4.79,0,0-.98-55.23,9.5-50.48,10.48,4.76,4.79,44.76,1.93,46.66s33.33-7.64,40.95-5.74c0,0,11.42-12.39,7.6-26.67-3.82-14.28-17.16-29.51-15.26-36.18,1.9-6.67,11.43,3.8,16.2,21.89,4.77,18.09,11.44,26.66,10.49,28.56-.95,1.91,51.42-11.45,1.87-64.76,0,0-2.86-9.52,12.38-1.91,15.24,7.61,14.31,39.99,14.31,39.99,0,0,17.13-22.86,16.17-34.29ZM70.18,296.07c-.7,2.49-1.8,4.9-3.44,6.91-.5.61-1.49.78-2.21.58-.83-.23-1.27-.83-1.58-1.58-1.58-3.84.11-7.56,1.63-11.1.15-.36.42-.61.73-.79.39-.87.89-1.71,1.5-2.48,1.08-1.39,3.38-.5,3.79,1,.66,2.42.26,5.09-.41,7.46ZM74.67,251.89c-.18.11-.38.17-.58.22-.71.62-1.77.62-2.64.25.48.21-.12-.04-.18-.06-.12-.04-.25-.09-.37-.13-.28-.09-.57-.17-.86-.25-.59-.15-1.19-.27-1.79-.38-1.23-.22-2.47-.37-3.7-.59-2.61-.45-5.18-1.27-7.13-3.16-.95-.92-.9-2.98.46-3.56,3.11-1.34,6.62-1.26,9.87-.47,2.91.71,6.27,2.22,7.73,5.01.57,1.09.29,2.46-.81,3.1ZM99.22,191.76c-1.33,3.94-6.95,2.7-9.87,1.78-11.34-3.57-22.42-7.84-34.23-9.68-1.94-.3-2.18-3.31-.54-4.14,2.91-1.49,6.07-2.22,9.31-2.5,5.78-.51,11.82.48,17.28,2.48,3.73.27,7.48.64,10.94,2.07,2.33.96,4.13,2.34,5.59,4.4,1.11,1.57,2.18,3.64,1.52,5.6ZM110.51,196.54c-.09-.06-.18-.13-.27-.2-2.5-2.11-4.39-5.36-4.21-8.68-.04-.09-.08-.18-.12-.27-.34-.83.16-1.88.81-2.38,0,0,.02-.01.03-.02.18-.24.4-.45.67-.63.55-.35,1.14-.31,1.75-.23,2.19.29,4.26,1.58,5.39,3.49,1.11,1.88,1.24,4.3.41,6.31-.12.28-.26.52-.42.75,0,.17.03.35.03.52,0,1.27-1.04,2.21-2.27,2.27-.73.03-1.39-.36-1.8-.93ZM121.84,289.5c-.04.56-.13,1.12-.28,1.69-.75,2.82-5.12,1.62-4.37-1.2.02-.06.1-.43.13-.55,0-.11.03-.31.03-.35.02-.38,0-.77-.04-1.16-.02-.07-.07-.38-.08-.4-.05-.22-.1-.44-.16-.65-.11-.4-.24-.8-.39-1.19-.29-.78-.51-1.24-.95-2.17-.39-.82-.8-1.64-1.19-2.46-1.59-3.42-2.84-7.4-.41-10.78.67-.93,2.03-1.56,3.1-.81,5.51,3.82,4.97,11.49,6.66,17.25.47,1.61-.76,2.68-2.06,2.79ZM130.88,228.06c-.22.96-1.23,1.67-2.18,1.67-1.14,0-2.25-.18-3.31-.52-.34.07-.7.08-1.04-.03-.27-.09-.54-.14-.82-.18-.59-.06-1.18-.11-1.74-.3-1.09-.37-1.88-1.02-2.53-1.96-.78-1.11-.04-3.11,1.35-3.33,1.71-.27,3.39-.25,5.06.21,1.47.41,2.86,1.1,4.17,1.88.89.53,1.27,1.57,1.04,2.56ZM166.3,230.91c-.91.91-2.28.81-3.21,0-.24-.21-.54-.45-.59-.49-.14-.1-.28-.19-.42-.29-.11,0-.22-.02-.33-.04-3.22-.57-6.11-2.3-9.35-2.8-.84-.13-1.37-.86-1.56-1.65-.76-.28-1.51-.58-2.26-.91-.81-.36-1.19-1.44-1.08-2.26.13-.94.76-1.58,1.62-1.89,5.5-1.93,11.44.6,14.61,5.26.89.54,1.75,1.16,2.56,1.86.93.81.82,2.38,0,3.21Z"/>
      <path class="cls-5" d="M78.69,605.16l274.27-.14s-10.42,107.62-48.46,209.54h14.28s0,13.32-10.46,24.76l-181.89.1s-12.39-18.09-11.44-24.75h13.33s-42.93-138.07-49.63-209.49Z"/>
    </g>
  </g>
</svg>