<?xml version="1.0" encoding="UTF-8"?>
<svg id="Layer_2" data-name="Layer 2" xmlns="http://www.w3.org/2000/svg" viewBox="0 0 367.23 1542.01">
  <defs>
    <style>
      .cls-1 {
        stroke-width: 5.53px;
      }

      .cls-1, .cls-2 {
        fill: none;
        stroke: #736357;
        stroke-miterlimit: 10;
      }

      .cls-3 {
        fill: #736357;
      }

      .cls-3, .cls-4, .cls-5, .cls-6, .cls-7 {
        stroke-width: 0px;
      }

      .cls-4 {
        fill: #b66157;
      }

      .cls-5 {
        fill: #245b5b;
      }

      .cls-2 {
        stroke-width: 3.69px;
      }

      .cls-6 {
        fill: #34534e;
      }

      .cls-7 {
        fill: #466654;
      }
    </style>
  </defs>
  <g id="P-Viney">
    <g id="viney">
      <g>
        <path class="cls-4" d="M325.76,1174.67H65.82c-5.58,0-10.14,4.56-10.14,10.14v5.53c0,5.58,4.56,10.14,10.14,10.14h2.33c-1.26,21.11-1.92,96.92,50.21,125.36h158.54s55.13-24.91,48.36-125.36h.5c5.58,0,10.14-4.56,10.14-10.14v-5.53c0-5.58-4.56-10.14-10.14-10.14Z"/>
        <g>
          <polyline class="cls-2" points="104.68 1321.79 195.01 975.21 277.97 1321.79"/>
          <line class="cls-1" x1="195.01" x2="195.01" y2="981.67"/>
          <path class="cls-3" d="M200.38,931.43c.68-1.07,1.08-2.33,1.08-3.69,0-3.82-3.1-6.91-6.91-6.91s-6.91,3.1-6.91,6.91c0,1.36.41,2.62,1.08,3.69-.68,1.07-1.08,2.33-1.08,3.69s.41,2.62,1.08,3.69c-.68,1.07-1.08,2.33-1.08,3.69s.41,2.62,1.08,3.69c-.68,1.07-1.08,2.33-1.08,3.69,0,3.82,3.1,6.91,6.91,6.91s6.91-3.1,6.91-6.91c0-1.36-.41-2.62-1.08-3.69.68-1.07,1.08-2.33,1.08-3.69s-.41-2.62-1.08-3.69c.68-1.07,1.08-2.33,1.08-3.69s-.41-2.62-1.08-3.69Z"/>
        </g>
        <g id="shadow">
          <path class="cls-7" d="M165.81,1146.13c24.15,23.5-11.19,46.45-11.19,46.45,0,0-15.1-38.03,10.35-44.28"/>
          <path class="cls-7" d="M94.51,1218.1c30.7,13.68,7.83,48.59,7.83,48.59,0,0-28.17-30.91-7.75-46.21"/>
          <path class="cls-7" d="M215.47,1192.28c21.18,10.88,2.3,31.1,2.3,31.1,0,0-18.18-21.51-2.41-29.6"/>
          <path class="cls-7" d="M229.95,1134.54c29.73-1.59,27.42,37.2,27.42,37.2,0,0-35.36-13.85-26.31-35.25"/>
          <path class="cls-7" d="M184.57,1066.36c31.31,28.29-11.81,52.81-11.81,52.81,0,0-20.67-44.52,10.86-50.36"/>
          <path class="cls-7" d="M158.54,1098.41c22.38,35.23-27.17,46.04-27.17,46.04,0,0-7.15-47.41,25.52-44.02"/>
          <path class="cls-7" d="M184.83,1117.13c22.38,35.23-27.17,46.04-27.17,46.04,0,0-7.15-47.41,25.52-44.02"/>
          <path class="cls-7" d="M131.73,1149.95c31.31,28.29-11.81,52.81-11.81,52.81,0,0-20.67-44.52,10.86-50.36"/>
          <path class="cls-7" d="M23.94,1287.46c26.71,14.79-.07,29.72-.07,29.72,0,0-21.71-24.14-.21-28.33"/>
          <path class="cls-7" d="M137.82,1250.02c16.78,14.55-5.57,26.21-5.57,26.21,0,0-11.39-22.51,5.1-25"/>
          <path class="cls-7" d="M133.14,1242.8c-19.64-18.11-25.89,8.62-25.89,8.62,0,0,26.52,11.23,24.75-7.98"/>
          <path class="cls-7" d="M80.78,1191.79c-16.79-22.14-41.88,2.49-41.88,2.49,0,0,30.71,17,39.87-2.13"/>
          <path class="cls-7" d="M113.37,1130.45c1.01,2.41-17.13,18.95-53.6-4.39,0,0,37.42-34.25,53.6,4.39Z"/>
          <path class="cls-7" d="M238.95,1032.81c1.48,3.85-25.15,30.56-78.66-6.44,0,0,54.93-55.31,78.66,6.44Z"/>
          <path class="cls-7" d="M150.94,1074.82c2.25,2.25-6.5,29.58-54.14,20.49,0,0,17.99-56.52,54.14-20.49Z"/>
          <path class="cls-7" d="M32.36,1238.06c1.22,1.31-5,16.4-32.36,10.2,0,0,12.79-31.21,32.36-10.2Z"/>
          <path class="cls-7" d="M143.25,1214.55c.04-1.89-16.04-12.33-33.88,8.75,0,0,33.2,21.61,33.88-8.75Z"/>
          <path class="cls-7" d="M229.12,1148.72c1.01,2.41-17.13,18.95-53.6-4.39,0,0,37.42-34.25,53.6,4.39Z"/>
          <path class="cls-7" d="M236.53,1121.27c1.01,2.41-17.13,18.95-53.6-4.39,0,0,37.42-34.25,53.6,4.39Z"/>
          <path class="cls-7" d="M255.67,1132.86c-3.56-2.81-22.86-32.79,17.15-16.89,0,0,39.99,62-17.15,16.89Z"/>
          <path class="cls-7" d="M246.75,1096.7c-3.56-2.81-22.86-32.79,17.15-16.89,0,0,39.99,62-17.15,16.89Z"/>
          <path class="cls-7" d="M220.2,1175.05c1.27,1.48-8.16,17.27-39.78,8.91,0,0,19.43-32.66,39.78-8.91Z"/>
          <path class="cls-7" d="M196,1205.89c1.36.84-.52,15.66-25.55,17.21,0,0,3.82-30.63,25.55-17.21Z"/>
          <path class="cls-7" d="M232.56,1164.63c-2.2,9.38-5.24,14.67,2.92,32.74,0,0,24.35-20.22,10.71-26.48"/>
          <path class="cls-7" d="M198.08,1206.22c-2.82,5.67-5.66,8.57-2.59,21.54,0,0,19.55-8.99,11.07-15.27"/>
          <path class="cls-7" d="M134.93,1129.85c-6.72.09-9.86,2.6-27.25-14.15,0,0,7.47-26.97,17.36-6.41"/>
          <path class="cls-7" d="M172.4,1052.53c-11.09,11.29-16.21,20.06-45.45,25.33,0,0,11.51-50.44,28.48-37.88"/>
          <path class="cls-7" d="M27.6,1268.51c-5.76,5.49-8.22,9.96-24.82,11.14,0,0,3.76-26.72,14.29-18.93"/>
          <path class="cls-7" d="M107.92,1166.32c-13.24,4.5-20.34,9.68-48.43.17,0,0,24.52-38.47,36.48-19.32"/>
          <path class="cls-7" d="M90.51,1235.47c-8.34,8.69-12.3,15.33-33.48,20.16,0,0,9.89-37.62,21.69-28.89"/>
          <path class="cls-7" d="M240.15,1089.75c-11.74,3.91-18.32,8.13-41.3,1.84,0,0,24.78-30.3,33.04-16.07"/>
          <path class="cls-7" d="M149.62,1198.97c-2.5,7.7-6.04,11.4,3.8,30.66,0,0,28.56-9.63,12.38-20.15"/>
          <path class="cls-7" d="M32.22,1255.76c1.09,8.17.41,13.3,11.49,25.47,0,0,11.84-23.28.17-24.38"/>
          <path class="cls-7" d="M143.81,1233.16c.95,9.09-.27,14.67,13.66,29.07,0,0,17.06-24.52,1.7-26.8"/>
          <path class="cls-7" d="M59.46,1220.79c-6.95,6.74-9.97,12.15-29.58,14.03,0,0,5.18-32.08,17.38-23.06"/>
          <path class="cls-7" d="M92,1195.46c5.85,11.52,7.5,19.46,30.18,31.79,0,0,5.42-40.5-12.38-36.14"/>
          <path class="cls-7" d="M226.17,1156.55c2.88,5.29,4.86,10.99,5.85,16.77"/>
          <path class="cls-7" d="M232.34,1140.15c.7-.34,1.41-.69,2.11-1.03-2.76,5.77-8.9,9.67-15.6,9.91"/>
          <path class="cls-7" d="M218.3,1177.7c.56-.66,1.7-.75,2.46-.18-2.44,1.52-4.44,3.66-5.79,6.17-3.6,6.68-2.32,15.08-.96,22.86"/>
          <path class="cls-7" d="M219.48,1173.78c-4.42,6-14.04,7.5-20.96,3.27"/>
          <path class="cls-7" d="M198.94,1203.78c.94.25,1.58,1.35,1.29,2.21-11.29-.29-22.07,5.3-27.72,14.37"/>
          <path class="cls-7" d="M234.43,1126.07c-.46.03-.03.94.31.65-5.04-2.28-10.07-4.55-15.11-6.83-2.42-1.09-4.89-2.2-7.48-2.48-4.63-.51-8.87,1.67-12.65,3.98"/>
          <path class="cls-7" d="M228.4,1141.26c1.08-.35,2.39-.08,3.31.7-1.18,5.21-6.14,9.11-11.69,9.2-8.02.12-15.03-6.7-23.04-8.2-5.72-1.08-11.69.84-15.3,4.91"/>
          <path class="cls-7" d="M32.33,1241.74c1.11-2.97,3.05-5.59,5.58-7.5"/>
          <path class="cls-7" d="M106.19,1171.66c-4.89,1.17-8.21,5.38-10.12,9.87-2.86,6.7-3.3,14.28-3.59,21.71s-.48,15.01-2.9,21.9c-2.42,6.89-7.46,13.14-14.69,15.07"/>
          <path class="cls-7" d="M90.34,1213.58c-.52,1.15-1.03,2.3-1.55,3.45.62-.4,1.24-.79,1.86-1.19-6.92.49-13.56,2.73-19.11,6.44"/>
          <path class="cls-7" d="M94.32,1224.58c1.15,6.27,2.07,12.57,2.76,18.87"/>
          <path class="cls-7" d="M93.56,1200.2c3.32-2.12,7.96-2.27,11.74-.37,3.78,1.9,6.57,5.76,7.04,9.79"/>
          <path class="cls-7" d="M188.01,1127.63c-10.6,2.2-17.2,11.9-21.25,21.57-3.21,7.67-5.48,15.86-5.64,24.36"/>
          <path class="cls-7" d="M162.98,1155.2c-6.02,7.49-15.84,11.84-26,11.51"/>
          <path class="cls-7" d="M149.73,1166.87c-3.37,3.22-4.29,8.24-4.39,13.01-.1,4.78.45,9.67-.6,14.26-1.05,4.59-4.21,8.99-9,9.71"/>
          <path class="cls-7" d="M142.23,1179.8c.61.96-.49,1.94-1.45,2.42-6.38,3.21-12.8,6.44-18.45,10.7-5.65,4.25-10.56,9.63-13.16,16.2"/>
          <path class="cls-7" d="M219.95,1056.01c-7.73,2.46-15.44,5.14-22.27,9.25-6.84,4.12-12.81,9.79-15.97,17.06"/>
          <path class="cls-7" d="M199.11,1061.01c-5.71,1.06-11.2-3.39-16.73-5.87-6.21-2.78-13.16-3.14-19.62-2.17s-12.55,3.21-18.59,5.42"/>
          <path class="cls-7" d="M167.67,1073.17c-5.7,4.07-6.55,11.95-8.57,18.67-4.92,16.34-19.7,28.79-37.15,31.28"/>
          <path class="cls-7" d="M258.79,1035.55c-8.51,3.19-18.94,1.95-27.1-3.22-3.13-1.98-5.92-4.49-9.16-6.27-7.58-4.18-16.56-3.91-24.79-2.79-9.27,1.26-18.34,3.44-27.03,6.5"/>
          <path class="cls-7" d="M126.41,1129.83c.85-.21,1.71-.41,2.56-.62-2.55,1.24-5.34,2.04-8.23,2.36-1.76.2-3.58.21-5.33-.26-2.72-.74-5.05-2.58-7.58-3.89-7.83-4.04-16.92-2.73-25.23-1.3"/>
          <path class="cls-7" d="M123.32,1127.11c-.05-.66.84-.84,1.45-1.08,1.53-.62,1.79-2.61,1.65-4.28-.27-3.28-1.32-6.55-3.03-9.5-.27-.47-.59-.95-1.09-1.17-.46-.2-.97-.12-1.45-.03-1.57.3-3.13.63-4.67,1.01"/>
          <path class="cls-7" d="M99.56,1153.37c-6.19,5.3-15.5,7.02-23.85,4.39"/>
        </g>
        <g>
          <g>
            <path class="cls-6" d="M206.89,1101.73l9.18.08c-.14,18.31,1.52,36.65,4.86,54.67,3.37,18.04,8.4,35.71,14.92,52.92,12.95,34.51,30.79,67.18,46.68,101.05,7.94,16.95,15.33,34.31,21,52.38,2.8,9.04,5.16,18.26,6.87,27.63,1.69,9.38,2.69,18.91,2.86,28.5.31,19.16-3.03,38.51-10.17,56.36-1.79,4.46-3.75,8.87-6.02,13.12-1.09,2.15-2.32,4.23-3.53,6.32-.58,1.06-1.28,2.05-1.92,3.08l-1.1,1.71c-1.01,1.53-2.11,3.02-3.16,4.52-8.89,9.25-19.27,16.86-30.51,21.81,9.98-7.76,17.86-17.54,23.8-28.15l1.44-2.05c.24-.34.49-.68.71-1.04l2.37-3.71c2.24-3.8,4.42-7.65,6.25-11.69.99-1.98,1.79-4.05,2.68-6.08l1.2-3.1c.4-1.03.8-2.07,1.14-3.12,2.91-8.39,5.1-17.03,6.3-25.83,1.23-8.79,1.6-17.71,1.22-26.61-.86-17.82-4.75-35.5-10.39-52.65-5.61-17.18-12.91-33.86-20.69-50.37-15.63-33-33.23-65.5-46.2-100.36-6.48-17.41-11.58-35.43-14.94-53.76-3.34-18.33-5.02-36.98-4.88-55.64Z"/>
            <path class="cls-6" d="M260.87,1287.43l7.83-.3-.06-.28s-.06-.04.04-.08l.29-.11.58-.23.29-.11c.06-.03,0-.06.01-.09l-.04-.17c-.03-.12-.06-.21-.09-.31-.12-.4-.22-.59-.23-.63-.04-.09.21.45.35,1.08.3,1.27.18,2.68-.21,3.91-.09.29-.18.55-.27.78l-.21.5-.41,1c-.26.67-.57,1.33-.87,1.99-1.22,2.63-2.63,5.17-4.23,7.58-3.21,4.81-7.12,9.09-11.4,12.81-8.61,7.5-18.49,12.47-27.38,17.83-2.22,1.34-4.42,2.73-6.49,4.14-.99.68-1.66,1.24-2.09,1.76-.22.27-.38.5-.54.83-.16.32-.33.72-.47,1.18-.6,1.81-.92,4.49-1.37,7.14l-1.3,7.91c-.88,5.27-1.8,10.53-2.74,15.79l-2.4,12.93c-3.95,11.73-8.07,23.38-12.36,34.95,1.4-12.61,2.6-25.23,3.6-37.83l2.43-13.21c.92-5.15,1.81-10.3,2.66-15.46l1.26-7.74c.45-2.53.69-5.35,2.02-8.7.34-.83.79-1.7,1.35-2.54.56-.83,1.21-1.58,1.87-2.22,1.34-1.3,2.68-2.17,3.77-2.9,2.27-1.52,4.57-2.95,6.86-4.32,9.18-5.46,18.3-10.19,25.62-16.71,3.67-3.24,6.92-6.86,9.56-10.86,1.33-2,2.47-4.1,3.47-6.27.26-.54.5-1.09.72-1.64l.34-.83.16-.39.05-.14s0,0,0,0Z"/>
            <path class="cls-6" d="M208.17,1110.55l6.43-6.55c1.26,1.23,2.08,2.75,2.55,4.14.47,1.41.64,2.72.7,3.96.1,2.46-.23,4.63-.69,6.7-.25,1.09-.48,1.91-.71,2.81l-.7,2.67-1.42,5.35c-1.92,7.14-3.96,14.31-6.39,21.42-2.41,7.09-5.36,14.19-8.77,20.88-3.38,6.71-7.07,13.11-10.48,19.51-1.71,3.2-3.34,6.4-4.85,9.63-.78,1.6-1.43,3.26-2.15,4.89-.73,1.62-1.35,3.29-1.98,4.96-2.53,6.66-4.58,13.52-6.23,20.49-1.61,6.98-2.79,14.06-3.6,21.19-.17,1.79-.43,3.56-.54,5.36l-.37,4.99-.23,5.18c-.29,1.49-.51,2.98-.73,4.47l-.66,4.5c-.33,3.01-.76,6.04-.96,9.09-.59,6.09-.74,12.23-.81,18.42-3-12.35-5.13-25.08-5.92-38.02l.11-2.67c.02-.44.03-.89.06-1.33l.16-2.18c.15-1.85.24-3.7.45-5.54l.6-5.53c.94-7.35,2.25-14.67,4-21.89,1.73-7.23,3.96-14.35,6.69-21.3.64-1.75,1.4-3.46,2.14-5.18l1.11-2.57,1.19-2.53c1.61-3.36,3.31-6.64,5.05-9.86,3.47-6.45,7.04-12.7,10.2-19.03,3.18-6.31,5.8-12.75,8.07-19.49,2.28-6.71,4.23-13.59,6.09-20.54l1.38-5.23.69-2.62.34-1.31c.11-.45.2-.77.28-1.16.33-1.48.51-2.96.44-4.15-.03-.59-.12-1.09-.24-1.42-.12-.34-.22-.46-.28-.52Z"/>
            <path class="cls-6" d="M239.61,1103.2l7.66-5.05c10.37,15.66,21.69,30.83,32.69,46.37,5.5,7.77,10.88,15.68,16.04,23.76l3.8,6.11c1.25,2.05,2.44,4.15,3.66,6.22.6,1.04,1.23,2.07,1.8,3.13l1.66,3.07,2.56,4.75c4.22,11.83,7.5,23.95,9.31,36.13-4.85-11.7-11.04-22.63-17.98-32.97l-2.57-4.74c-1.06-2.03-2.24-4.01-3.4-6-2.27-4-4.76-7.89-7.19-11.81-5.01-7.77-10.25-15.43-15.62-23.02-10.78-15.18-21.98-30.21-32.42-45.95Z"/>
            <path class="cls-6" d="M233.21,1098.07l9.13-.95c.9,9.2,1.43,18.39,1.75,27.54.29,9.15.44,18.26.62,27.33.19,9.07.49,18.09,1.04,27.06l.51,6.71c.14,2.24.45,4.45.66,6.68l.35,3.33c.06.56.15,1.1.23,1.66l.22,1.55.74,5.14c.23,12.07,1.53,24.23,4.53,36.25-5.97-11.26-10.42-23.49-13.73-36.01l-.79-5.5c-.36-2.26-.52-4.53-.79-6.8-.25-2.27-.49-4.53-.64-6.8l-.51-6.8c-.54-9.05-.81-18.08-1.01-27.07-.18-8.98-.34-17.92-.63-26.83-.32-8.89-.85-17.74-1.71-26.52Z"/>
            <path class="cls-6" d="M239.49,1160.4l-1.42-8.79c.8-.21,1.63-.35,2.47-.26.42.01.83.08,1.24.18.39.07.91.29,1.35.46,1.66.79,2.58,1.69,3.41,2.53,1.58,1.7,2.64,3.34,3.6,5.04l4.85,8.92c3.19,5.95,6.36,11.91,9.44,17.92,6.18,12.02,12.12,24.18,17.66,36.55,5.55,12.36,10.65,24.96,15.13,37.79,1.18,3.18,2.18,6.44,3.25,9.67.52,1.62,1.07,3.23,1.57,4.85l1.44,4.9,1.44,4.9c.25.81.45,1.64.67,2.47l.56,2.16,1.34,5.2c1.31,12.44,1.95,24.86,1.82,37.17-2.93-12.34-6.65-24.38-10.99-36.12l-1.46-5.65c-.39-1.59-.85-3.16-1.32-4.73l-1.38-4.71c-.88-3.15-1.94-6.25-2.95-9.37l-1.53-4.67-1.66-4.63c-4.4-12.35-9.34-24.54-14.75-36.53-5.4-12-11.2-23.83-17.25-35.56-3.01-5.87-6.12-11.69-9.24-17.51l-4.71-8.66c-.67-1.21-1.48-2.36-2.18-3.09-.32-.36-.68-.57-.53-.48l.15.05Z"/>
            <path class="cls-5" d="M24.48,1295.06c-3.39-51.66,18.4-107.92,63-136.53,10.16-6.46,21.32-11.44,32.87-14.64-10.62,5.42-20.74,11.29-30.08,18.59-40.8,31.43-60.07,82.72-65.78,132.58h0Z"/>
          </g>
          <g id="vine">
            <path class="cls-7" d="M243.48,1258.33c-42.52,5.79-23.73,56.24-23.73,56.24,0,0,44.27-27.6,22.95-53.37"/>
            <path class="cls-7" d="M261.96,1386.49c-41.79-9.29-44.82,43.98-44.82,43.98,0,0,52.25-10.34,42.93-41.59"/>
            <path class="cls-7" d="M157.69,1267.99c-29.92-4.93-25.91,30.21-25.91,30.21,0,0,34.9-8.28,24.88-28.58"/>
            <path class="cls-7" d="M186.6,1197.66c-29.24-24.24-56.25,17.38-56.25,17.38,0,0,46.69,12.65,53.64-16.21"/>
            <path class="cls-7" d="M284.7,1162.1c-53.48,5.26-27.91,63.24-27.91,63.24,0,0,54.88-30.03,27.02-60"/>
            <path class="cls-7" d="M287.07,1214.82c-49.59,19.19-7.06,67.96-7.06,67.96,0,0,43.23-43.28,7.22-64.63"/>
            <path class="cls-7" d="M245.98,1214.08c-49.59,19.19-7.06,67.96-7.06,67.96,0,0,43.23-43.28,7.22-64.63"/>
            <path class="cls-7" d="M275.47,1288.17c-53.48,5.26-27.91,63.24-27.91,63.24,0,0,54.88-30.03,27.02-60"/>
            <path class="cls-7" d="M281.67,1511.42c-38.55-5.11-22.43,30.59-22.43,30.59,0,0,40.51-8.3,21.68-28.94"/>
            <path class="cls-7" d="M193.45,1386.36c-28.2,2.19-14.15,31.16-14.15,31.16,0,0,28.71-14.47,13.71-29.56"/>
            <path class="cls-7" d="M203.7,1382.5c33.82-3.67,19.98,28.54,19.98,28.54,0,0-35.66-8.63-19.3-27.02"/>
            <path class="cls-7" d="M295.95,1369.89c33.95-9.98,40.98,34.4,40.98,34.4,0,0-44.31-5.88-39.21-32.5"/>
            <path class="cls-7" d="M309.04,1282.09c-2.86,1.71,3.18,32.5,58.19,36.24,0,0-12.37-63.64-58.19-36.24Z"/>
            <path class="cls-7" d="M254.45,1086.28c-4.43,2.83,2.59,50.52,85.4,53.19,0,0-14.34-98.59-85.4-53.19Z"/>
            <path class="cls-7" d="M312.72,1196.37c-4.01.6-15.75,35.33,39.91,62.21,0,0,24.39-71.76-39.91-62.21Z"/>
            <path class="cls-7" d="M310.46,1454.26c-2.24.42-7.31,20.65,25.4,35.08,0,0,10.55-41.8-25.4-35.08Z"/>
            <path class="cls-7" d="M214.75,1345.79c1.39-1.98,25.75-.47,28.05,34.74,0,0-50.36-3.03-28.05-34.74Z"/>
            <path class="cls-7" d="M176.7,1212.86c-2.86,1.71,3.18,32.5,58.19,36.24,0,0-12.37-63.64-58.19-36.24Z"/>
            <path class="cls-7" d="M189.92,1179.02c-2.86,1.71,3.18,32.5,58.19,36.24,0,0-12.37-63.64-58.19-36.24Z"/>
            <path class="cls-7" d="M161.54,1176.38c5.78-.18,48.24-16.31-4.76-30.39,0,0-87.91,33.3,4.76,30.39Z"/>
            <path class="cls-7" d="M198.06,1146c5.78-.18,48.24-16.31-4.76-30.39,0,0-87.91,33.3,4.76,30.39Z"/>
            <path class="cls-7" d="M165.89,1246.69c-2.42.56-4.73,23.95,33.98,39.4,0,0,4.85-48.33-33.98-39.4Z"/>
            <path class="cls-7" d="M167.31,1296.79c-2.02-.17-11.33,16.48,13.12,37.1,0,0,19.29-34.38-13.12-37.1Z"/>
            <path class="cls-7" d="M161.13,1226.59c-4.85,11.3-5.74,19.05-27.79,31.42,0,0-9.61-39.29,9.09-35.36"/>
            <path class="cls-7" d="M164.93,1295.54c-1.4,7.97-.7,13.11-13.67,24.11,0,0-13.21-24.11.23-24.11"/>
            <path class="cls-7" d="M287.43,1265.08c6.81,5.2,8.12,10.17,38.61,6.18,0,0,12.78-33.39-12.91-19.79"/>
            <path class="cls-7" d="M307.63,1157.14c2.8,20.04,1.4,32.94,27.34,60.58,0,0,26.42-60.58-.46-60.58"/>
            <path class="cls-7" d="M292.28,1489.16c1.74,10.03.87,16.48,16.96,30.32,0,0,16.39-30.32-.29-30.32"/>
            <path class="cls-7" d="M287.45,1323.09c10.15,14.69,13.49,25.42,49.45,37,0,0,4.04-58.18-22.71-47.59"/>
            <path class="cls-7" d="M252.89,1407.39c1.95,15.27.97,25.1,19.01,46.17,0,0,18.37-46.17-.32-46.17"/>
            <path class="cls-7" d="M210.08,1143.88c9.06,12.95,12.6,22.28,40.88,33.29,0,0-2.42-49.98-21.65-41.64"/>
            <path class="cls-7" d="M220.03,1324.94c-3.27,9.81-2.46,16.31-27.11,28.62,0,0-21.95-31.61,2.58-30.12"/>
            <path class="cls-7" d="M297.2,1472.55c-7.31,7.56-10.49,13.36-31.06,17.43,0,0,5.51-32.93,18.28-25.18"/>
            <path class="cls-7" d="M200.08,1364.48c-7.86,8.61-10.84,15.27-36,19.49,0,0,1.11-38.17,18.56-28.83"/>
            <path class="cls-7" d="M295.8,1415.9c2.02,12.21,1.01,20.07,19.65,36.91,0,0,18.99-36.91-.33-36.91"/>
            <path class="cls-7" d="M281.67,1365.14c-14.72,7.39-22.42,14.3-54.98,9.72,0,0,25.13-45.73,40.05-27.72"/>
            <path class="cls-7" d="M173.79,1223.15c-6.95,3.25-13.3,7.59-18.69,12.79"/>
            <path class="cls-7" d="M179.9,1201.6l-1.38-2.66c-1.55,8.03,1.79,16.7,8.46,22.04"/>
            <path class="cls-7" d="M165.83,1250.86c-.07-1.1-1.18-2.06-2.38-2.06,1.34,3.42,1.77,7.13,1.26,10.74-1.37,9.6-9.04,17.26-16.33,24.22"/>
            <path class="cls-7" d="M167.59,1245.94c-.02,9.52,8.7,18.38,18.98,19.29"/>
            <path class="cls-7" d="M165.9,1292.38c-1.14-.46-2.65.19-3,1.29,11.77,8.28,18.58,22.23,17.5,35.84"/>
            <path class="cls-7" d="M188.43,1185.55c.45.38-.68.99-.81.43,6.88,1.49,13.76,2.98,20.64,4.47,3.3.72,6.67,1.46,9.54,3.13,5.13,3,7.82,8.47,9.94,13.71"/>
            <path class="cls-7" d="M183.09,1205.74c-.83-1.18-2.39-1.9-3.91-1.8-2.75,6.25-.62,14.03,5.01,18.34,8.12,6.22,20.46,4.55,29.8,9.09,6.67,3.24,11.33,9.75,11.94,16.68"/>
            <path class="cls-7" d="M307.71,1458.05c1.12-3.9,1.11-8.06-.03-11.95"/>
            <path class="cls-7" d="M285.18,1329.9c4.12,4.92,4.32,11.77,2.88,17.84-2.15,9.06-7.44,17.18-12.77,25.03-5.33,7.86-10.87,15.79-13.62,24.7-2.75,8.92-2.32,19.17,3.63,26.65"/>
            <path class="cls-7" d="M269.65,1385.01l-1.02,4.72c-.34-.88-.67-1.76-1.01-2.64,6.71,5.77,11.81,13.11,14.68,21.15"/>
            <path class="cls-7" d="M257.24,1393.3c-5.93,5.57-11.64,11.34-17.12,17.29"/>
            <path class="cls-7" d="M276.49,1368.83c-1.79-4.7-6.43-8.38-11.74-9.31-5.31-.93-11.09.93-14.62,4.7"/>
            <path class="cls-7" d="M234.77,1222.44c9.18,10.32,8.59,25.3,5.42,38.32-2.52,10.32-6.41,20.46-12.68,29.32"/>
            <path class="cls-7" d="M239.51,1269.81c.49,12.27,7.25,24.21,17.89,31.59"/>
            <path class="cls-7" d="M244.24,1291.87c1.01,5.87-1.85,11.73-5.36,16.71s-7.79,9.6-10.19,15.11c-2.4,5.52-2.5,12.43,1.86,16.81"/>
            <path class="cls-7" d="M242.11,1310.85c-1.35.52-.96,2.36-.35,3.59,4.1,8.15,8.22,16.35,10.78,25.02s3.51,17.92,1.2,26.65"/>
            <path class="cls-7" d="M256.32,1124.57c6.05,8.4,11.91,17.01,15.8,26.44,3.88,9.43,5.7,19.81,3.43,29.67"/>
            <path class="cls-7" d="M273.86,1145.55c5.04,5.43,14.03,5.03,21.57,6.69,8.47,1.86,15.85,6.78,21.73,12.69,5.88,5.92,10.42,12.84,14.92,19.7"/>
            <path class="cls-7" d="M296.84,1181.94c2.75,8.52-2.35,17.26-5.37,25.7-7.34,20.53-1.64,44.56,14.34,60.38"/>
            <path class="cls-7" d="M232.06,1074.02c6.3,9.75,17.91,16.4,30.17,17.29,4.7.34,9.46-.11,14.13.52,10.93,1.47,19.92,8.57,27.49,15.98,8.54,8.35,16.17,17.48,22.75,27.22"/>
            <path class="cls-7" d="M296.16,1271.54l-2.16-2.59c1.67,3.21,3.93,6.15,6.64,8.68,1.65,1.54,3.5,2.94,5.66,3.79,3.35,1.31,7.12,1.19,10.71,1.77,11.08,1.8,19.38,10.06,26.81,17.85"/>
            <path class="cls-7" d="M301.38,1271.09c.55-.65-.23-1.5-.67-2.22-1.1-1.81.14-4.05,1.55-5.66,2.76-3.16,6.31-5.73,10.29-7.46.63-.27,1.33-.53,2-.37.62.15,1.08.62,1.5,1.07,1.38,1.5,2.72,3.03,4.01,4.59"/>
            <path class="cls-7" d="M305.82,1316.14c2.32,10.16,10.55,19,21.09,22.65"/>
            <path class="cls-7" d="M304.72,1372.32c-.82-.29-1.64-.58-2.46-.87,8.76,3.52,15.78,10.57,18.85,18.91"/>
            <path class="cls-7" d="M309.48,1424.02c-.76.52-1.53,1.04-2.29,1.55-1.67-2.68-4.21-4.88-7.2-6.27-1.13-.52-2.49-1.87-1.45-2.54"/>
            <path class="cls-7" d="M308.14,1456.15c11.5,1.47,21.72,9.44,25.21,19.64.09.26.21.56.49.66s.65-.26.42-.44"/>
            <path class="cls-7" d="M299.86,1478.12c-2.14-2.3-4.67-4.44-7.77-5.44-3.11-1-6.89-.67-9.23,1.46-1.04.95-1.76,2.19-2.94,2.98-.82.55-1.81.84-2.64,1.38-.83.54-1.5,1.48-1.19,2.37.26-.32.53-.63.79-.95"/>
            <path class="cls-7" d="M293.86,1489.28c-.37-.41-1.23-.23-1.37.29,4.32,3.47,10.89,5.3,12.57,10.35"/>
            <path class="cls-7" d="M207.35,1385.82c-2.71.22-4.77-3.21-3.14-5.21,4.11,1.77,7.42,5.05,9.04,8.95"/>
            <path class="cls-7" d="M204.7,1367.04c-1.2,6.34-3.79,12.46-7.56,17.88-2.47,3.55-5.44,6.79-7.72,10.44-2.29,3.65-3.89,7.86-3.27,12.04"/>
            <path class="cls-7" d="M206.15,1363.71c.56-.46-.56-1.04-1.3-.96-8.51.95-16.95,2.37-25.27,4.25.53.72,1.07,1.43,1.6,2.15"/>
            <path class="cls-7" d="M209.1,1341.28c-.26-.68.3-1.51,1.07-1.61.54,1.78,1.08,3.55,1.62,5.33.47,1.55.96,3.13,2.02,4.41,1.46,1.75,3.78,2.67,5.79,3.87,4.69,2.82,7.92,7.61,8.58,12.73"/>
            <path class="cls-7" d="M221.73,1327.29c-6.25-1.81-13.39-.77-18.74,2.72"/>
            <path class="cls-7" d="M177.02,1208.53c-.15-2.15-.37-4.29-.64-6.43-.19-1.49-.47-3.1-1.61-4.17-1.01-.94-2.53-1.29-3.96-1.24-3.88.11-7.44,3.02-8.03,6.55"/>
            <path class="cls-7" d="M202.05,1155.09c-8.33,2.62-17.44-.81-26.21-.18-5.41.39-10.53,2.32-15.55,4.22-6.55,2.48-13.45,5.21-17.59,10.52"/>
            <path class="cls-7" d="M206.28,1142.33c-.48-6.01-5.04-11.58-11.18-13.66-1.17-.4-2.51-.67-3.65-.19-1.14.47-1.8,1.98-.96,2.83"/>
            <path class="cls-7" d="M217.58,1150.21c-.61.22-1.36.03-1.76-.45,3.12-3.39,8.01-5.56,12.78-4.89s8.98,4.61,8.87,9.05"/>
            <path class="cls-7" d="M275.47,1167.49c2.72,7.92,1.23,16.98-3.93,23.8-1.75,2.31-3.94,4.48-4.65,7.23"/>
            <path class="cls-7" d="M288.35,1222.15l-.38-1.39c-4.9,4.49-7.63,10.69-8.79,16.97-1.16,6.28-.87,12.71-.5,19.07"/>
            <path class="cls-7" d="M267.56,1293.09c-.4.67.29,1.42.87,1.98,2.68,2.61,3.57,6.46,3.15,10.03s-2.01,6.93-3.75,10.15c-2.83,5.24-6.11,10.26-9.81,15.02"/>
            <path class="cls-7" d="M307.5,1197.02c.93,2.56,4.72,2.61,7.64,2.79,7.66.47,14.48,5.19,18.56,11.18s5.78,13.1,6.58,20.14"/>
          </g>
        </g>
      </g>
    </g>
  </g>
</svg>