<?xml version="1.0" encoding="UTF-8"?>
<svg id="Layer_2" data-name="Layer 2" xmlns="http://www.w3.org/2000/svg" viewBox="0 0 744.79 563.18">
  <defs>
    <style>
      .cls-1 {
        fill: #ccaa85;
      }

      .cls-1, .cls-2, .cls-3, .cls-4, .cls-5 {
        stroke-width: 0px;
      }

      .cls-2 {
        fill: #fffbe1;
        opacity: .3;
      }

      .cls-3 {
        fill: #f9f4e5;
      }

      .cls-4 {
        fill: #c43131;
      }

      .cls-5 {
        fill: #f7e4b2;
      }
    </style>
  </defs>
  <g id="Watering_Can" data-name="Watering Can">
    <g>
      <path class="cls-4" d="M743,382.38c27.4,39.02-269.21,202.97-283.11,178.28-13.9-24.69-190.34-315.78-190.34-315.78l276.15-172.42,197.29,309.92Z"/>
      <path class="cls-2" d="M425.88,154.86l193.16,331.47s45.91-28.66,50.87-31.76l-201.6-326.26-42.44,26.56Z"/>
      <path class="cls-2" d="M457.46,141.21l188.43,334.42s67.77-42.31,75.09-46.89l-200.87-326.72-62.65,39.19Z"/>
      <g>
        <path class="cls-1" d="M498.83,222.55c-82.05,51.23-177.12,106.63-178.55,107.46l-4.53-7.79c2.15-1.25,215.92-125.82,278.21-173.68l5.49,7.14c-21.05,16.17-59.17,40.98-100.61,66.86Z"/>
        <path class="cls-5" d="M498.83,222.55c-82.05,51.23-177.12,106.63-178.55,107.46l-4.53-7.79c2.15-1.25,215.92-125.82,278.21-173.68l5.49,7.14c-21.05,16.17-59.17,40.98-100.61,66.86Z"/>
      </g>
      <path class="cls-5" d="M513.14,245.48c-82.05,51.23-177.12,106.63-178.55,107.46l-4.53-7.79c2.15-1.25,215.92-125.82,278.21-173.68l5.49,7.14c-21.05,16.17-59.17,40.98-100.61,66.86Z"/>
      <path class="cls-5" d="M593.34,443.75c-3.57,2.23-7.12,4.42-10.63,6.56-50.62,30.85-118.95,66.79-144.91,66.55-5.47-.05-6.54-2.94-8.37-6.21,0,0,6.74-.24,8.43-.23,19.94.19,76.8-26.18,141.5-65.61,66.2-40.36,116.77-79.77,128.82-100.42,1.75-3,4.67-8.93,3.28-11.34l3.41,5.46c2.36,4.08,2.67,2.62-1.12,9.13-14.22,24.38-69.65,64.43-120.39,96.11Z"/>
      <path class="cls-4" d="M701.14,84.95c.13.04,13.58,32.97,8.58,57.97,1,9,5.21-4.39,8-3,2-82-55.63-114.14-66.48-115.9-12.27-7.51-62.46-12.58-85.53,18.51-23.07,31.09-10.66,46.1-10.66,46.1l18.88,30.24s5.93-.23,7.16-5.54c0,0-13.36-18.97-22.49-36.02,12.64-76.92,112.04-64.51,142.54,7.64Z"/>
      <path class="cls-4" d="M710.72,139.92c-1.7,22.33-9.98,48.56-24.51,76.16,0,0-32.48,47.59-9.07,67.12,15.16,27.68,21.85,34.99,21.85,34.99,0,0,7.5-4.04,7.23-6.9-.27-2.86-24.12-41.07-24.12-41.07,0,0-7.5-12.01.42-26.05,7.39-17.85,32.12-61.58,35.05-106.69-2.49,1.4-4.06,1.47-6.84,2.43Z"/>
      <path class="cls-4" d="M267.58,245.35s48.72-65.31,133.18-119.56c0,0,3.41-6.68,31.23,6.29,0,0,108.47-69.24,113.72-59.62,5.25,9.62-278.13,172.89-278.13,172.89Z"/>
      <path class="cls-4" d="M398.94,222.5S288.54,45.68,296.88,17.72c5.46-3.41,28.38-17.72,28.38-17.72,0,0,28.09,15.84,101.15,127.99,0,0-37.71,1.55-34.31,7.01s39.59,67.06,39.59,67.06l-32.75,20.44Z"/>
      <circle class="cls-3" cx="406.46" cy="198.09" r="5.15"/>
      <polygon class="cls-4" points="177.42 388.87 307.85 307.44 311.94 313.99 173.87 400.19 177.42 388.87"/>
      <path class="cls-4" d="M61.7,372.38l311.18,35.54,45.66,73.13L56.71,402.05s-4.23-1.91-6.82,1.22-25.39,37.09-36.16,39.27c0,0-3.96,13.09-11.05,11.45-7.09-1.64-.69-126.24,27.01-145.05,4.64.14,7.29,12.89,7.29,12.89,0,0,12.19,28.04,17.37,46.04,1.49,5.19,7.3,3.79,7.36,4.5Z"/>
    </g>
  </g>
</svg>